SplineFontDB: 3.0
FontName: StickNoBillsSinhala-Bold
FullName: Stick No Bills
FamilyName: Stick No Bills
OS2StyleName: "regular"
Weight: Bold
Copyright: Remove All VKern Pairs
UComments: "2015-2-15: Created with FontForge (http://fontforge.org) The  Free Font Editor"
Version: 1.0
ItalicAngle: 0
UnderlinePosition: 0
UnderlineWidth: 0
Ascent: 819
Descent: 250
InvalidEm: 0
UFOAscent: 819
UFODescent: -250
LayerCount: 2
Layer: 0 0 "Back" 1
Layer: 1 0 "Fore" 0
FSType: 0
OS2Version: 0
OS2_WeightWidthSlopeOnly: 0
OS2_UseTypoMetrics: 0
CreationTime: 1443543020
ModificationTime: 1443616551
PfmFamily: 16
TTFWeight: 400
TTFWidth: 5
LineGap: 0
VLineGap: 0
OS2TypoAscent: 819
OS2TypoAOffset: 0
OS2TypoDescent: -250
OS2TypoDOffset: 0
OS2TypoLinegap: 0
OS2WinAscent: 922
OS2WinAOffset: 0
OS2WinDescent: 234
OS2WinDOffset: 0
HheadAscent: 922
HheadAOffset: 0
HheadDescent: -234
HheadDOffset: 0
OS2CapHeight: 0
OS2XHeight: 0
OS2Vendor: 'PfEd'
OS2UnicodeRanges: 00000002.00000000.00000000.00000000
Lookup: 4 0 0 "si_akhands" { "si_akhands subtable"  } ['akhn' ('sinh' <'dflt' > ) ]
Lookup: 4 0 0 "si_reph" { "si_reph subtable"  } ['rphf' ('sinh' <'dflt' > ) ]
Lookup: 4 0 0 "si_halant_1" { "si_halant_1 subtable"  } ['haln' ('sinh' <'dflt' > ) ]
Lookup: 4 0 0 "si_abvs_1" { "si_abvs_1 subtable"  } ['abvs' ('sinh' <'dflt' > ) ]
Lookup: 4 0 0 "si_abvs_2" { "si_abvs_2 subtable"  } ['abvs' ('sinh' <'dflt' > ) ]
Lookup: 4 0 0 "si_abvs_3" { "si_abvs_3 subtable"  } ['abvs' ('sinh' <'dflt' > ) ]
Lookup: 4 0 0 "si_abvs_4" { "si_abvs_4 subtable"  } ['abvs' ('sinh' <'dflt' > ) ]
Lookup: 4 0 0 "si_abvs_5" { "si_abvs_5 subtable"  } ['abvs' ('sinh' <'dflt' > ) ]
Lookup: 4 0 0 "si_abvs_6" { "si_abvs_6 subtable"  } ['abvs' ('sinh' <'dflt' > ) ]
Lookup: 4 0 0 "si_abvs_7" { "si_abvs_7 subtable"  } ['abvs' ('sinh' <'dflt' > ) ]
Lookup: 4 0 0 "si_blws_1" { "si_blws_1 subtable"  } ['blws' ('sinh' <'dflt' > ) ]
Lookup: 4 0 0 "si_blws_2" { "si_blws_2 subtable"  } ['blws' ('sinh' <'dflt' > ) ]

StartChar: anusvara
Encoding: 1 3458 0
GlifName: anusvara
Width: 469
VWidth: 0
GlyphClass: 2
Flags: W
HStem: 45 130<115.632 209.334 189.556 209.334 189.556 209.334 189.556 259.334 259.334 279.111 189.556 280.405> 384 130<189.556 209.334 259.334 279.111>
VStem: 30 135<248 311 228.301 340.126> 304 135
LayerCount: 2
Back
Fore
SplineSet
259.334 45 m 257
 259.334 175 l 257
 298.889 175 303.668 208.602 303.668 248 c 258
 303.668 311 l 258
 303.668 350.398 298.889 384 259.334 384 c 257
 259.334 514 l 257
 280.405 514 l 258
 425.668 514 438.668 369.253 438.668 311 c 258
 438.668 248 l 258
 438.668 189.747 425.668 45 280.405 45 c 258
 259.334 45 l 257
188.263 45 m 258
 43 45 30 189.747 30 248 c 258
 30 311 l 258
 30 369.253 43 514 188.263 514 c 258
 209.334 514 l 257
 209.334 384 l 257
 169.779 384 165 350.398 165 311 c 258
 165 248 l 258
 165 208.602 169.779 175 209.334 175 c 257
 209.334 45 l 257
 188.263 45 l 258
EndSplineSet
PickledDataWithLists: "(dp1
S'com.fontlab.hintData'
p2
(dp3
S'vhints'
p4
(lp5
(dp6
S'position'
p7
I30
sS'width'
p8
I135
sa(dp9
g7
I304
sg8
I135
sasS'hhints'
p10
(lp11
(dp12
g7
I45
sg8
I130
sa(dp13
g7
I384
sg8
I130
sass."
EndChar

StartChar: dottedcircle
Encoding: 83 9676 1
GlifName: dottedcircle
Width: 636
VWidth: 0
GlyphClass: 2
Flags: W
LayerCount: 2
Back
Fore
SplineSet
167.958 483.58 m 256
 167.958 502.58 182.958 517.58 201.958 517.58 c 256
 220.958 517.58 235.958 502.58 235.958 483.58 c 256
 235.958 464.58 220.958 449.58 201.958 449.58 c 256
 182.958 449.58 167.958 464.58 167.958 483.58 c 256
82.4199 398.042 m 256
 82.4199 417.042 97.4199 432.042 116.42 432.042 c 256
 135.42 432.042 150.42 417.042 150.42 398.042 c 256
 150.42 379.042 135.42 364.042 116.42 364.042 c 256
 97.4199 364.042 82.4199 379.042 82.4199 398.042 c 256
167.958 72.4199 m 256
 167.958 91.4199 182.958 106.42 201.958 106.42 c 256
 220.958 106.42 235.958 91.4199 235.958 72.4199 c 256
 235.958 53.4199 220.958 38.4199 201.958 38.4199 c 256
 182.958 38.4199 167.958 53.4199 167.958 72.4199 c 256
82.4199 157.958 m 256
 82.4199 176.958 97.4199 191.958 116.42 191.958 c 256
 135.42 191.958 150.42 176.958 150.42 157.958 c 256
 150.42 138.958 135.42 123.958 116.42 123.958 c 256
 97.4199 123.958 82.4199 138.958 82.4199 157.958 c 256
408.042 72.4199 m 256
 408.042 91.4199 423.042 106.42 442.042 106.42 c 256
 461.042 106.42 476.042 91.4199 476.042 72.4199 c 256
 476.042 53.4199 461.042 38.4199 442.042 38.4199 c 256
 423.042 38.4199 408.042 53.4199 408.042 72.4199 c 256
493.58 157.958 m 256
 493.58 176.958 508.58 191.958 527.58 191.958 c 256
 546.58 191.958 561.58 176.958 561.58 157.958 c 256
 561.58 138.958 546.58 123.958 527.58 123.958 c 256
 508.58 123.958 493.58 138.958 493.58 157.958 c 256
493.58 398.042 m 256
 493.58 417.042 508.58 432.042 527.58 432.042 c 256
 546.58 432.042 561.58 417.042 561.58 398.042 c 256
 561.58 379.042 546.58 364.042 527.58 364.042 c 256
 508.58 364.042 493.58 379.042 493.58 398.042 c 256
408.042 483.58 m 256
 408.042 502.58 423.042 517.58 442.042 517.58 c 256
 461.042 517.58 476.042 502.58 476.042 483.58 c 256
 476.042 464.58 461.042 449.58 442.042 449.58 c 256
 423.042 449.58 408.042 464.58 408.042 483.58 c 256
526 278 m 256
 526 297 541 312 560 312 c 256
 579 312 594 297 594 278 c 256
 594 259 579 244 560 244 c 256
 541 244 526 259 526 278 c 256
288 40 m 256
 288 59 303 74 322 74 c 256
 341 74 356 59 356 40 c 256
 356 21 341 6 322 6 c 256
 303 6 288 21 288 40 c 256
50 278 m 256
 50 297 65 312 84 312 c 256
 103 312 118 297 118 278 c 256
 118 259 103 244 84 244 c 256
 65 244 50 259 50 278 c 256
288 516 m 256
 288 535 303 550 322 550 c 256
 341 550 356 535 356 516 c 256
 356 497 341 482 322 482 c 256
 303 482 288 497 288 516 c 256
EndSplineSet
EndChar

StartChar: si_A
Encoding: 3 3461 2
GlifName: si_A_
Width: 544
VWidth: 0
GlyphClass: 2
Flags: W
LayerCount: 2
Back
Fore
SplineSet
312 -169 m 257
 312 380 l 258
 312 466 338 529 484 579 c 257
 514 434 l 257
 445.9 416.331 441.931 394.763 441.931 361.703 c 256
 441.931 357.341 442 352.779 442 140 c 257
 494 140 l 257
 494 0 l 257
 442 0 l 257
 442 -169 l 257
 312 -169 l 257
30 198 m 256
 30 337.017 125.045 402 256 402 c 258
 313 402 l 257
 313 439.367 278.239 457.175 243.43 457.175 c 256
 213.982 457.175 184.5 444.43 176 420 c 257
 58 459 l 257
 79.418 539.204 157.76 577.97 238.147 577.97 c 256
 338.48 577.97 442 517.58 442 402 c 258
 442 263 l 257
 256 263 l 258
 217 263 173 257.19 173 198 c 257
 173 146 220 136 257 136 c 256
 257 136 257 136 257 136 c 256
 257 0 l 256
 257 0 257 0 257 0 c 256
 137 0 30 59.3916 30 198 c 256
EndSplineSet
EndChar

StartChar: si_Ba
Encoding: 48 3510 17
GlifName: si_B_a
Width: 609
VWidth: 0
GlyphClass: 2
Flags: HW
LayerCount: 2
Back
Fore
SplineSet
30 187 m 258
 30 283 l 258
 30 390.84 122.007 451.906 211.942 451.906 c 256
 297.918 451.906 382 396.099 382 272 c 258
 382 174 l 258
 382 149.773 396.243 137.668 410.49 137.668 c 256
 424.743 137.668 439 149.784 439 174 c 257
 439 214 l 257
 579 214 l 257
 579 174 l 257
 579 51.6343 487.997 -8.05795 401.28 -8.05795 c 256
 322.365 -8.05795 247 41.377 247 138 c 258
 247 267 l 258
 247 297.832 225.734 313.285 204.476 313.285 c 256
 183.251 313.285 162.035 297.881 162 267 c 258
 161.917 193 l 258
 162 151 180.457 140 211 140 c 257
 211 0 l 257
 91.1055 0 30 55 30 187 c 258
439 200 m 257
 439 478 l 258
 439 556.997 422.428 616 345 616 c 257
 324 616 l 257
 324 755 l 257
 345 755 l 257
 478.701 755 579 679.969 579 500 c 258
 579 200 l 257
 439 200 l 257
41 566 m 257
 41 672.126 151.127 755 257.667 755 c 261
 268 755 l 257
 268 616.5 l 257
 257.667 616.5 l 257
 217.259 616.5 178 595.735 178 530 c 257
 41 566 l 257
EndSplineSet
EndChar

StartChar: si_Bha
Encoding: 49 3511 28
GlifName: si_B_ha
Width: 754
VWidth: 0
GlyphClass: 2
Flags: HW
HStem: -8 143<238.944 265 238.944 265 320 346.264 238.944 378.345 527 553.056> 400 12 421 143<448.096 471 527 553.056> 462 102
VStem: 68 141 291 14 374 124<105.668 196.519> 583 141
LayerCount: 2
Back
Fore
SplineSet
429.843664403 344.249986981 m 1
 429.843664403 373.699616579 424.85139457 421 471 421 c 1
 471 564 l 1
 327.062 564 291 468.007 291 350 c 2
 291 241 l 1
 325.191476098 240.877009079 l 2
 372.625631742 238.572161507 374 204.456721064 374 188 c 0
 374 170.963 372.527 135 320 135 c 1
 320 -8 l 1
 436.689 -8 498 45.3369 498 166 c 2
 497.85 216 l 2
 497.971702462 304.767341469 462.503700461 338.727744722 429.843664403 344.249986981 c 1
527 -8 m 257
 666.296 -8 723.58 81.7373 723.921 198 c 258
 723.921 353 l 262
 723.921 475.263 666.296 564 527 564 c 257
 527 421 l 257
 579.112 421 583 380.857 583 353 c 258
 583 198 l 258
 583 173.959 579.112 135 527 135 c 257
 527 -8 l 257
60 463.352 m 1
 159 437.352 l 1
 162.712 454.054 180.244 461.951 198.15 461.951 c 0
 229.426466062 461.951 241 445.825915807 241 415 c 1
 30 415 l 1
 30 297 l 1
 74.6031982506 297 l 1
 70.366322223 283.394509447 68.1363738512 268.984492375 68.0791 254 c 2
 68.0791 198 l 2
 68.4199 81.7373 125.704 -8 265 -8 c 1
 265 135 l 1
 212.888 135 209 174.577 209 199 c 2
 209 243 l 2
 209 263.607 212.888 297 265 297 c 2
 344 297 l 1
 344 433.352 l 2
 344 516.171 272.971 563.617 200.772 563.617 c 0
 142.161 563.617 82.7783 532.349 60 463.352 c 1
EndSplineSet
PickledDataWithLists: "(dp1
S'com.fontlab.hintData'
p2
(dp3
S'vhints'
p4
(lp5
(dp6
S'position'
p7
I68
sS'width'
p8
I141
sa(dp9
g7
I291
sg8
I14
sa(dp10
g7
I374
sg8
I124
sa(dp11
g7
I583
sg8
I141
sasS'hhints'
p12
(lp13
(dp14
g7
I-8
sg8
I143
sa(dp15
g7
I400
sg8
I12
sa(dp16
g7
I421
sg8
I143
sa(dp17
g7
I462
sg8
I102
sass."
EndChar

StartChar: si_C.halant
Encoding: 136 -1 30
GlifName: si_C_.halant
Width: 565
VWidth: 0
GlyphClass: 3
Flags: W
LayerCount: 2
Back
Fore
SplineSet
-6 252 m 257
 -6 354 l 257
 211 354 l 257
 211 360 l 257
 211.053 389.333 189.721 400 169 400 c 256
 159.147 400 133.971 397 129 376 c 257
 30 402 l 257
 56.4043 489.737 132.592 503 169 503 c 256
 212.907 503 257.606 486.114 281 459 c 256
 304.371 431.912 314 406 314 350 c 258
 314 252 l 257
 230 252 l 258
 192.72 252 171.981 224.45 171.981 196.088 c 256
 171.981 166.001 195.318 135 247 135 c 257
 247 -5 l 257
 119.558 -5 33 87.2324 33 192 c 256
 33 212.029 33.5162 232.24 44.3096 252 c 257
 -6 252 l 257
302.5 703 m 257
 302.5 819 l 257
 348 819 l 258
 496.359 819 521.333 756 521.333 673 c 257
 386 673 l 257
 386 700 361.333 703 316 703 c 258
 302.5 703 l 257
303 522 m 257
 303 652 l 257
 462.638 652 534.333 589.89 534.333 474 c 258
 534.333 238 l 258
 534.333 138.591 499.333 -5 303.333 -5 c 257
 303.333 135 l 257
 384.333 135 394.333 183.181 394.333 255 c 258
 394.333 455 l 258
 394.333 513.936 352.736 522 303 522 c 257
59.0303 707.438 m 256
 59.0303 780.907 135.952 819 247 819 c 257
 247 703 l 257
 224 703 l 258
 195.062 703 188.742 688.847 188.742 676.362 c 256
 188.742 661.503 202.065 652 224 652 c 257
 245 652 l 257
 245 522 l 257
 237 522 l 257
 101.825 522 89.8486 607.591 89.8486 651.652 c 257
 75.2352 652.028 59.0303 677.386 59.0303 707.438 c 256
245 522 m 257
 245 652 l 257
 303 652 l 257
 303 522 l 257
 245 522 l 257
53.333 522 m 257
 53.333 652 l 257
 245.333 652 l 257
 245.333 522 l 257
 53.333 522 l 257
EndSplineSet
Ligature2: "si_halant_1 subtable" si_Ca si_Halant
EndChar

StartChar: si_CI
Encoding: 137 -1 31
GlifName: si_C_I_
Width: 565
VWidth: 0
GlyphClass: 3
Flags: W
LayerCount: 2
Back
Fore
SplineSet
-6 252 m 257
 -6 354 l 257
 211 354 l 257
 211 360 l 257
 211.053 389.333 189.721 400 169 400 c 256
 159.147 400 133.971 397 129 376 c 257
 30 402 l 257
 56.4043 489.737 132.592 503 169 503 c 256
 212.907 503 257.606 486.114 281 459 c 256
 304.371 431.912 314 406 314 350 c 258
 314 252 l 257
 230 252 l 258
 192.72 252 171.981 224.45 171.981 196.088 c 256
 171.981 166.001 195.318 135 247 135 c 257
 247 -5 l 257
 119.558 -5 33 87.2324 33 192 c 256
 33 212.029 34.5162 233.24 44.3096 252 c 257
 -6 252 l 257
210 522 m 257
 91.8754 522 32.625 576.407 32.625 670.735 c 256
 32.625 744.907 91.6254 819 210 819 c 257
 247 819 l 257
 247 703 l 257
 189 703 l 257
 168.5 703 158.25 690.25 158.25 677.5 c 256
 158.25 664.75 168.5 652 189 652 c 257
 189 652 303 652 303 652 c 257
 303 522 l 257
 210 522 l 257
303.333 -5 m 257
 303.333 135 l 257
 386.333 135 394.333 185.885 394.333 258 c 258
 394.333 455 l 258
 394.333 513.935 352.736 522 303 522 c 257
 303 652 l 257
 462.638 652 534.333 589.889 534.333 474 c 258
 534.333 238 l 258
 534.333 138.591 499.333 -5 303.333 -5 c 257
302.5 703 m 257
 302.5 819 l 257
 348 819 l 258
 476.359 819 521.333 756 521.333 673 c 257
 386 673 l 257
 386 700 361.333 703 316 703 c 258
 302.5 703 l 257
EndSplineSet
Ligature2: "si_abvs_1 subtable" si_Ca si_MatraI
EndChar

StartChar: si_CIi
Encoding: 138 -1 32
GlifName: si_C_I_i
Width: 611
VWidth: 0
GlyphClass: 3
Flags: W
LayerCount: 2
Back
Fore
SplineSet
358 711 m 256
 358 771 406 819 466 819 c 256
 526 819 574 771 574 711 c 256
 574 651 526 603 466 603 c 256
 406 603 358 651 358 711 c 256
339 703 m 257
 339 819 l 257
 466 819 l 257
 466 703 l 257
 339 703 l 257
235 645 m 258
 281 645 l 257
 343 645 l 257
 343 522 l 257
 281 522 l 257
 246 522 l 258
 127.849 522 68.6249 596.374 68.6249 670.686 c 256
 68.6249 744.874 127.651 819 246 819 c 258
 283 819 l 257
 283 703 l 257
 235 703 l 258
 210.558 703 198.36 688.518 198.36 674.028 c 256
 198.36 659.518 210.589 645 235 645 c 258
30 252 m 257
 30 354 l 257
 247 354 l 257
 247 360 l 257
 247.053 389.333 225.721 400 205 400 c 256
 195.146 400 169.972 397 165 376 c 257
 66 402 l 257
 92.4043 489.737 168.592 503 205 503 c 256
 248.907 503 293.606 486.113 317 459 c 256
 340.371 431.912 350 406 350 350 c 258
 350 252 l 257
 266 252 l 258
 228.72 252 207.981 224.45 207.981 196.088 c 256
 207.981 166.001 231.317 135 283 135 c 257
 283 -5 l 257
 155.558 -5 69 87.2324 69 192 c 256
 69 212.028 70.5166 233.24 80.3096 252 c 257
 30 252 l 257
339 522 m 257
 339 645 l 257
 351.033 645 372.331 644.92 383.602 644.92 c 256
 516.463 644.931 570.333 596.457 570.333 474 c 258
 570.333 238 l 258
 570.333 138.591 535.782 -5 339.5 -5 c 257
 339.5 135 l 257
 416.753 135 430.333 180.362 430.333 244 c 258
 430.333 455 l 258
 430.333 513.936 388.736 522 339 522 c 257
EndSplineSet
Ligature2: "si_abvs_2 subtable" si_Ca si_MatraIi
EndChar

StartChar: si_Ca
Encoding: 27 3488 39
GlifName: si_C_a
Width: 604
VWidth: 0
GlyphClass: 2
Flags: W
HStem: -5 145 252 102<30 80.3096 30 247 30 266 30 350> 400 103<200.073 215.361> 616 138
VStem: 69 138 247 103<252 360 252 360> 434 140<250 498 498 520>
LayerCount: 2
Back
Fore
SplineSet
283 -5 m 257
 155.558 -5 69 87.2324 69 192 c 256
 69 212.029 70.5162 233.24 80.3096 252 c 257
 30 252 l 257
 30 354 l 257
 247 354 l 257
 247 360 l 257
 247.053 389.333 225.721 400 205 400 c 256
 195.147 400 169.971 397 165 376 c 257
 66 402 l 257
 92.4043 489.737 168.592 503 205 503 c 256
 248.907 503 293.606 486.114 317 459 c 256
 340.371 431.912 350 406 350 350 c 258
 350 252 l 257
 266 252 l 258
 228.72 252 207.981 224.45 207.981 196.088 c 256
 207.981 166.001 231.318 135 283 135 c 257
 283 -5 l 257
339 -5 m 257
 339 135 l 257
 381.411 135 434 149.137 434 250 c 258
 434 498 l 258
 434 577 417.252 616 339 616 c 257
 339 755 l 257
 473.273 755 574 699.969 574 520 c 258
 574 250 l 258
 574 78.4932 493.968 -4.83398 339 -5 c 257
203.333 530 m 257
 66.333 566 l 257
 66.333 672.126 176.46 755 283 755 c 257
 283 616.5 l 257
 242.591 616.5 203.333 595.735 203.333 530 c 257
EndSplineSet
PickledDataWithLists: "(dp1
S'com.fontlab.hintData'
p2
(dp3
S'vhints'
p4
(lp5
(dp6
S'position'
p7
I69
sS'width'
p8
I138
sa(dp9
g7
I247
sg8
I103
sa(dp10
g7
I434
sg8
I140
sasS'hhints'
p11
(lp12
(dp13
g7
I-5
sg8
I145
sa(dp14
g7
I252
sg8
I102
sa(dp15
g7
I400
sg8
I103
sa(dp16
g7
I616
sg8
I138
sass."
EndChar

StartChar: si_Ch.halant
Encoding: 146 -1 41
GlifName: si_C_h.halant
Width: 655
VWidth: 0
GlyphClass: 3
Flags: W
LayerCount: 2
Back
Fore
SplineSet
315.001 529 m 257
 322.685 529 l 257
 446.001 696 l 257
 446.001 819 l 257
 315.001 819 l 257
 315.001 529 l 257
EndSplineSet
Refer: 46 3489 N 1 0 0 1 0 0 2
Ligature2: "si_halant_1 subtable" si_Cha si_Halant
EndChar

StartChar: si_ChIi
Encoding: 148 -1 43
GlifName: si_C_hI_i
Width: 628
VWidth: 0
GlyphClass: 3
Flags: W
LayerCount: 2
Back
Fore
SplineSet
520 690 m 256
 520 626 573 574 638 574 c 256
 703 574 756 626 756 690 c 256
 756 754 703 806 638 806 c 256
 573 806 520 754 520 690 c 256
30 460 m 257
 148 421 l 257
 152.416 436 167.217 451 195 451 c 256
 210.331 451 250 441.891 250 402 c 257
 198 402 l 258
 101 402 35 373 35 251 c 257
 174 251 l 257
 174.001 262.104 175.738 283 209 283 c 258
 426 283 l 258
 455 283 455 263 455 251 c 257
 594 251 l 257
 594 286.551 568.433 314.061 519.358 335.237 c 257
 339 335 l 257
 314 536 l 257
 277.783 561.654 234.893 574.548 193.252 574.548 c 256
 121.808 574.548 54.0459 536.591 30 460 c 257
34 202 m 257
 34 59.2461 112 -12 289 -12 c 258
 342 -12 l 258
 511 -12 594 64 594 202 c 257
 594 262 l 257
 594 316.097 574.321 360 496 360 c 257
 457.17 360 l 257
 447.706 360 434.094 360 419 360 c 256
 395.857 360 377 378.857 377 402 c 256
 377 425.143 395.857 444 419 444 c 256
 442.143 444 461 425.143 461 402 c 256
 585 402 l 256
 585 494 510 569 418 569 c 256
 325 569 250 494 250 402 c 256
 250 310 315 235 417 235 c 258
 454 236 l 257
 454 202 l 257
 454 151 415 123 350 123 c 258
 278 123 l 258
 215 123 174 148.801 174 202 c 257
 34 202 l 257
304 522 m 257
 438 470 l 257
 610.46 696.425 l 257
 436 696 l 257
 304 522 l 257
256.502 678.519 m 257
 257 658.543 l 257
 385 658.716 l 257
 385.002 678.754 l 257
 384.908 717.837 411.258 720.816 431.399 721.615 c 257
 639.648 721.995 l 258
 657.684 722.039 668.951 707.571 668.969 692.734 c 256
 668.969 674.482 654.743 663.514 639.711 663.496 c 256
 622.504 663.496 610.507 676.949 610.469 692.676 c 258
 610.46 696.425 l 257
 521.96 696.213 l 257
 521.969 692.463 l 257
 522.205 594.52 600.337 574.378 638.978 574.378 c 256
 698.472 574.448 757.753 617.333 757.753 691.941 c 256
 757.67 761.468 714.739 819.677 640.164 819.498 c 258
 389.165 819.085 l 257
 314.721 818.906 257.001 769.574 257.452 699.519 c 257
 256.502 678.519 l 257
EndSplineSet
Ligature2: "si_abvs_2 subtable" si_Cha si_MatraIi
EndChar

StartChar: si_Cha
Encoding: 28 3489 46
GlifName: si_C_ha
Width: 628
VWidth: 0
GlyphClass: 2
Flags: W
HStem: -12 135<278 289 289 342> 451 124
VStem: 34 140<175.4 202 175.4 202> 250 136<283 448 283 421.946>
LayerCount: 2
Back
Fore
SplineSet
289 -12 m 258
 112 -12 34 59.2461 34 202 c 257
 174 202 l 257
 174 148.801 215 123 278 123 c 258
 350 123 l 258
 415 123 454 151 454 202 c 257
 454 236 l 257
 417 235 l 258
 315 235 250 310 250 402 c 256
 250 494 325 569 418 569 c 256
 510 569 585 494 585 402 c 256
 461 402 l 256
 461 425.143 442.143 444 419 444 c 256
 395.857 444 377 425.143 377 402 c 256
 377 378.857 395.857 360 419 360 c 256
 434.094 360 447.706 360 496 360 c 257
 574.321 360 594 316.097 594 262 c 257
 594 202 l 257
 594 64 511 -12 342 -12 c 258
 289 -12 l 258
35 251 m 257
 35 373 101 402 198 402 c 258
 250 402 l 257
 250 441.891 210.331 451 195 451 c 256
 167.217 451 152.416 436 148 421 c 257
 30 460 l 257
 54.046 536.591 121.808 574.548 193.252 574.548 c 256
 250.006 574.548 298.193 557.298 332.1915 512.2295 c 256
 366.19 467.161 386 394.274 386 283 c 257
 209 283 l 258
 176.097 283 174.001 262.104 174 251 c 257
 35 251 l 257
438 470 m 257
 304 522 l 257
 509.721 793 l 257
 655 755 l 257
 438 470 l 257
EndSplineSet
PickledDataWithLists: "(dp1
S'com.fontlab.hintData'
p2
(dp3
S'vhints'
p4
(lp5
(dp6
S'position'
p7
I34
sS'width'
p8
I140
sa(dp9
g7
I250
sg8
I136
sasS'hhints'
p10
(lp11
(dp12
g7
I-12
sg8
I135
sa(dp13
g7
I451
sg8
I124
sass."
EndChar

StartChar: si_DDdh.halant
Encoding: 510 -1 48
GlifName: si_D_D_dh.halant
Width: 785
VWidth: 0
GlyphClass: 2
Flags: W
LayerCount: 2
Back
Fore
SplineSet
30 200 m 258
 30 240 l 258
 30 335 60.9932 474.245 265.051 474.245 c 258
 441 474 l 257
 441 336 l 257
 224 336 l 258
 174.46 336 166 283 166 244 c 258
 166 170 l 258
 166 114.504 170.649 74.2246 223 12 c 257
 93.0391 -28 l 257
 33.3975 49.1836 30 109.444 30 200 c 258
EndSplineSet
Refer: 87 -1 N 1 0 0 1 192 0 2
EndChar

StartChar: si_DDhI
Encoding: 511 -1 49
GlifName: si_D_D_hI_
Width: 785
VWidth: 0
GlyphClass: 3
Flags: W
LayerCount: 2
Back
Fore
SplineSet
30 200 m 258
 30 240 l 258
 30 335 60.9932 474.245 265.051 474.245 c 258
 441 474 l 257
 441 336 l 257
 224 336 l 258
 174.46 336 166 283 166 244 c 258
 166 170 l 258
 166 114.504 170.649 74.2246 223 12 c 257
 93.0391 -28 l 257
 33.3975 49.1836 30 109.444 30 200 c 258
EndSplineSet
Refer: 88 -1 N 1 0 0 1 192 0 2
Ligature2: "si_abvs_5 subtable" si_DDha si_MatraI
EndChar

StartChar: si_DDhIi
Encoding: 512 -1 50
GlifName: si_D_D_hI_i
Width: 789
VWidth: 0
GlyphClass: 3
Flags: W
LayerCount: 2
Back
Fore
SplineSet
30 200 m 258
 30 240 l 258
 30 335 60.9932 474.245 265.051 474.245 c 258
 441 474 l 257
 441 336 l 257
 224 336 l 258
 174.46 336 166 283 166 244 c 258
 166 170 l 258
 166 114.504 170.649 74.2246 223 12 c 257
 93.0391 -28 l 257
 33.3975 49.1836 30 109.444 30 200 c 258
EndSplineSet
Refer: 89 -1 N 1 0 0 1 192 0 2
Ligature2: "si_abvs_6 subtable" si_DDha si_MatraIi
EndChar

StartChar: si_DDhU
Encoding: 513 -1 51
GlifName: si_D_D_hU_
Width: 785
VWidth: 0
GlyphClass: 3
Flags: W
LayerCount: 2
Back
Fore
SplineSet
30 200 m 258
 30 240 l 258
 30 335 60.9932 474.245 265.051 474.245 c 258
 441 474 l 257
 441 336 l 257
 224 336 l 258
 174.46 336 166 283 166 244 c 258
 166 170 l 258
 166 114.504 170.649 74.2246 223 12 c 257
 93.0391 -28 l 257
 33.3975 49.1836 30 109.444 30 200 c 258
EndSplineSet
Refer: 94 -1 N 1 0 0 1 192 0 2
Ligature2: "si_blws_2 subtable" si_DDha si_MatraU
EndChar

StartChar: si_DDhUu
Encoding: 514 -1 52
GlifName: si_D_D_hU_u
Width: 785
VWidth: 0
GlyphClass: 3
Flags: W
LayerCount: 2
Back
Fore
SplineSet
30 200 m 258
 30 240 l 258
 30 335 60.9932 474.245 265.051 474.245 c 258
 441 474 l 257
 441 336 l 257
 224 336 l 258
 174.46 336 166 283 166 244 c 258
 166 170 l 258
 166 114.504 170.649 74.2246 223 12 c 257
 93.0391 -28 l 257
 33.3975 49.1836 30 109.444 30 200 c 258
EndSplineSet
Refer: 95 -1 N 1 0 0 1 192 0 2
Ligature2: "si_blws_4 subtable" si_DDha si_MatraUu
EndChar

StartChar: si_DDha
Encoding: 460 -1 53
GlifName: si_D_D_ha
Width: 593
VWidth: 0
GlyphClass: 3
Flags: W
LayerCount: 2
Back
Fore
SplineSet
30 200 m 258
 30 240 l 258
 30 335 60.9932 474.245 265.051 474.245 c 258
 441 474 l 257
 441 336 l 257
 224 336 l 258
 174.46 336 166 283 166 244 c 258
 166 170 l 258
 166 114.504 170.649 74.2246 223 12 c 257
 93.0391 -28 l 257
 33.3975 49.1836 30 109.444 30 200 c 258
EndSplineSet
Refer: 96 3504 N 1 0 0 1 192 0 2
Ligature2: "si_akhands subtable" si_Da si_Halant si_Dha
EndChar

StartChar: si_DI
Encoding: 267 -1 54
GlifName: si_D_I_
Width: 522
VWidth: 0
GlyphClass: 3
Flags: W
LayerCount: 2
Back
Fore
SplineSet
30 602 m 257
 160 602 l 257
 160 654.112 195.143 658 222 659 c 257
 281 659 l 257
 307.857 658 343 654.112 343 602 c 257
 473 602 l 257
 473 630 l 257
 473 724 396.259 789 297 789 c 257
 206 789 l 257
 106.741 789 30 724 30 630 c 257
 30 602 l 257
EndSplineSet
Refer: 68 3503 N 1 0 0 1 0 0 2
Ligature2: "si_abvs_1 subtable" si_Da si_MatraI
EndChar

StartChar: si_DIi
Encoding: 268 -1 55
GlifName: si_D_I_i
Width: 522
VWidth: 0
GlyphClass: 3
Flags: W
HStem: 462 119 659 130<222 368 222 222>
VStem: 472 118
LayerCount: 2
Back
Fore
SplineSet
250 671 m 256
 250 736 303 789 368 789 c 256
 433 789 486 736 486 671 c 256
 486 606 433 553 368 553 c 256
 303 553 250 606 250 671 c 256
30 602 m 257
 30 630 l 257
 29.623 723.409 106.741 789 206 789 c 257
 368 789 l 257
 368 659 l 256
 222 659 l 257
 195.143 658 160 654.112 160 602 c 257
 30 602 l 257
EndSplineSet
Refer: 68 3503 N 1 0 0 1 0 0 2
PickledDataWithLists: "(dp1
S'com.fontlab.hintData'
p2
(dp3
S'vhints'
p4
(lp5
(dp6
S'position'
p7
I472
sS'width'
p8
I118
sasS'hhints'
p9
(lp10
(dp11
g7
I462
sg8
I119
sa(dp12
g7
I659
sg8
I130
sass."
Ligature2: "si_abvs_2 subtable" si_Da si_MatraIi
EndChar

StartChar: si_DU
Encoding: 269 -1 60
GlifName: si_D_U_
Width: 483
VWidth: 0
GlyphClass: 3
Flags: W
HStem: -197 140
VStem: 30 172
LayerCount: 2
Back
Fore
SplineSet
313 136 m 257
 453 136 l 257
 453 -205 l 257
 313 -205 l 257
 313 136 l 257
35 -65 m 257
 257 -65 l 257
 257 -205 l 257
 35 -205 l 257
 35 -65 l 257
30 198 m 256
 30 337.017 125.045 402 256 402 c 258
 313 402 l 257
 313 439.367 278.239 457.175 243.43 457.175 c 256
 213.982 457.175 184.5 444.43 176 420 c 257
 58 459 l 257
 79.418 539.204 157.76 577.97 238.147 577.97 c 256
 338.48 577.97 442 517.58 442 402 c 258
 442 263 l 257
 256 263 l 258
 217 263 173 257.19 173 198 c 257
 173 146 220 136 257 136 c 256
 257 0 l 256
 137 0 30 59.3916 30 198 c 256
EndSplineSet
PickledDataWithLists: "(dp1
S'com.fontlab.hintData'
p2
(dp3
S'vhints'
p4
(lp5
(dp6
S'position'
p7
I30
sS'width'
p8
I172
sasS'hhints'
p9
(lp10
(dp11
g7
I-197
sg8
I140
sass."
Ligature2: "si_blws_1 subtable" si_Da si_MatraU
EndChar

StartChar: si_DUu
Encoding: 270 -1 61
GlifName: si_D_U_u
Width: 483
VWidth: 0
GlyphClass: 3
Flags: W
HStem: -205 23 -65 23 0 136<238.5 257 238.5 257> 263 139<236.5 313 256 313 256 442> 457 121
VStem: 30 143<172 227.595 172 267.509> 45 142 313 140<-205 136 -205 136>
LayerCount: 2
Back
Fore
SplineSet
30 198 m 256
 30 337.017 125.045 402 256 402 c 258
 313 402 l 257
 313 439.367 278.239 457.175 243.43 457.175 c 256
 213.982 457.175 184.5 444.43 176 420 c 257
 58 459 l 257
 79.418 539.204 157.76 577.97 238.147 577.97 c 256
 338.48 577.97 442 517.58 442 402 c 258
 442 263 l 257
 256 263 l 258
 217 263 173 257.19 173 198 c 256
 173 146 220 136 257 136 c 257
 257 0 l 257
 137 0 30 59.3916 30 198 c 256
313 136 m 257
 453 136 l 257
 453 -205 l 257
 313 -205 l 257
 313 136 l 257
35 -39 m 257
 61.334 -58.333 84.4443 -64.7773 105.741 -64.7773 c 256
 148.334 -64.7773 156.667 -42 196 -42 c 256
 213 -42 234.148 -46.167 257 -61 c 257
 257 -205 l 257
 231.106 -186.639 217 -182 196 -182 c 256
 156.667 -182 148.334 -204.777 105.741 -204.777 c 256
 84.4443 -204.777 61.334 -198.333 35 -179 c 257
 35 -39 l 257
EndSplineSet
PickledDataWithLists: "(dp1
S'com.fontlab.hintData'
p2
(dp3
S'vhints'
p4
(lp5
(dp6
S'position'
p7
I30
sS'width'
p8
I143
sa(dp9
g7
I45
sg8
I142
sa(dp10
g7
I313
sg8
I140
sasS'hhints'
p11
(lp12
(dp13
g7
I-205
sg8
I23
sa(dp14
g7
I-65
sg8
I23
sa(dp15
g7
I0
sg8
I136
sa(dp16
g7
I263
sg8
I139
sa(dp17
g7
I457
sg8
I121
sass."
Ligature2: "si_blws_3 subtable" si_Da si_MatraUu
EndChar

StartChar: si_DV.halant
Encoding: 515 -1 62
GlifName: si_D_V_.halant
Width: 755
VWidth: 0
GlyphClass: 2
Flags: W
LayerCount: 2
Back
Fore
SplineSet
30 169 m 258
 30 289 l 258
 30 422.903 108.927 495.749 214.144 495.749 c 256
 247.06 495.749 282.549 488.62 319 474 c 257
 319 375 l 257
 282 385 l 258
 267.83 388.592 254.696 390.472 242.748 390.472 c 256
 194.831 390.472 166 360.238 166 289 c 258
 166 169 l 258
 166 88.4355 179.558 66.5967 223 12 c 257
 93.0391 -28 l 257
 44.3975 41.1836 30 78.4443 30 169 c 258
EndSplineSet
Refer: 466 -1 N 1 0 0 1 190 0 2
EndChar

StartChar: si_DVI
Encoding: 516 -1 63
GlifName: si_D_V_I_
Width: 755
VWidth: 0
GlyphClass: 3
Flags: W
LayerCount: 2
Back
Fore
SplineSet
30 169 m 258
 30 289 l 258
 30 422.903 108.927 495.749 214.144 495.749 c 256
 247.06 495.749 282.549 488.62 319 474 c 257
 319 375 l 257
 282 385 l 258
 267.83 388.592 254.696 390.472 242.748 390.472 c 256
 194.831 390.472 166 360.238 166 289 c 258
 166 169 l 258
 166 88.4355 179.558 66.5967 223 12 c 257
 93.0391 -28 l 257
 44.3975 41.1836 30 78.4443 30 169 c 258
EndSplineSet
Refer: 467 -1 N 1 0 0 1 190 0 2
Ligature2: "si_abvs_5 subtable" si_DVa si_MatraI
EndChar

StartChar: si_DVIi
Encoding: 517 -1 64
GlifName: si_D_V_I_i
Width: 758
VWidth: 0
GlyphClass: 3
Flags: W
LayerCount: 2
Back
Fore
SplineSet
30 169 m 258
 30 289 l 258
 30 422.903 108.927 495.749 214.144 495.749 c 256
 247.06 495.749 282.549 488.62 319 474 c 257
 319 375 l 257
 282 385 l 258
 267.83 388.592 254.696 390.472 242.748 390.472 c 256
 194.831 390.472 166 360.238 166 289 c 258
 166 169 l 258
 166 88.4355 179.558 66.5967 223 12 c 257
 93.0391 -28 l 257
 44.3975 41.1836 30 78.4443 30 169 c 258
EndSplineSet
Refer: 468 -1 N 1 0 0 1 190 0 2
Ligature2: "si_abvs_6 subtable" si_DVa si_MatraIi
EndChar

StartChar: si_DVU
Encoding: 518 -1 65
GlifName: si_D_V_U_
Width: 758
VWidth: 0
GlyphClass: 3
Flags: W
LayerCount: 2
Back
Fore
SplineSet
30 169 m 258
 30 289 l 258
 30 422.903 108.927 495.749 214.144 495.749 c 256
 247.06 495.749 282.549 488.62 319 474 c 257
 319 375 l 257
 282 385 l 258
 267.83 388.592 254.696 390.472 242.748 390.472 c 256
 194.831 390.472 166 360.238 166 289 c 258
 166 169 l 258
 166 88.4355 179.558 66.5967 223 12 c 257
 93.0391 -28 l 257
 44.3975 41.1836 30 78.4443 30 169 c 258
EndSplineSet
Refer: 473 -1 N 1 0 0 1 190 0 2
Ligature2: "si_blws_2 subtable" si_DVa si_MatraU
EndChar

StartChar: si_DVUu
Encoding: 519 -1 66
GlifName: si_D_V_U_u
Width: 758
VWidth: 0
GlyphClass: 3
Flags: W
LayerCount: 2
Back
Fore
SplineSet
30 169 m 258
 30 289 l 258
 30 422.903 108.927 495.749 214.144 495.749 c 256
 247.06 495.749 282.549 488.62 319 474 c 257
 319 375 l 257
 282 385 l 258
 267.83 388.592 254.696 390.472 242.748 390.472 c 256
 194.831 390.472 166 360.238 166 289 c 258
 166 169 l 258
 166 88.4355 179.558 66.5967 223 12 c 257
 93.0391 -28 l 257
 44.3975 41.1836 30 78.4443 30 169 c 258
EndSplineSet
Refer: 474 -1 N 1 0 0 1 190 0 2
Ligature2: "si_blws_4 subtable" si_DVa si_MatraUu
EndChar

StartChar: si_DVa
Encoding: 461 -1 67
GlifName: si_D_V_a
Width: 568
VWidth: 0
GlyphClass: 3
Flags: W
HStem: -5 140 399 102 616 138
VStem: 33 138 398 140
LayerCount: 2
Back
Fore
SplineSet
30 169 m 258
 30 289 l 258
 30 422.903 108.927 495.749 214.144 495.749 c 256
 247.06 495.749 282.549 488.62 319 474 c 257
 319 375 l 257
 282 385 l 258
 267.83 388.592 254.696 390.472 242.748 390.472 c 256
 194.831 390.472 166 360.238 166 289 c 258
 166 169 l 258
 166 88.4355 179.558 66.5967 223 12 c 257
 93.0391 -28 l 257
 44.3975 41.1836 30 78.4443 30 169 c 258
220.333 566 m 257
 357.333 530 l 257
 357.333 595.735 396.592 616.5 437 616.5 c 257
 437 755 l 257
 330.46 755 220.333 672.126 220.333 566 c 257
EndSplineSet
Refer: 475 3520 N 1 0 0 1 190 0 2
PickledDataWithLists: "(dp1
S'com.fontlab.hintData'
p2
(dp3
S'vhints'
p4
(lp5
(dp6
S'position'
p7
I33
sS'width'
p8
I138
sa(dp9
g7
I398
sg8
I140
sasS'hhints'
p10
(lp11
(dp12
g7
I-5
sg8
I140
sa(dp13
g7
I399
sg8
I102
sa(dp14
g7
I616
sg8
I138
sass."
Ligature2: "si_akhands subtable" si_Da si_Halant si_Va
EndChar

StartChar: si_Da
Encoding: 42 3503 68
GlifName: si_D_a
Width: 522
VWidth: 0
GlyphClass: 2
Flags: W
HStem: -204 126<354.644 379.345 354.644 421.751> 0 136<197 294 257 294> 263 135 454 121
VStem: 32 143
LayerCount: 2
Back
Fore
SplineSet
369 -204 m 256
 249.999 -204 183 -136.261 183 -45 c 257
 320 -45 l 257
 320 -61.149 340.289 -78 369 -78 c 256
 389.69 -78 413.828 -67.3714 419 -47 c 257
 552 -81 l 257
 530.12 -148.452 474.502 -204 369 -204 c 256
30 198 m 256
 30 334.29 123.044 402 256 402 c 258
 313 402 l 257
 313 440.006 278.758 457.103 244.296 457.103 c 256
 213.977 457.103 183.488 443.869 176 420 c 257
 58 459 l 257
 78.9301 538.607 158.18 578.155 239.294 578.155 c 256
 339.233 578.155 442 518.119 442 399 c 258
 442 263 l 257
 256 263 l 258
 217 263 173 257.19 173 198 c 256
 173 146 220 136 257 136 c 258
 294 136 l 258
 326.728 136 356 140 369 172 c 257
 497 138 l 257
 472 52 386.826 0.131836 294 0 c 258
 257 0 l 258
 137 0 30 59.3916 30 198 c 256
EndSplineSet
PickledDataWithLists: "(dp1
S'com.fontlab.hintData'
p2
(dp3
S'vhints'
p4
(lp5
(dp6
S'position'
p7
I32
sS'width'
p8
I143
sasS'hhints'
p9
(lp10
(dp11
g7
I-204
sg8
I126
sa(dp12
g7
I0
sg8
I136
sa(dp13
g7
I263
sg8
I135
sa(dp14
g7
I454
sg8
I121
sass."
EndChar

StartChar: si_Dd.halant
Encoding: 221 -1 70
GlifName: si_D_d.halant
Width: 632
VWidth: 0
GlyphClass: 3
Flags: W
LayerCount: 2
Back
Fore
SplineSet
128 652 m 257
 111.708 652 95.543 678.371 95.543 710.154 c 256
 95.543 758.353 132.718 819 263 819 c 258
 304.667 819 l 257
 304.667 703 l 257
 271.667 703 l 258
 242.729 703 236.409 688.847 236.409 676.362 c 256
 236.409 661.503 249.732 652 271.667 652 c 257
 302.667 652 l 257
 302.667 522 l 257
 284.667 522 l 257
 149.492 522 128 607.938 128 652 c 257
360.167 703 m 257
 360.167 819 l 257
 415.667 819 l 258
 564.026 819 589 756 589 673 c 257
 453.667 673 l 257
 453.667 700 429 703 383.667 703 c 258
 360.167 703 l 257
272.667 522 m 257
 272.667 652 l 257
 370.667 652 l 257
 370.667 522 l 257
 272.667 522 l 257
81 522 m 257
 81 652 l 257
 273 652 l 257
 273 522 l 257
 81 522 l 257
30 251 m 257
 30 353 l 257
 281 353 l 257
 281 359 l 257
 281.053 388.333 259.721 399 239 399 c 256
 229.146 399 203.972 396 199 375 c 257
 100 401 l 257
 126.404 488.737 202.592 502 239 502 c 256
 282.907 502 327.606 485.113 351 458 c 256
 374.371 430.912 384 404.667 384 349 c 258
 384 251 l 257
 242 251 l 257
 211.475 251 207 231 207 219 c 257
 207 166 l 258
 207 154 216 132 246 132 c 256
 276 132 284 152.875 284 166 c 258
 284 202 l 257
 384 202 l 257
 384 166 l 258
 384 152.875 392 132 422 132 c 256
 452 132 461 154 461 166 c 258
 461 202 l 257
 602 202 l 257
 602 160 l 258
 602 58 535.381 -8 443 -8 c 256
 409.151 -8 367.925 3.4668 339 35 c 257
 315.108 3.4668 278.959 -8 251 -8 c 256
 145.768 -8 72 58 72 160 c 258
 72 219 l 257
 72 226 72 246 80 251 c 257
 30 251 l 257
370.667 522 m 257
 370.667 652 l 257
 530.305 652 602 590 602 474 c 258
 602 200 l 257
 461 200 l 257
 461 455 l 258
 461 513.936 420.403 522 370.667 522 c 257
EndSplineSet
Ligature2: "si_halant_1 subtable" si_Dda si_Halant
EndChar

StartChar: si_DdI
Encoding: 222 -1 71
GlifName: si_D_dI_
Width: 632
VWidth: 0
GlyphClass: 3
Flags: W
LayerCount: 2
Back
Fore
SplineSet
70.292 670.735 m 256
 70.292 744.907 129.292 819 247.667 819 c 257
 292.667 819 l 257
 292.667 703 l 257
 226.667 703 l 257
 206.167 703 195.917 690.25 195.917 677.5 c 256
 195.917 664.75 206.167 652 226.667 652 c 257
 292.667 652 l 257
 292.667 512 l 257
 247.667 512 l 257
 129.542 512 70.292 570.065 70.292 670.735 c 256
348.167 703 m 257
 348.167 819 l 257
 415.667 819 l 258
 544.026 819 589 756 589 673 c 257
 453.667 673 l 257
 453.667 700 429 703 383.667 703 c 258
 348.167 703 l 257
30 251 m 257
 30 353 l 257
 281 353 l 257
 281 359 l 257
 281.053 388.333 259.721 399 239 399 c 256
 229.146 399 203.972 396 199 375 c 257
 100 401 l 257
 126.404 488.737 202.592 502 239 502 c 256
 282.907 502 327.606 485.113 351 458 c 256
 374.371 430.912 384 404.667 384 349 c 258
 384 251 l 257
 242 251 l 257
 211.475 251 207 231 207 219 c 257
 207 166 l 258
 207 154 216 132 246 132 c 256
 276 132 284 152.875 284 166 c 258
 284 202 l 257
 384 202 l 257
 384 166 l 258
 384 152.875 392 132 422 132 c 256
 452 132 461 154 461 166 c 258
 461 202 l 257
 602 202 l 257
 602 160 l 258
 602 58 535.381 -8 443 -8 c 256
 409.151 -8 367.925 3.4668 339 35 c 257
 315.108 3.4668 278.959 -8 251 -8 c 256
 145.768 -8 72 58 72 160 c 258
 72 219 l 257
 72 226 72 246 80 251 c 257
 30 251 l 257
292.667 512 m 257
 292.667 652 l 257
 370.667 652 l 257
 530.305 652 602 590 602 474 c 258
 602 200 l 257
 461 200 l 257
 461 445 l 258
 461 504 420.403 512 370.667 512 c 257
 292.667 512 l 257
EndSplineSet
Ligature2: "si_abvs_1 subtable" si_Dda si_MatraI
EndChar

StartChar: si_DdIi
Encoding: 223 -1 72
GlifName: si_D_dI_i
Width: 632
VWidth: 0
GlyphClass: 3
Flags: W
LayerCount: 2
Back
Fore
SplineSet
389.667 711 m 256
 389.667 771 437.667 819 497.667 819 c 256
 557.667 819 605.667 771 605.667 711 c 256
 605.667 651 557.667 603 497.667 603 c 256
 437.667 603 389.667 651 389.667 711 c 256
334.667 703 m 257
 334.667 819 l 257
 497.667 819 l 257
 497.667 703 l 257
 334.667 703 l 257
236.667 645 m 258
 282.667 645 l 257
 374.667 645 l 257
 374.667 522 l 257
 282.667 522 l 257
 247.667 522 l 258
 129.516 522 70.2919 596.374 70.2919 670.686 c 256
 70.2919 744.874 129.318 819 247.667 819 c 258
 278.667 819 l 257
 278.667 703 l 257
 236.667 703 l 258
 212.225 703 200.027 688.518 200.027 674.028 c 256
 200.027 659.518 212.256 645 236.667 645 c 258
30 251 m 257
 30 353 l 257
 281 353 l 257
 281 359 l 257
 281.053 388.333 259.721 399 239 399 c 256
 229.146 399 203.972 396 199 375 c 257
 100 401 l 257
 126.404 488.737 202.592 502 239 502 c 256
 282.907 502 327.205 484.762 351 458 c 256
 370.945 435.568 384 404.204 384 349 c 258
 384 251 l 257
 242 251 l 257
 211.475 251 207 231 207 219 c 257
 207 166 l 258
 207 154 216 132 246 132 c 256
 276 132 284 152.875 284 166 c 258
 284 202 l 257
 384 202 l 257
 384 166 l 258
 384 152.875 392 132 422 132 c 256
 452 132 461 154 461 166 c 258
 461 202 l 257
 602 202 l 257
 602 160 l 258
 602 58 535.381 -8 443 -8 c 256
 409.151 -8 367.925 3.4668 339 35 c 257
 315.108 3.4668 278.959 -8 251 -8 c 256
 145.768 -8 72 58 72 160 c 258
 72 219 l 257
 72 226 72 246 80 251 c 257
 30 251 l 257
370.667 522 m 257
 370.667 645 l 257
 382.7 645 403.998 644.92 415.269 644.92 c 256
 548.13 644.931 602 596.23 602 474 c 258
 602 200 l 257
 461 200 l 257
 461 455 l 258
 461 514 420.403 522 370.667 522 c 257
EndSplineSet
Ligature2: "si_abvs_2 subtable" si_Dda si_MatraIi
EndChar

StartChar: si_DdU
Encoding: 224 -1 77
GlifName: si_D_dU_
Width: 632
VWidth: 0
GlyphClass: 3
Flags: W
LayerCount: 2
Back
Fore
SplineSet
449 123 m 257
 589 123 l 257
 589 -205 l 257
 449 -205 l 257
 449 123 l 257
367 -65 m 257
 459 -65 l 257
 459 -205 l 257
 367 -205 l 257
 367 -65 l 257
99 -65 m 257
 311 -65 l 257
 311 -205 l 257
 99 -205 l 257
 99 -65 l 257
EndSplineSet
Refer: 79 3497 N 1 0 0 1 0 0 2
Ligature2: "si_blws_1 subtable" si_Dda si_MatraU
EndChar

StartChar: si_DdUu
Encoding: 225 -1 78
GlifName: si_D_dU_u
Width: 632
VWidth: 0
GlyphClass: 3
Flags: W
LayerCount: 2
Back
Fore
SplineSet
95 -39 m 257
 121.334 -58.333 164.444 -64.7773 185.741 -64.7773 c 256
 228.334 -64.7773 273.667 -42 313 -42 c 257
 313 -182 l 257
 273.667 -182 228.334 -204.777 185.741 -204.777 c 256
 164.444 -204.777 121.334 -198.333 95 -179 c 257
 95 -39 l 257
449 123 m 257
 589 123 l 257
 589 -205 l 257
 449 -205 l 257
 449 123 l 257
369 -42 m 257
 386 -42 426.148 -46.167 449 -61 c 257
 449 -205 l 257
 423.106 -186.639 390 -182 369 -182 c 257
 369 -42 l 257
EndSplineSet
Refer: 79 3497 N 1 0 0 1 0 0 2
Ligature2: "si_blws_3 subtable" si_Dda si_MatraUu
EndChar

StartChar: si_Dda
Encoding: 36 3497 79
GlifName: si_D_da
Width: 632
VWidth: 0
GlyphClass: 2
Flags: W
HStem: -8 140<231 261 231 264.98 426.076 437> 200 2<461 602> 251 102<30 80 30 281 226.738 242 242 281 30 384> 399 103<234.073 249.361> 616 138
VStem: 72 135<160 166 166 219 160 222.5> 284 100<166 202 159.438 202> 461 141<166 202 200 202 202 498 202 202 498 520>
LayerCount: 2
Back
Fore
SplineSet
251 -8 m 256
 145.768 -8 72 58 72 160 c 258
 72 219 l 257
 72 226 72 246 80 251 c 257
 30 251 l 257
 30 353 l 257
 281 353 l 257
 281 388.333047881 259.721 399 239 399 c 256
 229.146 399 203.972 396 199 375 c 257
 100 401 l 257
 126.404 488.737 202.592 502 239 502 c 256
 282.907 502 327.607 485.114 351 458 c 256
 374.371 430.912 384 404.667 384 349 c 258
 384 251 l 257
 242 251 l 257
 211.475 251 207 231 207 219 c 257
 207 166 l 258
 207 154 216 132 246 132 c 256
 276 132 284 152.875 284 166 c 258
 284 202 l 257
 384 202 l 257
 384 166 l 258
 384 152.875 392 132 422 132 c 256
 452 132 461 154 461 166 c 258
 461 202 l 257
 602 202 l 257
 602 160 l 258
 602 58 535.381 -8 443 -8 c 256
 409.152 -8 367.925 3.4668 339 35 c 257
 315.108 3.4668 278.959 -8 251 -8 c 256
461 200 m 257
 461 498 l 258
 461 576.997 444.604 616 368 616 c 257
 358 616 l 257
 358 755 l 257
 368 755 l 257
 501.701 755 602 699.969 602 520 c 258
 602 200 l 257
 461 200 l 257
75 566 m 257
 75 672.126 185.127 755 291.667 755 c 257
 302 755 l 257
 302 616.5 l 257
 291.667 616.5 l 257
 251.259 616.5 212 595.735 212 530 c 257
 75 566 l 257
EndSplineSet
PickledDataWithLists: "(dp1
S'com.fontlab.hintData'
p2
(dp3
S'vhints'
p4
(lp5
(dp6
S'position'
p7
I72
sS'width'
p8
I135
sa(dp9
g7
I284
sg8
I100
sa(dp10
g7
I461
sg8
I141
sasS'hhints'
p11
(lp12
(dp13
g7
I-8
sg8
I140
sa(dp14
g7
I200
sg8
I2
sa(dp15
g7
I251
sg8
I102
sa(dp16
g7
I399
sg8
I103
sa(dp17
g7
I616
sg8
I138
sass."
EndChar

StartChar: si_Ddh.halant
Encoding: 231 -1 81
GlifName: si_D_dh.halant
Width: 632
VWidth: 0
GlyphClass: 3
Flags: W
LayerCount: 2
Back
Fore
SplineSet
466.001 518 m 257
 466.001 819 l 257
 602.001 819 l 257
 602.001 518 l 257
 466.001 518 l 257
EndSplineSet
Refer: 86 3498 N 1 0 0 1 0 0 2
Ligature2: "si_halant_1 subtable" si_Ddha si_Halant
EndChar

StartChar: si_DdhI
Encoding: 232 -1 82
GlifName: si_D_dhI_
Width: 632
VWidth: 0
GlyphClass: 3
Flags: W
LayerCount: 2
Back
Fore
SplineSet
218.744 645 m 258
 134.475 645 90.526 709.418 90.526 776.125 c 256
 90.526 847.744 141.187 922 247 922 c 258
 433 922 l 258
 539 922 582.333 853.602 582.333 776 c 257
 447 776 l 257
 447 804.182 426.614 805.917 388.849 806 c 258
 247 806 l 258
 226.505 806 216.348 793.325 216.348 780.613 c 256
 216.348 767.826 226.626 755 247 755 c 257
 247 645 l 257
 218.744 645 l 258
EndSplineSet
Refer: 86 3498 N 1 0 0 1 0 0 2
Ligature2: "si_abvs_1 subtable" si_Ddha si_MatraI
EndChar

StartChar: si_DdhIi
Encoding: 233 -1 83
GlifName: si_D_dhI_i
Width: 632
VWidth: 0
GlyphClass: 3
Flags: W
HStem: -5 140 522 123 603 42 703 116
VStem: 30 138 297 4 316 108 388 140
LayerCount: 2
Back
Fore
SplineSet
90.526 776.125 m 256
 90.526 847.744 141.187 922 247 922 c 258
 494 922 l 258
 554 922 602 874 602 814 c 256
 602 754 554 706 494 706 c 256
 436.692 706 386.331 749.79 386.287 806 c 257
 247 806 l 258
 226.505 806 216.348 793.325 216.348 780.613 c 256
 216.348 767.826 226.626 755 247 755 c 257
 247 645 l 257
 218.744 645 l 258
 134.475 645 90.526 709.418 90.526 776.125 c 256
EndSplineSet
Refer: 86 3498 N 1 0 0 1 0 0 2
PickledDataWithLists: "(dp1
S'com.fontlab.hintData'
p2
(dp3
S'vhints'
p4
(lp5
(dp6
S'position'
p7
I30
sS'width'
p8
I138
sa(dp9
g7
I297
sg8
I4
sa(dp10
g7
I316
sg8
I108
sa(dp11
g7
I388
sg8
I140
sasS'hhints'
p12
(lp13
(dp14
g7
I-5
sg8
I140
sa(dp15
g7
I522
sg8
I123
sa(dp16
g7
I603
sg8
I42
sa(dp17
g7
I703
sg8
I116
sass."
Ligature2: "si_abvs_2 subtable" si_Ddha si_MatraIi
EndChar

StartChar: si_DdhU
Encoding: 234 -1 84
GlifName: si_D_dhU_
Width: 632
VWidth: 0
GlyphClass: 3
Flags: W
LayerCount: 2
Back
Fore
SplineSet
449 123 m 257
 589 123 l 257
 589 -205 l 257
 449 -205 l 257
 449 123 l 257
367 -65 m 257
 459 -65 l 257
 459 -205 l 257
 367 -205 l 257
 367 -65 l 257
99 -65 m 257
 311 -65 l 257
 311 -205 l 257
 99 -205 l 257
 99 -65 l 257
EndSplineSet
Refer: 86 3498 N 1 0 0 1 0 0 2
Ligature2: "si_blws_1 subtable" si_Ddha si_MatraU
EndChar

StartChar: si_DdhUu
Encoding: 235 -1 85
GlifName: si_D_dhU_u
Width: 632
VWidth: 0
GlyphClass: 3
Flags: W
LayerCount: 2
Back
Fore
SplineSet
95 -39 m 257
 121.334 -58.333 164.444 -64.7773 185.741 -64.7773 c 256
 228.334 -64.7773 273.667 -42 313 -42 c 257
 313 -182 l 257
 273.667 -182 228.334 -204.777 185.741 -204.777 c 256
 164.444 -204.777 121.334 -198.333 95 -179 c 257
 95 -39 l 257
449 123 m 257
 589 123 l 257
 589 -205 l 257
 449 -205 l 257
 449 123 l 257
369 -42 m 257
 386 -42 426.148 -46.167 449 -61 c 257
 449 -205 l 257
 423.106 -186.639 390 -182 369 -182 c 257
 369 -42 l 257
EndSplineSet
Refer: 86 3498 N 1 0 0 1 0 0 2
Ligature2: "si_blws_3 subtable" si_Ddha si_MatraUu
EndChar

StartChar: si_Ddha
Encoding: 37 3498 86
GlifName: si_D_dha
Width: 632
VWidth: 0
GlyphClass: 2
Flags: W
LayerCount: 2
Back
Fore
SplineSet
251 -8 m 256
 145.768 -8 72 58 72 160 c 258
 72 219 l 257
 72 226 72 246 80 251 c 257
 30 251 l 257
 30 353 l 257
 281 353 l 257
 281 388.333047881 259.721 399 239 399 c 256
 229.146 399 203.972 396 199 375 c 257
 100 401 l 257
 126.404 488.737 202.592 502 239 502 c 256
 282.907 502 327.607 485.114 351 458 c 256
 374.371 430.912 384 404.667 384 349 c 258
 384 251 l 257
 242 251 l 257
 211.475 251 207 231 207 219 c 257
 207 166 l 258
 207 154 216 132 246 132 c 256
 276 132 284 152.875 284 166 c 258
 284 202 l 257
 384 202 l 257
 384 166 l 258
 384 152.875 392 132 422 132 c 256
 452.769 132 462 154 462 166 c 258
 462 202 l 257
 602 202 l 257
 602 160 l 258
 602 58 535.381 -8 443 -8 c 256
 409.152 -8 367.925 3.4668 339 35 c 257
 315.108 3.4668 278.959 -8 251 -8 c 256
287 617 m 258
 287 755 l 257
 367 755 l 257
 501.273 755 602 700 602 517 c 258
 602 195 l 257
 462 195 l 257
 462 498 l 258
 462 577 445.252 616 367 616 c 257
 367 616 l 257
 367 563.071 392.652 547.238 426 540 c 257
 426 454 l 257
 322.619 473.607 287 544.038 287 617 c 258
EndSplineSet
EndChar

StartChar: si_Dh.halant
Encoding: 284 -1 87
GlifName: si_D_h.halant
Width: 593
VWidth: 0
GlyphClass: 3
Flags: W
LayerCount: 2
Back
Fore
SplineSet
89 652 m 257
 72.7076 652 56.543 678.371 56.543 710.154 c 256
 56.543 758.353 93.7184 819 224 819 c 258
 265.667 819 l 257
 265.667 703 l 257
 232.667 703 l 258
 203.729 703 197.409 688.847 197.409 676.362 c 256
 197.409 661.503 210.732 652 232.667 652 c 257
 263.667 652 l 257
 263.667 522 l 257
 245.667 522 l 257
 110.492 522 89 607.938 89 652 c 257
321.167 703 m 257
 321.167 819 l 257
 376.667 819 l 258
 525.026 819 550 756 550 673 c 257
 414.667 673 l 257
 414.667 700 390 703 344.667 703 c 258
 321.167 703 l 257
233.667 522 m 257
 233.667 652 l 257
 331.667 652 l 257
 331.667 522 l 257
 233.667 522 l 257
42 522 m 257
 42 652 l 257
 234 652 l 257
 234 522 l 257
 42 522 l 257
29.999 261.926 m 258
 29.999 343.692 44.667 474 240.667 474 c 257
 263 474 l 257
 263 336 l 257
 240.667 336 l 257
 200.667 336 168 322 168 262 c 258
 168 166 l 258
 168 154 177 132 207 132 c 256
 237 132 245 152.875 245 166 c 258
 245 202 l 257
 345 202 l 257
 345 166 l 258
 345 152.875 353 132 383 132 c 256
 413 132 422 154 422 166 c 258
 422 202 l 257
 563 202 l 257
 563 160 l 258
 563 58 496.381 -8 404 -8 c 256
 370.151 -8 328.925 3.4668 300 35 c 257
 276.108 3.4668 239.959 -8 212 -8 c 256
 105.004 -8 30 58 30 160 c 258
 29.999 261.926 l 258
331.667 522 m 257
 331.667 652 l 257
 491.305 652 563 589 563 474 c 258
 563 200 l 257
 422 200 l 257
 422 454 l 258
 422 514 381.403 522 331.667 522 c 257
EndSplineSet
Ligature2: "si_halant_1 subtable" si_Dha si_Halant
EndChar

StartChar: si_DhI
Encoding: 285 -1 88
GlifName: si_D_hI_
Width: 593
VWidth: 0
GlyphClass: 3
Flags: W
LayerCount: 2
Back
Fore
SplineSet
31.292 670.735 m 256
 31.292 744.907 90.292 819 208.667 819 c 257
 253.667 819 l 257
 253.667 703 l 257
 187.667 703 l 257
 167.167 703 156.917 690.25 156.917 677.5 c 256
 156.917 664.75 167.167 652 187.667 652 c 257
 253.667 652 l 257
 253.667 512 l 257
 208.667 512 l 257
 90.542 512 31.292 570.065 31.292 670.735 c 256
309.167 703 m 257
 309.167 819 l 257
 376.667 819 l 258
 505.026 819 550 756 550 673 c 257
 414.667 673 l 257
 414.667 700 390 703 344.667 703 c 258
 309.167 703 l 257
29.999 261.926 m 258
 29.999 343.692 44.667 474 240.667 474 c 257
 263 474 l 257
 263 336 l 257
 240.667 336 l 257
 200.667 336 168 322 168 262 c 258
 168 166 l 258
 168 154 177 132 207 132 c 256
 237 132 245 152.875 245 166 c 258
 245 202 l 257
 345 202 l 257
 345 166 l 258
 345 152.875 353 132 383 132 c 256
 413 132 422 154 422 166 c 258
 422 202 l 257
 563 202 l 257
 563 160 l 258
 563 58 496.381 -8 404 -8 c 256
 370.151 -8 328.925 3.4668 300 35 c 257
 276.108 3.4668 239.959 -8 212 -8 c 256
 105.004 -8 30 58 30 160 c 258
 29.999 261.926 l 258
253.667 512 m 257
 253.667 652 l 257
 331.667 652 l 257
 491.305 652 563 590 563 473 c 258
 563 200 l 257
 422 200 l 257
 422 446 l 258
 422 504 381.403 512 331.667 512 c 257
 253.667 512 l 257
EndSplineSet
Ligature2: "si_abvs_1 subtable" si_Dha si_MatraI
EndChar

StartChar: si_DhIi
Encoding: 286 -1 89
GlifName: si_D_hI_i
Width: 593
VWidth: 0
GlyphClass: 3
Flags: W
LayerCount: 2
Back
Fore
SplineSet
350.667 711 m 256
 350.667 771 398.667 819 458.667 819 c 256
 518.667 819 566.667 771 566.667 711 c 256
 566.667 651 518.667 603 458.667 603 c 256
 398.667 603 350.667 651 350.667 711 c 256
295.667 703 m 257
 295.667 819 l 257
 458.667 819 l 257
 458.667 703 l 257
 295.667 703 l 257
197.667 645 m 258
 243.667 645 l 257
 335.667 645 l 257
 335.667 522 l 257
 243.667 522 l 257
 208.667 522 l 258
 90.516 522 31.2919 596.374 31.2919 670.686 c 256
 31.2919 744.874 90.3183 819 208.667 819 c 258
 239.667 819 l 257
 239.667 703 l 257
 197.667 703 l 258
 173.225 703 161.027 688.518 161.027 674.028 c 256
 161.027 659.518 173.256 645 197.667 645 c 258
29.999 261.926 m 258
 29.999 343.692 44.667 474 240.667 474 c 257
 263 474 l 257
 263 336 l 257
 240.667 336 l 257
 200.667 336 168 322 168 262 c 258
 168 166 l 258
 168 154 177 132 207 132 c 256
 237 132 245 152.875 245 166 c 258
 245 202 l 257
 345 202 l 257
 345 166 l 258
 345 152.875 353 132 383 132 c 256
 413 132 422 154 422 166 c 258
 422 202 l 257
 563 202 l 257
 563 160 l 258
 563 58 496.381 -8 404 -8 c 256
 370.151 -8 328.925 3.4668 300 35 c 257
 276.108 3.4668 239.959 -8 212 -8 c 256
 105.004 -8 30 58 30 160 c 258
 29.999 261.926 l 258
331.667 522 m 257
 331.667 645 l 257
 343.7 645 364.998 644.92 376.269 644.92 c 256
 509.128 644.931 563 596.229 563 475 c 258
 563 200 l 257
 422 200 l 257
 422 456 l 258
 422 514 381.403 522 331.667 522 c 257
EndSplineSet
Ligature2: "si_abvs_2 subtable" si_Dha si_MatraIi
EndChar

StartChar: si_DhU
Encoding: 287 -1 94
GlifName: si_D_hU_
Width: 593
VWidth: 0
GlyphClass: 3
Flags: W
LayerCount: 2
Back
Fore
SplineSet
409 123 m 257
 549 123 l 257
 549 -205 l 257
 409 -205 l 257
 409 123 l 257
328 -65 m 257
 419 -65 l 257
 419 -205 l 257
 328 -205 l 257
 328 -65 l 257
59 -65 m 257
 272 -65 l 257
 272 -205 l 257
 59 -205 l 257
 59 -65 l 257
EndSplineSet
Refer: 96 3504 N 1 0 0 1 0 0 2
Ligature2: "si_blws_1 subtable" si_Dha si_MatraU
EndChar

StartChar: si_DhUu
Encoding: 288 -1 95
GlifName: si_D_hU_u
Width: 593
VWidth: 0
GlyphClass: 3
Flags: W
LayerCount: 2
Back
Fore
SplineSet
54 -39 m 257
 80.334 -58.333 123.444 -64.7773 144.741 -64.7773 c 256
 187.334 -64.7773 232.667 -42 272 -42 c 257
 272 -182 l 257
 232.667 -182 187.334 -204.777 144.741 -204.777 c 256
 123.444 -204.777 80.334 -198.333 54 -179 c 257
 54 -39 l 257
408 123 m 257
 548 123 l 257
 548 -205 l 257
 408 -205 l 257
 408 123 l 257
328 -42 m 257
 345 -42 385.148 -46.167 408 -61 c 257
 408 -205 l 257
 382.106 -186.639 349 -182 328 -182 c 257
 328 -42 l 257
EndSplineSet
Refer: 96 3504 N 1 0 0 1 0 0 2
Ligature2: "si_blws_3 subtable" si_Dha si_MatraUu
EndChar

StartChar: si_Dha
Encoding: 43 3504 96
GlifName: si_D_ha
Width: 593
VWidth: 0
GlyphClass: 2
Flags: W
HStem: -8 140<192 222 192 225.98 387.076 398> 200 2<422 563> 336 138<220.667 263 240.667 263> 616 138
VStem: 30 138<109 166> 245 100<166 202 159.438 202> 422 141<166 202 200 202 202 498 202 202 498 520>
LayerCount: 2
Back
Fore
SplineSet
212 -8 m 256
 105.004 -8 30 58 30 160 c 258
 29.999 261.926 l 258
 29.999 343.692 44.667 474 240.667 474 c 257
 263 474 l 257
 263 336 l 257
 240.667 336 l 257
 200.667 336 168 322 168 262 c 258
 168 166 l 258
 168 154 177 132 207 132 c 256
 237 132 245 152.875 245 166 c 258
 245 202 l 257
 345 202 l 257
 345 166 l 258
 345 152.875 353 132 383 132 c 256
 413 132 422 154 422 166 c 258
 422 202 l 257
 563 202 l 257
 563 160 l 258
 563 58 496.381 -8 404 -8 c 256
 370.151 -8 328.925 3.4668 300 35 c 257
 276.108 3.4668 239.959 -8 212 -8 c 256
422 200 m 257
 422 498 l 258
 422 576.997 405.604 616 329 616 c 257
 319 616 l 257
 319 755 l 257
 329 755 l 257
 462.701 755 563 699.969 563 520 c 258
 563 200 l 257
 422 200 l 257
36 566 m 257
 36 672.126 146.127 755 252.667 755 c 257
 263 755 l 257
 263 616.5 l 257
 252.667 616.5 l 257
 212.259 616.5 173 595.735 173 530 c 257
 36 566 l 257
EndSplineSet
PickledDataWithLists: "(dp1
S'com.fontlab.hintData'
p2
(dp3
S'vhints'
p4
(lp5
(dp6
S'position'
p7
I30
sS'width'
p8
I138
sa(dp9
g7
I245
sg8
I100
sa(dp10
g7
I422
sg8
I141
sasS'hhints'
p11
(lp12
(dp13
g7
I-8
sg8
I140
sa(dp14
g7
I200
sg8
I2
sa(dp15
g7
I336
sg8
I138
sa(dp16
g7
I616
sg8
I138
sass."
EndChar

StartChar: si_E
Encoding: 15 3473 100
GlifName: si_E_
Width: 604
VWidth: 0
GlyphClass: 2
Flags: W
HStem: -5 145<256.251 283 256.251 283 256.251 339> 249 1<434 574 434 574> 252 102<30 247 30 80.3096 30 266 30 350> 400 103<200.073 215.361> 454 86<398 398> 616 139<259 339 259 339>
VStem: 69 138<181.608 202.014> 247 103<252 360 252 360> 259 80<617 617 755 755> 434 140<201.761 250 249 250 250 498 498 517>
LayerCount: 2
Back
Fore
SplineSet
30 252 m 257
 30 354 l 257
 247 354 l 257
 247 360 l 257
 247.053 389.333 225.721 400 205 400 c 256
 195.147 400 169.971 397 165 376 c 257
 66 402 l 257
 92.4043 489.737 168.592 503 205 503 c 256
 248.907 503 293.606 486.114 317 459 c 256
 340.371 431.912 350 406 350 350 c 258
 350 252 l 257
 266 252 l 258
 236 252 207 242 207 195 c 256
 207 168.216 229.503 140 283 140 c 257
 283 -5 l 257
 155.558 -5 69 87.2324 69 192 c 256
 69 212.029 69.5162 232.24 80.3096 252 c 257
 30 252 l 257
259 617 m 258
 259 755 l 257
 339 755 l 257
 473.273 755 574 700 574 517 c 258
 574 249 l 257
 434 249 l 257
 434 498 l 258
 434 577 417.252 616 339 616 c 257
 339 616 339 616 339 616 c 256
 339 563.071 364.652 547.238 398 540 c 257
 398 454 l 257
 294.619 473.607 259 544.038 259 617 c 258
339 -5 m 257
 339 140 l 257
 381.411 140 434 153.522 434 250 c 256
 574 250 l 256
 574 78.4932 493.968 -4.83398 339 -5 c 257
EndSplineSet
PickledDataWithLists: "(dp1
S'com.fontlab.hintData'
p2
(dp3
S'vhints'
p4
(lp5
(dp6
S'position'
p7
I69
sS'width'
p8
I138
sa(dp9
g7
I247
sg8
I103
sa(dp10
g7
I259
sg8
I80
sa(dp11
g7
I434
sg8
I140
sasS'hhints'
p12
(lp13
(dp14
g7
I-5
sg8
I145
sa(dp15
g7
I249
sg8
I1
sa(dp16
g7
I252
sg8
I102
sa(dp17
g7
I400
sg8
I103
sa(dp18
g7
I454
sg8
I86
sa(dp19
g7
I616
sg8
I139
sass."
EndChar

StartChar: si_Ee
Encoding: 16 3474 101
GlifName: si_E_e
Width: 604
VWidth: 0
GlyphClass: 2
Flags: W
HStem: -5 145<256.251 283 256.251 283 256.251 339> 249 1<434 574 434 574> 252 102<30 247 30 80.3096 30 266 30 350> 400 103<200.073 215.361> 454 86<398 398> 616 139<259 339 259 339>
VStem: 69 138<181.608 202.014> 247 103<252 360 252 360> 259 80<617 617 755 755> 434 140<201.761 250 249 250 250 498 498 517>
LayerCount: 2
Back
Fore
SplineSet
30 252 m 257
 30 354 l 257
 247 354 l 257
 247 360 l 257
 247.053 389.333 225.721 400 205 400 c 256
 195.147 400 169.971 397 165 376 c 257
 66 402 l 257
 92.4043 489.737 168.592 503 205 503 c 256
 248.907 503 293.606 486.114 317 459 c 256
 340.371 431.912 350 406 350 350 c 258
 350 252 l 257
 266 252 l 258
 236 252 207 242 207 195 c 256
 207 168.216 229.503 140 283 140 c 257
 283 -5 l 257
 155.558 -5 69 87.2324 69 192 c 256
 69 212.029 69.5162 232.24 80.3096 252 c 257
 30 252 l 257
259 617 m 258
 259 755 l 257
 339 755 l 257
 473.273 755 574 700 574 517 c 258
 574 249 l 257
 434 249 l 257
 434 498 l 258
 434 577 417.252 616 339 616 c 257
 339 616 339 616 339 616 c 256
 339 563.071 364.652 547.238 398 540 c 257
 398 454 l 257
 294.619 473.607 259 544.038 259 617 c 258
339 -5 m 257
 339 140 l 257
 381.411 140 434 153.522 434 250 c 256
 574 250 l 256
 574 78.4932 493.968 -4.83398 339 -5 c 257
437.001 518 m 257
 437.001 819 l 257
 573.001 819 l 257
 573.001 518 l 257
 437.001 518 l 257
EndSplineSet
PickledDataWithLists: "(dp1
S'com.fontlab.hintData'
p2
(dp3
S'vhints'
p4
(lp5
(dp6
S'position'
p7
I69
sS'width'
p8
I138
sa(dp9
g7
I247
sg8
I103
sa(dp10
g7
I259
sg8
I80
sa(dp11
g7
I434
sg8
I140
sasS'hhints'
p12
(lp13
(dp14
g7
I-5
sg8
I145
sa(dp15
g7
I249
sg8
I1
sa(dp16
g7
I252
sg8
I102
sa(dp17
g7
I400
sg8
I103
sa(dp18
g7
I454
sg8
I86
sa(dp19
g7
I616
sg8
I139
sass."
EndChar

StartChar: si_Fa
Encoding: 61 3526 111
GlifName: si_F_a
Width: 650
VWidth: 0
GlyphClass: 2
Flags: W
HStem: 0 143<198.944 225 198.944 225 425 451.056> 425 139
VStem: 30 139<251 385> 261 128<251 383 251 396.957> 481 139<189.98 396 251 385 385 396 251 398.033>
LayerCount: 2
Back
Fore
SplineSet
30 251 m 257
 30 396 l 258
 30 506 101.976 564 212 564 c 256
 254.945 564 298.038 552.267 328 520 c 257
 356.929 552.267 395.536 564 437 564 c 256
 545.873 564 620 498 620 396 c 258
 620 396 620 251 620 251 c 257
 481 251 l 257
 481 385 l 258
 481 411.065 457.994 424.604 434.991 424.604 c 256
 411.994 424.604 389 411.072 389 383 c 258
 389 383 389 251 389 251 c 257
 261 251 l 257
 261 383 l 258
 261 410.914 237.715 424.617 214.573 424.617 c 256
 191.717 424.617 169 411.249 169 385 c 258
 169 385 169 251 169 251 c 257
 30 251 l 257
30.0791 202 m 256
 169 202 l 256
 169 177.959 172.888 143 225 143 c 257
 225 0 l 257
 85.7041 0 30.4199 85.7373 30.0791 202 c 256
425 0 m 257
 564.296 0 619.58 85.7373 619.921 202 c 256
 481 202 l 256
 481 177.959 477.112 143 425 143 c 257
 425 0 l 257
EndSplineSet
PickledDataWithLists: "(dp1
S'com.fontlab.hintData'
p2
(dp3
S'vhints'
p4
(lp5
(dp6
S'position'
p7
I30
sS'width'
p8
I139
sa(dp9
g7
I261
sg8
I128
sa(dp10
g7
I481
sg8
I139
sasS'hhints'
p11
(lp12
(dp13
g7
I0
sg8
I143
sa(dp14
g7
I425
sg8
I139
sass."
EndChar

StartChar: si_GDha
Encoding: 459 -1 114
GlifName: si_G_D_ha
Width: 1373
VWidth: 0
GlyphClass: 2
Flags: W
HStem: -8 140<668 698 668 701.979 863.075 874> 200 2<898 1039> 241 106<254 371 271 371 271 283> 616 138
VStem: 30 141 337 124<105.669 196.519> 506 138<109 166> 721 100<166 202 159.438 202> 898 141<166 202 200 202 202 498 202 202 498 520>
LayerCount: 2
Back
Fore
SplineSet
528.939 636.534 m 257
 664.934 588.211 l 257
 680.095 608.868 704.17 616.5 728.667 616.5 c 257
 739 616.5 l 257
 739 755 l 257
 728.667 755 l 257
 647.296 755 563.832 706.657 528.939 636.534 c 257
505.999 261.926 m 258
 505.999 323.069 514.201 411.354 600.291 452 c 256
 739 404 l 257
 739 336 l 257
 716.667 336 l 257
 676.667 336 644 322 644 262 c 258
 644 166 l 258
 644 154 653 132 683 132 c 256
 713 132 721 152.875 721 166 c 258
 721 202 l 257
 821 202 l 257
 821 166 l 258
 821 152.875 829 132 859 132 c 256
 889 132 898 154 898 166 c 258
 898 202 l 257
 1039 202 l 257
 1039 160 l 258
 1039 58 972.381 -8 880 -8 c 256
 846.151 -8 804.925 3.4668 776 35 c 257
 752.108 3.4668 715.959 -8 688 -8 c 256
 581.004 -8 506 58 506 160 c 258
 505.999 261.926 l 258
795 616 m 257
 795 755 l 257
 805 755 l 257
 938.701 755 1039 699.969 1039 520 c 258
 1039 200 l 257
 898 200 l 257
 898 498 l 258
 898 576.997 881.604 616 805 616 c 257
 795 616 l 257
271 241 m 257
 271 347 l 257
 371 347 l 257
 407.086 347 461 325.407 460.85 216 c 258
 461 166 l 258
 461 45.3371 399.69 -8 283 -8 c 257
 283 135 l 256
 335.527 135 337 170.963 337 188 c 256
 337 205.037 335.527 241 283 241 c 258
 271 241 l 257
30.0791 198 m 258
 30.0791 358 l 258
 30.4201 474.262 87.704 564 227 564 c 257
 227 421 l 257
 174.887 421 171 375.857 171 348 c 258
 171 198 l 258
 171 173.959 174.887 135 227 135 c 257
 227 -8 l 257
 87.704 -8 30.4201 81.7376 30.0791 198 c 258
254 241 m 256
 254 350 l 258
 254 493.629 383.018 575.647 509.029 575.647 c 256
 610.915 575.647 710.834 522.027 739 404 c 257
 579 405 l 257
 579.759 407.531 580.123 409.981 580.123 412.342 c 256
 580.123 434.871 547.015 449.33 508.639 449.33 c 256
 455.696 449.33 392.727 421.811 392.835 350 c 258
 393 240.5 l 257
 254 241 l 256
EndSplineSet
PickledDataWithLists: "(dp1
S'com.fontlab.hintData'
p2
(dp3
S'vhints'
p4
(lp5
(dp6
S'position'
p7
I30
sS'width'
p8
I141
sa(dp9
g7
I337
sg8
I124
sa(dp10
g7
I506
sg8
I138
sa(dp11
g7
I721
sg8
I100
sa(dp12
g7
I898
sg8
I141
sasS'hhints'
p13
(lp14
(dp15
g7
I-8
sg8
I140
sa(dp16
g7
I200
sg8
I2
sa(dp17
g7
I241
sg8
I106
sa(dp18
g7
I616
sg8
I138
sass."
EndChar

StartChar: si_GIi
Encoding: 110 -1 116
GlifName: si_G_I_i
Width: 717
VWidth: 0
GlyphClass: 3
Flags: W
LayerCount: 2
Back
Fore
SplineSet
423 671 m 256
 423 606 476 553 541 553 c 256
 606 553 659 606 659 671 c 256
 659 736 606 789 541 789 c 256
 476 789 423 736 423 671 c 256
97 602 m 257
 227 602 l 257
 227 654.112 262.143 658 289 659 c 257
 541 659 l 256
 541 789 l 257
 273 789 l 257
 173.741 789 96.623 723.409 97 630 c 257
 97 602 l 257
EndSplineSet
Refer: 123 3484 N 1 0 0 1 0 0 2
Ligature2: "si_abvs_2 subtable" si_Ga si_MatraIi
EndChar

StartChar: si_GU
Encoding: 111 -1 121
GlifName: si_G_U_
Width: 717
VWidth: 0
GlyphClass: 3
Flags: W
LayerCount: 2
Back
Fore
SplineSet
271 241 m 257
 283 241 l 258
 335.527 241 337 205.037 337 188 c 256
 337 170.963 335.527 135 283 135 c 256
 283 -8 l 257
 399.689 -8 461 45.3369 461 166 c 258
 460.85 216 l 258
 461 325.407 407.086 347 371 347 c 257
 271 347 l 257
 271 241 l 257
30.0791 198 m 258
 30.0791 358 l 258
 30.4199 474.263 87.7041 564 227 564 c 257
 227 421 l 257
 174.888 421 171 375.857 171 348 c 258
 171 198 l 258
 171 173.959 174.888 135 227 135 c 257
 227 -8 l 257
 87.7041 -8 30.4199 81.7373 30.0791 198 c 258
490 421 m 257
 490 564 l 257
 629.296 564 686.58 474.263 686.921 358 c 258
 686.921 138 l 256
 546 138 l 256
 546 348 l 258
 546 375.857 542.112 421 490 421 c 257
254 241 m 256
 393 240.5 l 257
 392.835 350 l 258
 393.466 376.492 388.192 421 434 421 c 257
 434 564 l 257
 290.062 564 254 468.007 254 350 c 258
 254 241 l 256
EndSplineSet
Refer: 257 -1 N 1 0 0 1 440 0 2
Ligature2: "si_blws_1 subtable" si_Ga si_MatraU
EndChar

StartChar: si_GUu
Encoding: 112 -1 122
GlifName: si_G_U_u
Width: 717
VWidth: 0
GlyphClass: 3
Flags: W
LayerCount: 2
Back
Fore
SplineSet
512.945 -31 m 258
 512.908 -1.08691 514.839 5 526 20 c 256
 703 20 l 257
 695.74 20 688.654 20 682 20 c 256
 662.47 20 653 11.3271 653 -18 c 258
 652.844 -47 l 258
 652.964 -66.833 663.775 -75 686 -75 c 256
 699.071 -75 710.624 -75 717 -75 c 257
 717 -205 l 257
 645.19 -205.003 l 258
 589.065 -205.003 513 -162.81 513 -75 c 258
 512.945 -31 l 258
490 90 m 257
 547 132 l 257
 727 132 l 257
 670 90 l 257
 490 90 l 257
490 132 m 257
 490 202 l 257
 727 202 l 257
 727 132 l 257
 490 132 l 257
490 20 m 257
 490 90 l 257
 727 90 l 257
 727 20 l 257
 490 20 l 257
490 201 m 257
 530.846 201 546.118 216.393 546 249 c 257
 687 249 l 257
 687.021 236.393 686.555 213 677 201 c 257
 490 201 l 257
271 241 m 257
 283 241 l 258
 335.527 241 337 205.037 337 188 c 256
 337 170.963 335.527 135 283 135 c 256
 283 -8 l 257
 399.689 -8 461 45.3369 461 166 c 258
 460.85 216 l 258
 461 325.407 407.086 347 371 347 c 257
 271 347 l 257
 271 241 l 257
30.0791 198 m 258
 30.0791 358 l 258
 30.4199 474.263 87.7041 564 227 564 c 257
 227 421 l 257
 174.888 421 171 375.857 171 348 c 258
 171 198 l 258
 171 173.959 174.888 135 227 135 c 257
 227 -8 l 257
 87.7041 -8 30.4199 81.7373 30.0791 198 c 258
490 421 m 257
 490 564 l 257
 629.296 564 686.58 474.263 686.921 358 c 258
 686.921 247 l 257
 686.921 198 l 256
 546 198 l 256
 546 348 l 258
 546 375.857 542.112 421 490 421 c 257
254 241 m 256
 393 240.5 l 257
 392.835 350 l 258
 393.466 376.492 388.192 421 434 421 c 257
 434 564 l 257
 290.062 564 254 468.007 254 350 c 258
 254 241 l 256
EndSplineSet
Ligature2: "si_blws_3 subtable" si_Ga si_MatraUu
EndChar

StartChar: si_Ga
Encoding: 23 3484 123
GlifName: si_G_a
Width: 717
VWidth: 0
GlyphClass: 2
Flags: W
HStem: -8 143<200.944 227 200.944 227 283 309.264 200.944 341.345 490 516.057> 421 143<200.944 227 411.096 434 490 516.057>
VStem: 30 141 254 139<240.5 350 240.5 409.004> 337 124<105.669 196.519> 546 141
LayerCount: 2
Back
Fore
SplineSet
271 241 m 257
 271 347 l 257
 371 347 l 257
 407.086 347 461 325.407 460.85 216 c 258
 461 166 l 258
 461 45.3371 399.69 -8 283 -8 c 257
 283 135 l 256
 335.527 135 337 170.963 337 188 c 256
 337 205.037 335.527 241 283 241 c 258
 271 241 l 257
227 -8 m 257
 87.704 -8 30.4201 81.7376 30.0791 198 c 258
 30.0791 358 l 258
 30.4201 474.262 87.704 564 227 564 c 257
 227 421 l 257
 174.887 421 171 375.857 171 348 c 258
 171 198 l 258
 171 173.959 174.887 135 227 135 c 257
 227 -8 l 257
490 -8 m 257
 490 135 l 257
 542.113 135 546 173.959 546 198 c 258
 546 348 l 258
 546 375.857 542.113 421 490 421 c 257
 490 564 l 257
 629.296 564 686.58 474.262 686.921 358 c 258
 686.921 198 l 258
 686.58 81.7376 629.296 -8 490 -8 c 257
254 241 m 256
 254 350 l 258
 254 468.007 290.062 564 434 564 c 257
 434 421 l 257
 388.193 421 393.466 376.492 392.835 350 c 258
 393 240.5 l 257
 254 241 l 256
EndSplineSet
PickledDataWithLists: "(dp1
S'com.fontlab.hintData'
p2
(dp3
S'vhints'
p4
(lp5
(dp6
S'position'
p7
I30
sS'width'
p8
I141
sa(dp9
g7
I254
sg8
I139
sa(dp10
g7
I337
sg8
I124
sa(dp11
g7
I546
sg8
I141
sasS'hhints'
p12
(lp13
(dp14
g7
I-8
sg8
I143
sa(dp15
g7
I421
sg8
I143
sass."
EndChar

StartChar: si_GhU
Encoding: 121 -1 132
GlifName: si_G_hU_
Width: 687
VWidth: 0
GlyphClass: 3
Flags: W
LayerCount: 2
Back
Fore
SplineSet
508 131 m 257
 648 131 l 257
 648 -205 l 257
 508 -205 l 257
 508 131 l 257
388 -65 m 257
 518 -65 l 257
 518 -205 l 257
 388 -205 l 257
 388 -65 l 257
90 -65 m 257
 332 -65 l 257
 332 -205 l 257
 90 -205 l 257
 90 -65 l 257
EndSplineSet
Refer: 134 3485 N 1 0 0 1 0 0 2
Ligature2: "si_blws_1 subtable" si_Gha si_MatraU
EndChar

StartChar: si_GhUu
Encoding: 122 -1 133
GlifName: si_G_hU_u
Width: 687
VWidth: 0
GlyphClass: 3
Flags: W
LayerCount: 2
Back
Fore
SplineSet
80 -34 m 257
 120.479 -59.333 156.005 -67.7773 188.741 -67.7773 c 256
 240.051 -67.7773 282.616 -34 330 -34 c 257
 330 -174 l 257
 282.616 -174 240.051 -204.777 188.741 -204.777 c 256
 156.005 -204.777 120.479 -197.083 80 -174 c 257
 80 -34 l 257
508 131 m 257
 648 131 l 257
 648 -205 l 257
 508 -205 l 257
 508 131 l 257
388 -34 m 257
 417.143 -34 468.826 -39.9221 508 -61 c 257
 508 -205 l 257
 463.611 -180.252 424 -174 388 -174 c 257
 388 -34 l 257
EndSplineSet
Refer: 134 3485 N 1 0 0 1 0 0 2
Ligature2: "si_blws_3 subtable" si_Gha si_MatraUu
EndChar

StartChar: si_Gha
Encoding: 24 3485 134
GlifName: si_G_ha
Width: 687
VWidth: 0
GlyphClass: 2
Flags: W
HStem: -11 143<230 260 230 267.65 464 494> 101 103 251 151<67 206 67 67 206 206 518 534.18 30 657 518 518 518 518> 283 119<30 503 30 71 229.5 246 246 481> 378 24<298 426 298 298> 451 124
VStem: 67 139<160 166 166 199 160 199 160 251> 283 158<159.438 173.334> 298 128<378 397 378 420.082> 518 139<166 199 106 199 251 258.5 106 251>
LayerCount: 2
Back
Fore
SplineSet
230 -11 m 256
 133.026 -11 67 55 67 157 c 258
 67 199 l 257
 206 199 l 257
 206 166 l 258
 206 154 215 132 245 132 c 256
 275 132 283 152.875 283 166 c 257
 283 180.669 290.158 204 317 204 c 258
 407 204 l 258
 433.842 204 441 180.669 441 166 c 257
 441 152.875 449 132 479 132 c 256
 509 132 518 154 518 166 c 258
 518 199 l 257
 657 199 l 257
 657 157 l 258
 657 55 590.974 -11 494 -11 c 256
 418.7 -11 387 21.4156 387 68 c 256
 387 89.8078 374.492 100.723 361.987 100.723 c 256
 349.492 100.723 337 89.8224 337 68 c 256
 337 21.4156 305.3 -11 230 -11 c 256
78 460 m 257
 102.046 536.591 169.808 574.548 241.252 574.548 c 256
 282.892 574.548 325.784 561.654 362 536 c 257
 398.253 561.68 441.124 574.564 482.73 574.564 c 256
 554.221 574.564 621.975 536.524 646 460 c 257
 528 421 l 257
 523.584 436 508.783 451 481 451 c 256
 465.669 451 426 443.165 426 397 c 257
 426 378 l 257
 298 378 l 257
 298 397 l 257
 298 443.165 258.331 451 243 451 c 256
 215.217 451 200.416 436 196 421 c 257
 78 460 l 257
30 283 m 257
 30 402 l 257
 503 402 l 258
 565.36 402 657 391.937 657 279 c 258
 657 251 l 257
 518 251 l 257
 518 251 518 251 518 251 c 256
 518 266 509 283 481 283 c 258
 246 283 l 258
 213 283 206 263 206 251 c 256
 206 251 206 251 206 251 c 257
 67 251 l 257
 67.1724410777 254.17041384 67.5094436176 264.734059731 68.436158356 272.892361633 c 256
 69.0206391395 278.037818472 69.8396985531 282.226465702 71 283 c 257
 30 283 l 257
EndSplineSet
PickledDataWithLists: "(dp1
S'com.fontlab.hintData'
p2
(dp3
S'vhints'
p4
(lp5
(dp6
S'position'
p7
I67
sS'width'
p8
I139
sa(dp9
g7
I283
sg8
I158
sa(dp10
g7
I298
sg8
I128
sa(dp11
g7
I518
sg8
I139
sasS'hhints'
p12
(lp13
(dp14
g7
I-11
sg8
I143
sa(dp15
g7
I101
sg8
I103
sa(dp16
g7
I251
sg8
I151
sa(dp17
g7
I283
sg8
I119
sa(dp18
g7
I378
sg8
I24
sa(dp19
g7
I451
sg8
I124
sass."
EndChar

StartChar: si_HU
Encoding: 429 -1 143
GlifName: si_H_U_
Width: 716
VWidth: 0
GlyphClass: 3
Flags: W
LayerCount: 2
Back
Fore
SplineSet
538 131 m 257
 538 -205 l 257
 678 -205 l 257
 678 131 l 257
 538 131 l 257
418 -65 m 257
 418 -205 l 257
 548 -205 l 257
 548 -65 l 257
 418 -65 l 257
120 -65 m 257
 120 -205 l 257
 362 -205 l 257
 362 -65 l 257
 120 -65 l 257
EndSplineSet
Refer: 145 3524 N 1 0 0 1 0 0 2
Ligature2: "si_blws_1 subtable" si_Ha si_MatraU
EndChar

StartChar: si_HUu
Encoding: 430 -1 144
GlifName: si_H_U_u
Width: 716
VWidth: 0
GlyphClass: 3
Flags: W
LayerCount: 2
Back
Fore
SplineSet
110 -34 m 257
 110 -174 l 257
 150.479 -197.083 186.005 -204.777 218.741 -204.777 c 256
 270.051 -204.777 312.616 -174 360 -174 c 257
 360 -34 l 257
 312.616 -34 270.051 -67.7773 218.741 -67.7773 c 256
 186.005 -67.7773 150.479 -59.333 110 -34 c 257
538 131 m 257
 538 -205 l 257
 678 -205 l 257
 678 131 l 257
 538 131 l 257
416 -34 m 257
 416 -174 l 257
 452 -174 493.611 -180.252 538 -205 c 257
 538 -61 l 257
 498.826 -39.9221 445.143 -34 416 -34 c 257
EndSplineSet
Refer: 145 3524 N 1 0 0 1 0 0 2
Ligature2: "si_blws_3 subtable" si_Ha si_MatraUu
EndChar

StartChar: si_Ha
Encoding: 59 3524 145
GlifName: si_H_a
Width: 716
VWidth: 0
GlyphClass: 2
Flags: W
HStem: -8 143<200.944 227 200.944 227 282 308.264 200.944 340.345 489 515.056> 400 24 421 143<410.096 433 489 515.056> 462 102
VStem: 38 141 261 14 344 124 553 141
LayerCount: 2
Back
Fore
SplineSet
30.0791 198 m 258
 30.4199 81.7373 87.7041 -8 227 -8 c 257
 227 135 l 257
 174.888 135 171 173.959 171 198 c 258
 171 228 l 258
 171 248.226 174.888 281 227 281 c 257
 267 281 l 257
 267 424 l 257
 227 424 l 257
 87.7041 424 30.4199 342.975 30.0791 238 c 258
 30.0791 198 l 258
270 241 m 257
 282 241 l 258
 334.527 241 336 205.037 336 188 c 256
 336 170.963 334.527 135 282 135 c 256
 282 -8 l 257
 398.689 -8 460 45.3369 460 166 c 258
 459.85 216 l 258
 460 325.407 406.086 347 370 347 c 257
 270 347 l 257
 270 241 l 257
489 -8 m 257
 628.296 -8 685.58 81.7373 685.921 198 c 258
 685.921 358 l 258
 685.58 474.263 628.296 564 489 564 c 257
 489 421 l 257
 541.112 421 545 375.857 545 348 c 258
 545 198 l 258
 545 173.959 541.112 135 489 135 c 257
 489 -8 l 257
253 241 m 256
 392 240.5 l 257
 391.835 350 l 258
 392.466 376.492 387.192 421 433 421 c 257
 433 564 l 257
 289.062 564 253 468.007 253 350 c 258
 253 241 l 256
32 463.352 m 257
 131 437.352 l 257
 134.712 454.054 152.244 461.951 170.15 461.951 c 256
 191.314 461.951 213 450.918 213 430.352 c 258
 213 400.352 l 257
 315.999 401 l 257
 316 433.352 l 256
 316 433.356 l 258
 316 516.172 244.971 563.617 172.772 563.617 c 256
 114.161 563.617 54.7783 532.349 32 463.352 c 257
EndSplineSet
PickledDataWithLists: "(dp1
S'com.fontlab.hintData'
p2
(dp3
S'vhints'
p4
(lp5
(dp6
S'position'
p7
I38
sS'width'
p8
I141
sa(dp9
g7
I261
sg8
I14
sa(dp10
g7
I344
sg8
I124
sa(dp11
g7
I553
sg8
I141
sasS'hhints'
p12
(lp13
(dp14
g7
I-8
sg8
I143
sa(dp15
g7
I400
sg8
I24
sa(dp16
g7
I421
sg8
I143
sa(dp17
g7
I462
sg8
I102
sass."
EndChar

StartChar: si_Halant
Encoding: 62 3530 147
GlifName: si_H_alant
Width: 196
VWidth: 0
GlyphClass: 2
Flags: W
HStem: 619 200<30.001 166.001 30.001 166.001>
VStem: 30 136
LayerCount: 2
Back
Fore
SplineSet
30.001 619 m 257
 30.001 819 l 257
 166.001 819 l 257
 166.001 619 l 257
 30.001 619 l 257
EndSplineSet
PickledDataWithLists: "(dp1
S'com.fontlab.hintData'
p2
(dp3
S'vhints'
p4
(lp5
(dp6
S'position'
p7
I30
sS'width'
p8
I136
sasS'hhints'
p9
(lp10
(dp11
g7
I619
sg8
I200
sass."
EndChar

StartChar: si_I
Encoding: 7 3465 148
GlifName: si_I_
Width: 569
VWidth: 0
GlyphClass: 2
Flags: W
HStem: -204 126<237.656 262.356 237.656 307.5> 0 128<196 225 196 225 225 278.1 196 287> 176 140<183.089 208.839 183.089 263.701> 428 141
VStem: 30 138<363.5 363.5 363.5 381 363.5 438.563> 224 130<347 365 253.058 365> 402 137<278 336 336 371.944>
LayerCount: 2
Back
Fore
SplineSet
196 0 m 257
 196 128 l 257
 205.667 128 215.333 128 225 128 c 256
 331.2 128 402 171.955 402 278 c 258
 402 336 l 258
 402 407.888 366 428.479 312 428.479 c 256
 312 569 l 256
 328 569 l 257
 431.754 569 539 496.126 539 380 c 258
 539 249 l 258
 539 85.834 411.519 0 287 0 c 258
 196 0 l 257
65 -81 m 257
 198 -47 l 257
 203.173 -67.3711 227.311 -78 248 -78 c 256
 276.711 -78 297 -61.1494 297 -45 c 257
 434 -45 l 257
 434 -136.261 367.001 -204 248 -204 c 256
 142.498 -204 86.8809 -148.451 65 -81 c 257
30 317.5 m 258
 30 381 l 258
 30 496.126 137.246 569 241 569 c 257
 257 569 l 256
 257 428.479 l 257
 241 428.479 l 257
 199.286 428.479 168.156 405.334 168 363.5 c 258
 167.903 346.122 l 258
 167.903 333.348 170.178 316 196 316 c 256
 221.678 316 224 332.729 224 347 c 258
 224 365 l 257
 354 365 l 257
 354 355.55 354 277 354 277 c 258
 354 229.115 331.402 176 196 176 c 256
 73.9854 176 30 250.131 30 317.5 c 258
EndSplineSet
PickledDataWithLists: "(dp1
S'com.fontlab.hintData'
p2
(dp3
S'vhints'
p4
(lp5
(dp6
S'position'
p7
I30
sS'width'
p8
I138
sa(dp9
g7
I224
sg8
I130
sa(dp10
g7
I402
sg8
I137
sasS'hhints'
p11
(lp12
(dp13
g7
I-204
sg8
I126
sa(dp14
g7
I0
sg8
I128
sa(dp15
g7
I176
sg8
I140
sa(dp16
g7
I428
sg8
I141
sass."
EndChar

StartChar: si_Ii
Encoding: 8 3466 149
GlifName: si_I_i
Width: 545
VWidth: 0
GlyphClass: 2
Flags: W
HStem: -6 145 587 145<516 556> 697 145
VStem: 30 140 50 146<749.502 789.002> 375 140 463 146<639.5 679>
LayerCount: 2
Back
Fore
SplineSet
463 659 m 256
 463 699 496 732 536 732 c 256
 576 732 609 699 609 659 c 256
 609 620 576 587 536 587 c 256
 496 587 463 620 463 659 c 256
50 769.002 m 256
 50 809.002 83 842.002 123 842.002 c 256
 163 842.002 196 809.002 196 769.002 c 256
 196 730.002 163 697.002 123 697.002 c 256
 83 697.002 50 730.002 50 769.002 c 256
EndSplineSet
Refer: 375 3515 N 1 0 0 1 0 0 2
PickledDataWithLists: "(dp1
S'com.fontlab.hintData'
p2
(dp3
S'vhints'
p4
(lp5
(dp6
S'position'
p7
I30
sS'width'
p8
I140
sa(dp9
g7
I50
sg8
I146
sa(dp10
g7
I375
sg8
I140
sa(dp11
g7
I463
sg8
I146
sasS'hhints'
p12
(lp13
(dp14
g7
I-6
sg8
I145
sa(dp15
g7
I587
sg8
I145
sa(dp16
g7
I697
sg8
I145
sass."
EndChar

StartChar: si_J.halant
Encoding: 151 -1 150
GlifName: si_J_.halant
Width: 626
VWidth: 0
GlyphClass: 3
Flags: W
HStem: 619 200
VStem: 32 136
LayerCount: 2
Back
Fore
SplineSet
316.001 529 m 257
 316.001 819 l 257
 447.001 819 l 257
 447.001 696 l 257
 323.685 529 l 257
 316.001 529 l 257
EndSplineSet
Refer: 159 3490 N 1 0 0 1 0 0 2
PickledDataWithLists: "(dp1
S'com.fontlab.hintData'
p2
(dp3
S'vhints'
p4
(lp5
(dp6
S'position'
p7
I32
sS'width'
p8
I136
sasS'hhints'
p9
(lp10
(dp11
g7
I619
sg8
I200
sass."
Ligature2: "si_halant_1 subtable" si_Ja si_Halant
EndChar

StartChar: si_Ja
Encoding: 29 3490 159
GlifName: si_J_a
Width: 626
VWidth: 0
GlyphClass: 2
Flags: W
HStem: -12 135<278 289 289 342> 378 24<250 378 250 250> 451 124
VStem: 34 140<175.4 202 175.4 202> 250 128<378 397 378 420.082> 454 140<176.5 202>
LayerCount: 2
Back
Fore
SplineSet
30 460 m 257
 54.0459 536.591 121.808 574.548 193.252 574.548 c 256
 234.893 574.548 277.783 561.654 314 536 c 257
 350.253 561.681 393.124 574.564 434.729 574.564 c 256
 506.221 574.564 573.975 536.524 598 460 c 257
 480 421 l 257
 475.584 436 460.783 451 433 451 c 256
 417.669 451 378 443.165 378 397 c 257
 378 378 l 257
 250 378 l 257
 250 397 l 257
 250 443.165 210.331 451 195 451 c 256
 167.217 451 152.416 436 148 421 c 257
 30 460 l 257
289 -12 m 258
 112 -12 34 59.2461 34 202 c 257
 174 202 l 257
 174 148.801 215 123 278 123 c 258
 350 123 l 258
 415 123 454 151 454 202 c 257
 594 202 l 257
 594 64 511 -12 342 -12 c 258
 289 -12 l 258
35 251 m 257
 35 373 101 402 198 402 c 258
 423 402 l 258
 531 402 594 377 594 251 c 257
 455 251 l 257
 455 263 455 283 426 283 c 258
 209 283 l 258
 175.738 283 174.001 262.104 174 251 c 257
 35 251 l 257
302 522 m 257
 507.721 793 l 257
 653 755 l 257
 436 470 l 257
 302 522 l 257
EndSplineSet
PickledDataWithLists: "(dp1
S'com.fontlab.hintData'
p2
(dp3
S'vhints'
p4
(lp5
(dp6
S'position'
p7
I34
sS'width'
p8
I140
sa(dp9
g7
I250
sg8
I128
sa(dp10
g7
I454
sg8
I140
sasS'hhints'
p11
(lp12
(dp13
g7
I-12
sg8
I135
sa(dp14
g7
I378
sg8
I24
sa(dp15
g7
I451
sg8
I124
sass."
EndChar

StartChar: si_Jh.halant
Encoding: 161 -1 161
GlifName: si_J_h.halant
Width: 1138
VWidth: 0
GlyphClass: 3
Flags: W
HStem: -8 140<737 767 737 770.979 932.075 943> 200 2<967 1108> 336 138 616 138
VStem: 30 138 245 100 422 141
LayerCount: 2
Back
Fore
SplineSet
30 439 m 257
 44 537 136.521 567 198 567 c 256
 270.695 567 320 533 337 502 c 257
 245 402 l 257
 245 437 214.169 446 198 446 c 256
 164.069 446 147 422.741 147 402 c 257
 30 439 l 257
30 160 m 257
 147 255 l 257
 165.91 239.066 180.861 220.713 180.88 202 c 257
 181 160 l 258
 181.054 141.248 195.791 131.885 210.521 131.885 c 256
 225.264 131.885 240 141.265 240 160 c 258
 240 202 l 257
 339.88 202 l 257
 340 162 l 258
 340.061 141.747 355.048 131.634 370.026 131.634 c 256
 385.017 131.634 400 141.765 400 162 c 258
 400.004 202.128 l 258
 400.004 233.327 393.873 258.737 351 276 c 257
 448.224 354.096 l 257
 511.602 326.931 529 279.827 529 218 c 258
 529 136 l 258
 529 47.0805 455.346 -7.17 384.54 -7.17 c 256
 349.123 -7.17 314.418 6.40316 290 36 c 257
 269.556 6.1516 237.055 -6.59313 203.041 -6.59313 c 256
 136.876 -6.59313 64.988 41.6331 65 106 c 258
 65.0029 121.756 l 258
 65.0029 141.945 64.3154 161.906 41.2734 161.906 c 256
 37.9902 161.906 34.2529 161.3 30 160 c 257
30 160 m 257
 30 259 l 257
 335 509 l 257
 398.426 555.861 476.827 577.68 551.435 577.68 c 256
 685.875 577.68 808 506.833 808 384 c 257
 671 369 l 257
 659.397 416.572 606.732 442.604 548.153 442.604 c 256
 505.759 442.604 460.268 428.97 425 400 c 257
 155 181.392 l 257
 30 160 l 257
574.999 261.926 m 258
 574.999 343.692 589.667 454 785.667 454 c 257
 808 384 l 257
 808 336 l 257
 785.667 336 l 257
 745.667 336 713 322 713 262 c 258
 713 166 l 258
 713 154 722 132 752 132 c 256
 782 132 790 152.875 790 166 c 258
 790 202 l 257
 890 202 l 257
 890 166 l 258
 890 152.875 898 132 928 132 c 256
 958 132 967 154 967 166 c 258
 967 202 l 257
 1108 202 l 257
 1108 160 l 258
 1108 58 1041.38 -8 949 -8 c 256
 915.151 -8 873.925 3.4668 845 35 c 257
 821.108 3.4668 784.959 -8 757 -8 c 256
 650.004 -8 575 58 575 160 c 258
 574.999 261.926 l 258
876.667 522 m 257
 876.667 652 l 257
 1036.3 652 1108 590 1108 474 c 258
 1108 200 l 257
 967 200 l 257
 967 455 l 258
 967 514 926.403 522 876.667 522 c 257
876.167 703 m 257
 876.167 819 l 257
 921.667 819 l 258
 1070.03 819 1095 756 1095 673 c 257
 959.667 673 l 257
 959.667 700 935 703 889.667 703 c 258
 876.167 703 l 257
644 652 m 257
 627.708 652 611.543 678.371 611.543 710.154 c 256
 611.543 758.353 648.718 819 779 819 c 258
 820.667 819 l 257
 820.667 703 l 257
 787.667 703 l 258
 758.729 703 752.409 688.847 752.409 676.362 c 256
 752.409 661.503 765.732 652 787.667 652 c 257
 818.667 652 l 257
 818.667 522 l 257
 800.667 522 l 257
 665.492 522 644 607.938 644 652 c 257
594 522 m 257
 594 652 l 257
 819 652 l 257
 819 522 l 257
 594 522 l 257
EndSplineSet
PickledDataWithLists: "(dp1
S'com.fontlab.hintData'
p2
(dp3
S'vhints'
p4
(lp5
(dp6
S'position'
p7
I30
sS'width'
p8
I138
sa(dp9
g7
I245
sg8
I100
sa(dp10
g7
I422
sg8
I141
sasS'hhints'
p11
(lp12
(dp13
g7
I-8
sg8
I140
sa(dp14
g7
I200
sg8
I2
sa(dp15
g7
I336
sg8
I138
sa(dp16
g7
I616
sg8
I138
sass."
Ligature2: "si_halant_1 subtable" si_Jha si_Halant
EndChar

StartChar: si_JhI
Encoding: 162 -1 162
GlifName: si_J_hI_
Width: 1138
VWidth: 0
GlyphClass: 3
Flags: W
LayerCount: 2
Back
Fore
SplineSet
574.999 261.926 m 258
 574.999 343.692 589.667 454 785.667 454 c 257
 808 384 l 257
 808 336 l 257
 785.667 336 l 257
 745.667 336 713 322 713 262 c 258
 713 166 l 258
 713 154 722 132 752 132 c 256
 782 132 790 152.875 790 166 c 258
 790 202 l 257
 890 202 l 257
 890 166 l 258
 890 152.875 898 132 928 132 c 256
 958 132 967 154 967 166 c 258
 967 202 l 257
 1108 202 l 257
 1108 160 l 258
 1108 58 1041.38 -8 949 -8 c 256
 915.151 -8 873.925 3.4668 845 35 c 257
 821.108 3.4668 784.959 -8 757 -8 c 256
 650.004 -8 575 58 575 160 c 258
 574.999 261.926 l 258
872 522 m 257
 872 652 l 257
 876 652 l 257
 1035.64 652 1108 590 1108 474 c 258
 1108 200 l 257
 967 200 l 257
 967 454 l 258
 967 514 925.736 522 876 522 c 257
 872 522 l 257
30 439 m 257
 44 537 136.521 567 198 567 c 256
 270.694 567 320 533 337 502 c 257
 245 402 l 257
 245 437 214.169 446 198 446 c 256
 164.069 446 147 422.741 147 402 c 257
 30 439 l 257
30 160 m 257
 147 255 l 257
 165.91 239.066 180.861 220.713 180.88 202 c 257
 181 160 l 258
 181.054 141.248 195.791 131.885 210.521 131.885 c 256
 225.264 131.885 240 141.265 240 160 c 258
 240 202 l 257
 339.88 202 l 257
 340 162 l 258
 340.061 141.747 355.048 131.634 370.026 131.634 c 256
 385.017 131.634 400 141.765 400 162 c 258
 400.004 202.128 l 258
 400.004 233.327 393.873 258.736 351 276 c 257
 448.224 354.096 l 257
 511.602 326.931 529 279.827 529 218 c 258
 529 136 l 258
 529 47.0805 455.346 -7.17 384.539 -7.17 c 256
 349.123 -7.17 314.418 6.40316 290 36 c 257
 269.556 6.1516 237.054 -6.59313 203.041 -6.59313 c 256
 136.875 -6.59313 64.9877 41.6331 65 106 c 258
 65.0029 121.756 l 258
 65.0029 141.945 64.3154 161.906 41.2734 161.906 c 256
 37.9902 161.906 34.2529 161.3 30 160 c 257
30 160 m 257
 30 259 l 257
 335 509 l 257
 398.426 555.861 476.827 577.68 551.435 577.68 c 256
 685.875 577.68 808 506.833 808 384 c 257
 671 369 l 257
 659.397 416.572 606.732 442.604 548.153 442.604 c 256
 505.759 442.604 460.268 428.97 425 400 c 257
 155 181.392 l 257
 30 160 l 257
585.625 670.735 m 256
 585.625 744.907 644.625 819 763 819 c 257
 816 819 l 257
 816 703 l 257
 742 703 l 257
 721.5 703 711.25 690.25 711.25 677.5 c 256
 711.25 664.75 721.5 652 742 652 c 257
 814 652 l 257
 814 522 l 257
 763 522 l 257
 644.875 522 585.625 576.407 585.625 670.735 c 256
871.5 703 m 257
 871.5 819 l 257
 921 819 l 258
 1049.36 819 1094.33 756 1094.33 673 c 257
 959 673 l 257
 959 700 934.333 703 889 703 c 258
 871.5 703 l 257
EndSplineSet
Ligature2: "si_abvs_1 subtable" si_Jha si_MatraI
EndChar

StartChar: si_JhIi
Encoding: 163 -1 163
GlifName: si_J_hI_i
Width: 1138
VWidth: 0
GlyphClass: 3
Flags: W
LayerCount: 2
Back
Fore
SplineSet
574.999 261.926 m 258
 574.999 343.692 589.667 454 785.667 454 c 257
 808 384 l 257
 808 336 l 257
 785.667 336 l 257
 745.667 336 713 322 713 262 c 258
 713 166 l 258
 713 154 722 132 752 132 c 256
 782 132 790 152.875 790 166 c 258
 790 202 l 257
 890 202 l 257
 890 166 l 258
 890 152.875 898 132 928 132 c 256
 958 132 967 154 967 166 c 258
 967 202 l 257
 1108 202 l 257
 1108 160 l 258
 1108 58 1041.38 -8 949 -8 c 256
 915.151 -8 873.925 3.4668 845 35 c 257
 821.108 3.4668 784.959 -8 757 -8 c 256
 650.004 -8 575 58 575 160 c 258
 574.999 261.926 l 258
876 522 m 257
 876 645 l 257
 888.014 645 909.265 644.92 920.549 644.92 c 256
 1053.44 644.933 1108 596.257 1108 474 c 258
 1108 200 l 257
 967 200 l 257
 967 454 l 258
 967 514 925.736 522 876 522 c 257
30 439 m 257
 44 537 136.521 567 198 567 c 256
 270.694 567 320 533 337 502 c 257
 245 402 l 257
 245 437 214.169 446 198 446 c 256
 164.069 446 147 422.741 147 402 c 257
 30 439 l 257
30 160 m 257
 147 255 l 257
 165.91 239.066 180.861 220.713 180.88 202 c 257
 181 160 l 258
 181.054 141.248 195.791 131.885 210.521 131.885 c 256
 225.264 131.885 240 141.265 240 160 c 258
 240 202 l 257
 339.88 202 l 257
 340 162 l 258
 340.061 141.747 355.048 131.634 370.026 131.634 c 256
 385.017 131.634 400 141.765 400 162 c 258
 400.004 202.128 l 258
 400.004 233.327 393.873 258.736 351 276 c 257
 448.224 354.096 l 257
 511.602 326.931 529 279.827 529 218 c 258
 529 136 l 258
 529 47.0805 455.346 -7.17 384.539 -7.17 c 256
 349.123 -7.17 314.418 6.40316 290 36 c 257
 269.556 6.1516 237.054 -6.59313 203.041 -6.59313 c 256
 136.875 -6.59313 64.9877 41.6331 65 106 c 258
 65.0029 121.756 l 258
 65.0029 141.945 64.3154 161.906 41.2734 161.906 c 256
 37.9902 161.906 34.2529 161.3 30 160 c 257
30 160 m 257
 30 259 l 257
 335 509 l 257
 398.426 555.861 476.827 577.68 551.435 577.68 c 256
 685.875 577.68 808 506.833 808 384 c 257
 671 369 l 257
 659.397 416.572 606.732 442.604 548.153 442.604 c 256
 505.759 442.604 460.268 428.97 425 400 c 257
 155 181.392 l 257
 30 160 l 257
895 711 m 256
 895 771 943 819 1003 819 c 256
 1063 819 1111 771 1111 711 c 256
 1111 651 1063 603 1003 603 c 256
 943 603 895 651 895 711 c 256
876 703 m 257
 876 819 l 257
 1003 819 l 257
 1003 703 l 257
 876 703 l 257
762 645 m 258
 819.667 645 l 257
 819.667 522 l 257
 773 522 l 258
 654.849 522 595.625 596.374 595.625 670.686 c 256
 595.625 744.874 654.651 819 773 819 c 258
 820 819 l 257
 820 703 l 257
 762 703 l 258
 737.558 703 725.36 688.518 725.36 674.028 c 256
 725.36 659.518 737.589 645 762 645 c 258
EndSplineSet
Ligature2: "si_abvs_2 subtable" si_Jha si_MatraIi
EndChar

StartChar: si_JhU
Encoding: 164 -1 168
GlifName: si_J_hU_
Width: 1138
VWidth: 0
GlyphClass: 3
Flags: W
LayerCount: 2
Back
Fore
SplineSet
952 123 m 257
 1092 123 l 257
 1092 -205 l 257
 952 -205 l 257
 952 123 l 257
864 -65 m 257
 962 -65 l 257
 962 -205 l 257
 864 -205 l 257
 864 -65 l 257
596 -65 m 257
 808 -65 l 257
 808 -205 l 257
 596 -205 l 257
 596 -65 l 257
EndSplineSet
Refer: 172 3491 N 1 0 0 1 0 0 2
Ligature2: "si_blws_1 subtable" si_Jha si_MatraU
EndChar

StartChar: si_JhUu
Encoding: 165 -1 170
GlifName: si_J_hU_u
Width: 1138
VWidth: 0
GlyphClass: 3
Flags: W
LayerCount: 2
Back
Fore
SplineSet
600 -39 m 257
 626.334 -58.333 679.444 -64.7773 700.741 -64.7773 c 256
 743.334 -64.7773 768.667 -42 808 -42 c 257
 808 -182 l 257
 768.667 -182 743.334 -204.777 700.741 -204.777 c 256
 679.444 -204.777 626.334 -198.333 600 -179 c 257
 600 -39 l 257
952 123 m 257
 1092 123 l 257
 1092 -205 l 257
 952 -205 l 257
 952 123 l 257
864 -42 m 257
 881 -42 929.148 -46.167 952 -61 c 257
 952 -205 l 257
 926.106 -186.639 885 -182 864 -182 c 257
 864 -42 l 257
EndSplineSet
Refer: 172 3491 N 1 0 0 1 0 0 2
Ligature2: "si_blws_3 subtable" si_Jha si_MatraUu
EndChar

StartChar: si_Jha
Encoding: 30 3491 172
GlifName: si_J_ha
Width: 1138
VWidth: 0
GlyphClass: 2
Flags: W
HStem: -8 140<737 767 737 770.979 932.075 943> 200 2<967 1108> 336 138 616 138
VStem: 30 138 245 100 422 141
LayerCount: 2
Back
Fore
SplineSet
30 160 m 257
 147 255 l 257
 165.91 239.066 180.861 220.713 180.88 202 c 257
 181 160 l 258
 181.054 141.248 195.791 131.885 210.521 131.885 c 256
 225.264 131.885 240 141.265 240 160 c 258
 240 202 l 257
 339.88 202 l 257
 340 162 l 258
 340.061 141.747 355.048 131.634 370.026 131.634 c 256
 385.017 131.634 400 141.765 400 162 c 258
 400.004 202.128 l 258
 400.004 233.327 393.873 258.737 351 276 c 257
 448.224 354.096 l 257
 511.602 326.931 529 279.827 529 218 c 258
 529 136 l 258
 529 47.0805 455.346 -7.17 384.54 -7.17 c 256
 349.123 -7.17 314.418 6.40316 290 36 c 257
 269.556 6.1516 237.055 -6.59313 203.041 -6.59313 c 256
 136.876 -6.59313 64.988 41.6331 65 106 c 258
 65.0029 121.756 l 258
 65.0029 141.945 64.3154 161.906 41.2734 161.906 c 256
 37.9902 161.906 34.2529 161.3 30 160 c 257
757 -8 m 256
 650.004 -8 575 58 575 160 c 258
 574.999 261.926 l 258
 574.999 343.692 589.667 454 785.667 454 c 257
 808 384 l 257
 808 336 l 257
 785.667 336 l 257
 745.667 336 713 322 713 262 c 258
 713 166 l 258
 713 154 722 132 752 132 c 256
 782 132 790 152.875 790 166 c 258
 790 202 l 257
 890 202 l 257
 890 166 l 258
 890 152.875 898 132 928 132 c 256
 958 132 967 154 967 166 c 258
 967 202 l 257
 1108 202 l 257
 1108 160 l 258
 1108 58 1041.38 -8 949 -8 c 256
 915.151 -8 873.925 3.4668 845 35 c 257
 821.108 3.4668 784.959 -8 757 -8 c 256
30 160 m 257
 30 259 l 257
 335 509 l 257
 398.426 555.861 476.827 577.68 551.435 577.68 c 256
 685.875 577.68 808 506.833 808 384 c 257
 671 369 l 257
 659.397 416.572 606.732 442.604 548.153 442.604 c 256
 505.759 442.604 460.268 428.97 425 400 c 257
 155 181.392 l 257
 30 160 l 257
967 200 m 257
 967 498 l 258
 967 576.997 950.604 616 874 616 c 257
 864 616 l 257
 864 755 l 257
 874 755 l 257
 1007.7 755 1108 699.969 1108 520 c 258
 1108 200 l 257
 967 200 l 257
30 439 m 257
 44 537 136.521 567 198 567 c 256
 270.695 567 320 533 337 502 c 257
 245 402 l 257
 245 437 214.169 446 198 446 c 256
 164.069 446 147 422.741 147 402 c 257
 30 439 l 257
597.939 636.534 m 257
 632.832 706.657 716.296 755 797.667 755 c 257
 808 755 l 257
 808 616.5 l 257
 797.667 616.5 l 257
 773.17 616.5 749.095 608.868 733.934 588.211 c 257
 597.939 636.534 l 257
EndSplineSet
PickledDataWithLists: "(dp1
S'com.fontlab.hintData'
p2
(dp3
S'vhints'
p4
(lp5
(dp6
S'position'
p7
I30
sS'width'
p8
I138
sa(dp9
g7
I245
sg8
I100
sa(dp10
g7
I422
sg8
I141
sasS'hhints'
p11
(lp12
(dp13
g7
I-8
sg8
I140
sa(dp14
g7
I200
sg8
I2
sa(dp15
g7
I336
sg8
I138
sa(dp16
g7
I616
sg8
I138
sass."
EndChar

StartChar: si_Jnya
Encoding: 32 3493 183
GlifName: si_J_nya
Width: 1053
VWidth: 0
GlyphClass: 2
Flags: W
HStem: -8 143<394.944 421 394.944 421 477 503.264 394.944 535.344> 421 143<199.23 421 351.352 421 351.352 421 394.944 421 628 656>
VStem: 224 141 448 139<240.5 350 240.5 409.004> 531 124<105.668 196.519> 740 141
LayerCount: 2
Back
Fore
SplineSet
790 -8 m 258
 652.242 -8 583.006 88.2024 583.006 183.413 c 256
 583.006 276.682 649.447 369 783 369 c 258
 833 369 l 257
 833 436.458823529 724.14 420.396 711 420.396 c 256
 711 564.392 l 257
 798 564 976 565 976 369 c 258
 976 234 l 257
 789 234 l 258
 741.407 234 718.57 208.434 718.57 182.414 c 256
 718.57 155.451 743.091 128 790 128 c 256
 812.223 128 822.977 128 827 128 c 256
 859.728 128 889 132 902 164 c 257
 1030 130 l 257
 1005 44 919.826 -7.86816 827 -8 c 258
 790 -8 l 258
30 197 m 258
 30 287 l 258
 30 452 60.9932 564.245 265.051 564.245 c 256
 316.372 564.245 369.684 564.082 421 564 c 257
 421 421 l 257
 224 421 l 258
 174.46 421 166 376 166 287 c 258
 166 197 l 258
 166 116.436 176.558 75.5967 241 -1 c 257
 111.039 -41 l 257
 51.3975 36.1836 30 106.444 30 197 c 258
465 241 m 257
 465 347 l 257
 565 347 l 257
 601.086 347 655 304.407 654.85 195 c 258
 655 166 l 258
 655 45.3369 593.689 -8 477 -8 c 257
 477 135 l 256
 529.527 135 531 170.963 531 188 c 256
 531 205.037 529.527 241 477 241 c 258
 465 241 l 257
421 -8 m 257
 281.704 -8 224.42 81.7373 224.079 198 c 258
 224.079 358 l 258
 224.42 474.263 281.704 564 421 564 c 257
 421 421 l 257
 368.888 421 365 375.857 365 348 c 258
 365 198 l 258
 365 173.959 368.888 135 421 135 c 257
 421 -8 l 257
448 241 m 256
 448 350 l 258
 448 468.007 484.062 564 628 564 c 257
 656 564 l 257
 656 421 l 257
 628 421 l 257
 582.192 421 587.466 376.492 586.835 350 c 258
 587 240.5 l 257
 448 241 l 256
900 -212 m 256
 780.999 -212 714 -144.261 714 -53 c 257
 851 -53 l 257
 851 -69.1494 871.289 -86 900 -86 c 256
 920.689 -86 944.827 -75.3711 950 -55 c 257
 1083 -89 l 257
 1061.12 -156.451 1005.5 -212 900 -212 c 256
EndSplineSet
PickledDataWithLists: "(dp1
S'com.fontlab.hintData'
p2
(dp3
S'vhints'
p4
(lp5
(dp6
S'position'
p7
I224
sS'width'
p8
I141
sa(dp9
g7
I448
sg8
I139
sa(dp10
g7
I531
sg8
I124
sa(dp11
g7
I740
sg8
I141
sasS'hhints'
p12
(lp13
(dp14
g7
I-8
sg8
I143
sa(dp15
g7
I421
sg8
I143
sass."
EndChar

StartChar: si_KRa
Encoding: 96 -1 189
GlifName: si_K_R_a
Width: 800
VWidth: 0
GlyphClass: 3
Flags: W
LayerCount: 2
Back
Fore
SplineSet
136 -47 m 257
 266 -47 l 257
 266 -84.543 370.16 -103.663 428.012 -103.663 c 256
 492.697 -103.663 620.89 -86.531 620.89 -43.6385 c 256
 620.89 -31.6245 619.683 -5 574 -5 c 257
 574 115 l 257
 734.985 115 753.003 18.3564 753.003 -47 c 256
 753.003 -180.135 565.689 -234.375 428.578 -234.375 c 256
 305.781 -234.375 136 -181.124 136 -75 c 258
 136 -47 l 257
EndSplineSet
Refer: 205 3482 N 1 0 0 1 0 0 2
Ligature2: "si_rakaar subtable" si_Ka si_Halant si_Ra
EndChar

StartChar: si_KSsIi
Encoding: 464 -1 192
GlifName: si_K_S_sI_i
Width: 1138
VWidth: 0
GlyphClass: 3
Flags: W
LayerCount: 2
Back
Fore
SplineSet
922 671 m 256
 922 736 975 789 1040 789 c 256
 1105 789 1158 736 1158 671 c 256
 1158 606 1105 553 1040 553 c 256
 975 553 922 606 922 671 c 256
622 602 m 257
 622 630 l 257
 621.623 723.409 698.741 789 798 789 c 257
 1040 789 l 257
 1040 659 l 256
 814 659 l 257
 787.143 658 752 654.112 752 602 c 257
 622 602 l 257
EndSplineSet
Refer: 195 -1 N 1 0 0 1 0 0 2
Ligature2: "si_abvs_6 subtable" si_KSsa si_MatraIi
EndChar

StartChar: si_KSsU
Encoding: 465 -1 193
GlifName: si_K_S_sU_
Width: 1204
VWidth: 0
GlyphClass: 3
Flags: W
LayerCount: 2
Back
Fore
SplineSet
1018 131 m 257
 1158 131 l 257
 1158 -205 l 257
 1018 -205 l 257
 1018 131 l 257
892 -65 m 257
 1028 -65 l 257
 1028 -205 l 257
 892 -205 l 257
 892 -65 l 257
600 -65 m 257
 836 -65 l 257
 836 -205 l 257
 600 -205 l 257
 600 -65 l 257
EndSplineSet
Refer: 195 -1 N 1 0 0 1 0 0 2
Ligature2: "si_blws_2 subtable" si_KSsa si_MatraU
EndChar

StartChar: si_KSsUu
Encoding: 466 -1 194
GlifName: si_K_S_sU_u
Width: 1138
VWidth: 0
GlyphClass: 3
Flags: W
LayerCount: 2
Back
Fore
SplineSet
600 -34 m 257
 640.479 -59.333 676.005 -67.7773 708.741 -67.7773 c 256
 754.603 -67.7773 792.647 -34 835 -34 c 257
 835 -174 l 257
 792.647 -174 754.603 -204.777 708.741 -204.777 c 256
 676.005 -204.777 640.479 -197.083 600 -174 c 257
 600 -34 l 257
1018 131 m 257
 1158 131 l 257
 1158 -205 l 257
 1018 -205 l 257
 1018 131 l 257
893 -34 m 257
 916.071 -34 986.987 -39.9219 1018 -61 c 257
 1018 -205 l 257
 982.858 -180.253 921.5 -174 893 -174 c 257
 893 -34 l 257
EndSplineSet
Refer: 195 -1 N 1 0 0 1 0 0 2
Ligature2: "si_blws_4 subtable" si_KSsa si_MatraUu
EndChar

StartChar: si_KSsa
Encoding: 451 -1 195
GlifName: si_K_S_sa
Width: 1138
VWidth: 0
GlyphClass: 3
Flags: W
LayerCount: 2
Back
Fore
SplineSet
812 397 m 257
 812 568 955.124 574.564 996.729 574.564 c 256
 1068.22 574.564 1135.97 536.524 1160 460 c 257
 1042 421 l 257
 1037.58 436 1022.78 451 995 451 c 256
 979.669 451 940 443.165 940 397 c 257
 940 378 l 257
 812 378 l 257
 812 397 l 257
788 168 m 257
 788 276.977 874 345 936 367 c 257
 1102 367 l 257
 1027 342 922 259.976 922 170 c 257
 788 168 l 257
574 202 m 257
 714 202 l 257
 714 148.801 755 123 818 123 c 258
 930 123 l 258
 995 123 1034 151 1034 202 c 257
 1174 202 l 257
 1174 64 1091 -12 922 -12 c 258
 829 -12 l 258
 652 -12 574 59.2461 574 202 c 257
575 251 m 257
 575 377.04 641 407 738 407 c 258
 1003 407 l 258
 1111 407 1174 381.172 1174 251 c 257
 1035 251 l 257
 1035 264.875 1035 288 1006 288 c 258
 749 288 l 258
 715.738 288 714.001 263.84 714 251 c 257
 575 251 l 257
30 439 m 257
 44 537 136.521 567 198 567 c 256
 270.695 567 320 533 337 502 c 257
 245 402 l 257
 245 437 214.169 446 198 446 c 256
 164.069 446 147 422.741 147 402 c 257
 30 439 l 257
30 160 m 257
 147 255 l 257
 165.91 239.066 180.861 220.713 180.88 202 c 257
 181 160 l 258
 181.054 141.248 195.791 131.885 210.521 131.885 c 256
 225.264 131.885 240 141.265 240 160 c 258
 240 202 l 257
 339.88 202 l 257
 340 162 l 258
 340.061 141.747 355.048 131.634 370.026 131.634 c 256
 385.017 131.634 400 141.765 400 162 c 258
 400.004 202.128 l 258
 400.004 233.327 393.873 258.737 351 276 c 257
 448.224 354.096 l 257
 511.602 326.931 529 279.827 529 218 c 258
 529 136 l 258
 529 47.0805 455.346 -7.17 384.54 -7.17 c 256
 349.123 -7.17 314.418 6.40316 290 36 c 257
 269.556 6.1516 237.055 -6.59313 203.041 -6.59313 c 256
 136.876 -6.59313 64.988 41.6331 65 106 c 258
 65.0029 121.756 l 258
 65.0029 141.945 64.3154 161.906 41.2734 161.906 c 256
 37.9902 161.906 34.2529 161.3 30 160 c 257
30 160 m 257
 30 259 l 257
 306 485 l 258
 404.461 565.624 526.529 598.363 636.193 598.363 c 256
 760.65 598.363 869.131 556.196 909 494 c 257
 812 405 l 257
 786.219 436.569 720.174 465.462 638.24 465.462 c 256
 564.447 465.462 477.765 442.026 396 376 c 258
 155 181.392 l 257
 30 160 l 257
EndSplineSet
Ligature2: "si_akhands subtable" si_Ka si_Halant si_Ssa
EndChar

StartChar: si_KU
Encoding: 92 -1 196
GlifName: si_K_U_
Width: 840
VWidth: 0
GlyphClass: 3
Flags: W
LayerCount: 2
Back
Fore
SplineSet
30 160 m 257
 30 259 l 257
 301 480 l 257
 360.89 541.665 444.691 573.854 524.916 573.854 c 256
 651.939 573.854 770 493.158 770 321 c 258
 770 145 l 256
 630 145 l 256
 630 307 l 258
 630 382.237 572.398 433.629 509.089 433.629 c 256
 480.642 433.629 451.043 423.253 425 400 c 257
 155 181.392 l 257
 30 160 l 257
30 160 m 257
 147 255 l 257
 165.91 239.066 180.861 220.713 180.88 202 c 257
 181 160 l 258
 181.054 141.248 196.04 131.885 211.02 131.885 c 256
 226.014 131.885 241 141.265 241 160 c 258
 241 202 l 257
 340.88 202 l 257
 341 162 l 258
 341.061 141.566 355.711 131.452 370.396 131.452 c 256
 385.18 131.452 400 141.705 400 162 c 258
 400.004 202.128 l 258
 400.004 233.327 393.873 258.737 351 276 c 257
 448.224 354.096 l 257
 511.602 326.931 529 279.827 529 218 c 258
 529 136 l 258
 529 47.0805 455.654 -7.17 385.144 -7.17 c 256
 349.875 -7.17 315.316 6.40316 291 36 c 257
 270.465 6.1516 237.819 -6.59313 203.654 -6.59313 c 256
 137.195 -6.59313 64.988 41.6331 65 106 c 258
 65.0029 121.756 l 258
 65.0029 141.945 64.3154 161.906 41.2734 161.906 c 256
 37.9902 161.906 34.2529 161.3 30 160 c 257
30 439 m 257
 44 537 136.521 567 198 567 c 256
 270.695 567 320 533 337 502 c 257
 245 402 l 257
 245 437 214.169 446 198 446 c 256
 164.069 446 147 422.741 147 402 c 257
 30 439 l 257
553 19 m 258
 552.854 147.379 641.365 197.003 748.19 197.003 c 256
 755.23 197.003 762.533 197.002 770 197 c 257
 770 54 l 257
 765.681 54 757.854 54 749 54 c 256
 725.14 54 694.857 44.0756 694.018 -2.98413 c 258
 694.022 -7.23579 l 258
 694.951 -54.1065 725.178 -64 749 -64 c 256
 757.854 -64 765.681 -64 770 -64 c 257
 770 -205 l 257
 762.533 -205.002 755.23 -205.003 748.19 -205.003 c 256
 641.365 -205.003 552.854 -155.936 553 -29 c 258
 553 19 l 258
EndSplineSet
Ligature2: "si_blws_1 subtable" si_Ka si_MatraU
EndChar

StartChar: si_KUu
Encoding: 93 -1 198
GlifName: si_K_U_u
Width: 834
VWidth: 0
GlyphClass: 3
Flags: W
HStem: -205 205 -205 114 0 70 122 80 191 11<630 718 630 630> 446 121<181.034 206.084>
VStem: 239 100 400 129<151.882 162> 591 217 630 140<250 250 250 307 250 250 307 321 250 344.619>
LayerCount: 2
Back
Fore
SplineSet
571 202 m 257
 611.846 202 630.118 217.393 630 250 c 257
 770 250 l 257
 770.021 237.393 769.555 214 760 202 c 257
 571 202 l 257
593.945 -31 m 258
 593.92 -1.08734 595.839 5 607 20 c 256
 784 20 l 257
 776.741 20 769.654 20 763 20 c 256
 743.469 20 734 11.3271 734 -18 c 258
 734 -47 l 258
 734.12 -66.833 744.776 -75 767 -75 c 256
 780.071 -75 791.624 -75 798 -75 c 257
 798 -205 l 257
 726.19 -205.003 l 258
 670.066 -205.003 594 -162.81 594 -75 c 258
 593.945 -31 l 258
571 90 m 257
 628 132 l 257
 808 132 l 257
 751 90 l 257
 571 90 l 257
571 132 m 257
 571 202 l 257
 808 202 l 257
 808 132 l 257
 571 132 l 257
571 20 m 257
 571 90 l 257
 808 90 l 257
 808 20 l 257
 571 20 l 257
30 439 m 257
 44 537 136.521 567 198 567 c 256
 270.695 567 320 533 337 502 c 257
 245 402 l 257
 245 437 214.169 446 198 446 c 256
 164.069 446 147 422.741 147 402 c 257
 30 439 l 257
30 160 m 257
 147 255 l 257
 165.91 239.066 180.861 220.713 180.88 202 c 257
 181 160 l 258
 181.055 141.248 195.792 131.885 210.521 131.885 c 256
 225.264 131.885 240 141.265 240 160 c 258
 240 202 l 257
 339.88 202 l 257
 340 162 l 258
 340.06 141.747 355.047 131.634 370.025 131.634 c 256
 385.017 131.634 400 141.765 400 162 c 258
 400.004 202.128 l 258
 400.004 233.327 393.873 258.737 351 276 c 257
 448.224 354.096 l 257
 511.602 326.931 529 279.827 529 218 c 258
 529 136 l 258
 529 47.0805 455.346 -7.17 384.54 -7.17 c 256
 349.123 -7.17 314.418 6.40316 290 36 c 257
 269.556 6.1516 237.055 -6.59313 203.041 -6.59313 c 256
 136.876 -6.59313 64.988 41.6331 65 106 c 258
 65.0029 121.756 l 258
 65.0029 141.945 64.3154 161.906 41.2734 161.906 c 256
 37.9902 161.906 34.2529 161.3 30 160 c 257
30 160 m 257
 30 259 l 257
 301 480 l 257
 360.89 541.665 444.691 573.854 524.916 573.854 c 256
 651.939 573.854 770 493.158 770 321 c 258
 770 250 l 257
 718 191 l 256
 630 191 l 256
 630 307 l 258
 630 382.237 572.398 433.629 509.089 433.629 c 256
 480.642 433.629 451.043 423.253 425 400 c 257
 155 181.392 l 257
 30 160 l 257
EndSplineSet
PickledDataWithLists: "(dp1
S'com.fontlab.hintData'
p2
(dp3
S'vhints'
p4
(lp5
(dp6
S'position'
p7
I239
sS'width'
p8
I100
sa(dp9
g7
I400
sg8
I129
sa(dp10
g7
I591
sg8
I217
sa(dp11
g7
I630
sg8
I140
sasS'hhints'
p12
(lp13
(dp14
g7
I-205
sg8
I205
sa(dp15
g7
I-205
sg8
I114
sa(dp16
g7
I0
sg8
I70
sa(dp17
g7
I122
sg8
I80
sa(dp18
g7
I191
sg8
I11
sa(dp19
g7
I446
sg8
I121
sass."
Ligature2: "si_blws_3 subtable" si_Ka si_MatraUu
EndChar

StartChar: si_KV.halant
Encoding: 467 -1 199
GlifName: si_K_V_.halant
Width: 1138
VWidth: 0
GlyphClass: 2
Flags: W
LayerCount: 2
Back
Fore
SplineSet
846.167 703 m 257
 846.167 819 l 257
 891.667 819 l 258
 1040.03 819 1065 756 1065 673 c 257
 929.667 673 l 257
 929.667 700 905 703 859.667 703 c 258
 846.167 703 l 257
614 652 m 257
 597.708 652 581.543 678.371 581.543 710.154 c 256
 581.543 758.353 618.718 819 749 819 c 258
 790.667 819 l 257
 790.667 703 l 257
 757.667 703 l 258
 728.729 703 722.409 688.847 722.409 676.362 c 256
 722.409 661.503 735.732 652 757.667 652 c 257
 788.667 652 l 257
 788.667 522 l 257
 770.667 522 l 257
 635.492 522 614 607.938 614 652 c 257
564 522 m 257
 564 652 l 257
 789 652 l 257
 789 522 l 257
 564 522 l 257
843 -5 m 257
 843 135 l 257
 885.411 135 937 149 937 250 c 258
 937 455 l 258
 937 514 896.403 522 846.667 522 c 257
 846.667 652 l 257
 1006.3 652 1078 590 1078 474 c 258
 1078 250 l 258
 1078 78 997.968 -4.83398 843 -5 c 257
30 439 m 257
 44 537 136.521 567 198 567 c 256
 270.694 567 320 533 337 502 c 257
 245 402 l 257
 245 437 214.169 446 198 446 c 256
 164.069 446 147 422.741 147 402 c 257
 30 439 l 257
30 160 m 257
 147 255 l 257
 165.91 239.066 180.861 220.713 180.88 202 c 257
 181 160 l 258
 181.054 141.248 195.791 131.885 210.521 131.885 c 256
 225.264 131.885 240 141.265 240 160 c 258
 240 202 l 257
 339.88 202 l 257
 340 162 l 258
 340.061 141.747 355.048 131.634 370.026 131.634 c 256
 385.017 131.634 400 141.765 400 162 c 258
 400.004 202.128 l 258
 400.004 233.327 393.873 258.736 351 276 c 257
 448.224 354.096 l 257
 511.602 326.931 529 279.827 529 218 c 258
 529 136 l 258
 529 47.0805 455.346 -7.17 384.539 -7.17 c 256
 349.123 -7.17 314.418 6.40316 290 36 c 257
 269.556 6.1516 237.054 -6.59313 203.041 -6.59313 c 256
 136.875 -6.59313 64.9877 41.6331 65 106 c 258
 65.0029 121.756 l 258
 65.0029 141.945 64.3154 161.906 41.2734 161.906 c 256
 37.9902 161.906 34.2529 161.3 30 160 c 257
30 160 m 257
 30 259 l 257
 335 509 l 257
 395.88 558.871 475.743 581.892 554.539 581.892 c 256
 700.582 581.892 842.958 502.807 854 369 c 257
 854 252 l 257
 770 252 l 258
 740 252 711 242 711 195 c 256
 711 165.781 733.503 135 787 135 c 257
 787 -5 l 257
 659.558 -5 573 87.2324 573 192 c 256
 573 278.105 607.443 353.071 715 369 c 257
 707.84 418.524 644.072 452.739 571.069 452.739 c 256
 521.722 452.739 468.156 437.106 425 400 c 257
 155 181.392 l 257
 30 160 l 257
EndSplineSet
EndChar

StartChar: si_KVI
Encoding: 468 -1 200
GlifName: si_K_V_I_
Width: 1138
VWidth: 0
GlyphClass: 3
Flags: W
LayerCount: 2
Back
Fore
SplineSet
843 -5 m 257
 843 135 l 257
 885.411 135 937 149 937 250 c 258
 937 455 l 258
 937 514 896.403 522 846.667 522 c 257
 846.667 652 l 257
 1006.3 652 1078 590 1078 474 c 258
 1078 250 l 258
 1078 78 997.968 -4.83398 843 -5 c 257
30 439 m 257
 44 537 136.521 567 198 567 c 256
 270.694 567 320 533 337 502 c 257
 245 402 l 257
 245 437 214.169 446 198 446 c 256
 164.069 446 147 422.741 147 402 c 257
 30 439 l 257
30 160 m 257
 147 255 l 257
 165.91 239.066 180.861 220.713 180.88 202 c 257
 181 160 l 258
 181.054 141.248 195.791 131.885 210.521 131.885 c 256
 225.264 131.885 240 141.265 240 160 c 258
 240 202 l 257
 339.88 202 l 257
 340 162 l 258
 340.061 141.747 355.048 131.634 370.026 131.634 c 256
 385.017 131.634 400 141.765 400 162 c 258
 400.004 202.128 l 258
 400.004 233.327 393.873 258.736 351 276 c 257
 448.224 354.096 l 257
 511.602 326.931 529 279.827 529 218 c 258
 529 136 l 258
 529 47.0805 455.346 -7.17 384.539 -7.17 c 256
 349.123 -7.17 314.418 6.40316 290 36 c 257
 269.556 6.1516 237.054 -6.59313 203.041 -6.59313 c 256
 136.875 -6.59313 64.9877 41.6331 65 106 c 258
 65.0029 121.756 l 258
 65.0029 141.945 64.3154 161.906 41.2734 161.906 c 256
 37.9902 161.906 34.2529 161.3 30 160 c 257
30 160 m 257
 30 259 l 257
 335 509 l 257
 395.88 558.871 475.743 581.892 554.539 581.892 c 256
 700.582 581.892 842.958 502.807 854 369 c 257
 854 252 l 257
 770 252 l 258
 740 252 711 242 711 195 c 256
 711 165.781 733.503 135 787 135 c 257
 787 -5 l 257
 659.558 -5 573 87.2324 573 192 c 256
 573 278.105 607.443 353.071 715 369 c 257
 707.84 418.524 644.072 452.739 571.069 452.739 c 256
 521.722 452.739 468.156 437.106 425 400 c 257
 155 181.392 l 257
 30 160 l 257
560.625 670.735 m 256
 560.625 744.907 619.625 819 738 819 c 257
 791 819 l 257
 791 703 l 257
 717 703 l 257
 696.5 703 686.25 690.25 686.25 677.5 c 256
 686.25 664.75 696.5 652 717 652 c 257
 789 652 l 257
 789 522 l 257
 738 522 l 257
 619.875 522 560.625 576.407 560.625 670.735 c 256
846.5 703 m 257
 846.5 819 l 257
 896 819 l 258
 1024.36 819 1069.33 756 1069.33 673 c 257
 934 673 l 257
 934 700 909.333 703 864 703 c 258
 846.5 703 l 257
EndSplineSet
Ligature2: "si_abvs_5 subtable" si_KVa si_MatraI
EndChar

StartChar: si_KVIi
Encoding: 469 -1 201
GlifName: si_K_V_I_i
Width: 1138
VWidth: 0
GlyphClass: 3
Flags: W
LayerCount: 2
Back
Fore
SplineSet
843 -5 m 257
 843 135 l 257
 885.411 135 937 149 937 250 c 258
 937 454 l 258
 937 514 895.736 522 846 522 c 257
 846 645 l 257
 858.033 645 879.331 644.92 890.602 644.92 c 256
 1023.46 644.931 1078 596.229 1078 474 c 258
 1078 250 l 258
 1078 78 997.968 -4.83398 843 -5 c 257
865 711 m 256
 865 771 913 819 973 819 c 256
 1033 819 1081 771 1081 711 c 256
 1081 651 1033 603 973 603 c 256
 913 603 865 651 865 711 c 256
846 703 m 257
 846 819 l 257
 973 819 l 257
 973 703 l 257
 846 703 l 257
732 645 m 258
 789.667 645 l 257
 789.667 522 l 257
 743 522 l 258
 624.849 522 565.625 596.374 565.625 670.686 c 256
 565.625 744.874 624.651 819 743 819 c 258
 790 819 l 257
 790 703 l 257
 732 703 l 258
 707.558 703 695.36 688.518 695.36 674.028 c 256
 695.36 659.518 707.589 645 732 645 c 258
30 439 m 257
 44 537 136.521 567 198 567 c 256
 270.694 567 320 533 337 502 c 257
 245 402 l 257
 245 437 214.169 446 198 446 c 256
 164.069 446 147 422.741 147 402 c 257
 30 439 l 257
30 160 m 257
 147 255 l 257
 165.91 239.066 180.861 220.713 180.88 202 c 257
 181 160 l 258
 181.054 141.248 195.791 131.885 210.521 131.885 c 256
 225.264 131.885 240 141.265 240 160 c 258
 240 202 l 257
 339.88 202 l 257
 340 162 l 258
 340.061 141.747 355.048 131.634 370.026 131.634 c 256
 385.017 131.634 400 141.765 400 162 c 258
 400.004 202.128 l 258
 400.004 233.327 393.873 258.736 351 276 c 257
 448.224 354.096 l 257
 511.602 326.931 529 279.827 529 218 c 258
 529 136 l 258
 529 47.0805 455.346 -7.17 384.539 -7.17 c 256
 349.123 -7.17 314.418 6.40316 290 36 c 257
 269.556 6.1516 237.054 -6.59313 203.041 -6.59313 c 256
 136.875 -6.59313 64.9877 41.6331 65 106 c 258
 65.0029 121.756 l 258
 65.0029 141.945 64.3154 161.906 41.2734 161.906 c 256
 37.9902 161.906 34.2529 161.3 30 160 c 257
30 160 m 257
 30 259 l 257
 335 509 l 257
 395.88 558.871 475.743 581.892 554.539 581.892 c 256
 700.582 581.892 842.958 502.807 854 369 c 257
 854 252 l 257
 770 252 l 258
 740 252 711 242 711 195 c 256
 711 165.781 733.503 135 787 135 c 257
 787 -5 l 257
 659.558 -5 573 87.2324 573 192 c 256
 573 278.105 607.443 353.071 715 369 c 257
 707.84 418.524 644.072 452.739 571.069 452.739 c 256
 521.722 452.739 468.156 437.106 425 400 c 257
 155 181.392 l 257
 30 160 l 257
EndSplineSet
Ligature2: "si_abvs_6 subtable" si_KVa si_MatraIi
EndChar

StartChar: si_KVa
Encoding: 452 -1 204
GlifName: si_K_V_a
Width: 1138
VWidth: 0
GlyphClass: 3
Flags: W
HStem: -5 140<760.252 787 760.252 787 760.252 843> 399 102 616 138
VStem: 33 138 398 140
LayerCount: 2
Back
Fore
SplineSet
594.838 650.188 m 257
 739.061 603.413 l 257
 752.888 612.755 769.84 616.5 787 616.5 c 257
 787 755 l 257
 711.024 755 633.224 712.855 594.838 650.188 c 257
843 -5 m 257
 997.968 -4.83398 1078 78.4932 1078 250 c 258
 1078 520 l 258
 1078 699.969 977.272 755 843 755 c 257
 843 616 l 257
 921.252 616 938 577 938 498 c 258
 938 250 l 258
 938 149.137 885.411 135 843 135 c 257
 843 -5 l 257
30 439 m 257
 44 537 136.521 567 198 567 c 256
 270.695 567 320 533 337 502 c 257
 245 402 l 257
 245 437 214.169 446 198 446 c 256
 164.069 446 147 422.741 147 402 c 257
 30 439 l 257
30 160 m 257
 147 255 l 257
 165.91 239.066 180.861 220.713 180.88 202 c 257
 181 160 l 258
 181.054 141.248 195.791 131.885 210.521 131.885 c 256
 225.264 131.885 240 141.265 240 160 c 258
 240 202 l 257
 339.88 202 l 257
 340 162 l 258
 340.061 141.747 355.048 131.634 370.026 131.634 c 256
 385.017 131.634 400 141.765 400 162 c 258
 400.004 202.128 l 258
 400.004 233.327 393.873 258.737 351 276 c 257
 448.224 354.096 l 257
 511.602 326.931 529 279.827 529 218 c 258
 529 136 l 258
 529 47.0805 455.346 -7.17 384.54 -7.17 c 256
 349.123 -7.17 314.418 6.40316 290 36 c 257
 269.556 6.1516 237.055 -6.59313 203.041 -6.59313 c 256
 136.876 -6.59313 64.988 41.6331 65 106 c 258
 65.0029 121.756 l 258
 65.0029 141.945 64.3154 161.906 41.2734 161.906 c 256
 37.9902 161.906 34.2529 161.3 30 160 c 257
30 160 m 257
 30 259 l 257
 335 509 l 257
 400.463 562.625 487.876 589.467 572.309 589.467 c 256
 711.932 589.467 843.406 516.066 854 369 c 257
 854 252 l 257
 770 252 l 258
 740 252 711 242 711 195 c 256
 711 165.781 733.503 135 787 135 c 257
 787 -5 l 257
 659.558 -5 573 87.2324 573 192 c 256
 573 278.105 607.444 353.071 715 369 c 257
 699.27 416.191 635.587 451.303 564.037 451.303 c 256
 517.327 451.303 467.263 436.338 425 400 c 257
 155 181.392 l 257
 30 160 l 257
EndSplineSet
PickledDataWithLists: "(dp1
S'com.fontlab.hintData'
p2
(dp3
S'vhints'
p4
(lp5
(dp6
S'position'
p7
I33
sS'width'
p8
I138
sa(dp9
g7
I398
sg8
I140
sasS'hhints'
p10
(lp11
(dp12
g7
I-5
sg8
I140
sa(dp13
g7
I399
sg8
I102
sa(dp14
g7
I616
sg8
I138
sass."
Ligature2: "si_akhands subtable" si_Ka si_Halant si_Va
EndChar

StartChar: si_Ka
Encoding: 21 3482 205
GlifName: si_K_a
Width: 800
VWidth: 0
GlyphClass: 2
Flags: W
LayerCount: 2
Back
Fore
SplineSet
30 439 m 257
 44 537 136.521 567 198 567 c 256
 270.695 567 320 533 337 502 c 257
 245 402 l 257
 245 437 214.169 446 198 446 c 256
 164.069 446 147 422.741 147 402 c 257
 30 439 l 257
30 160 m 257
 147 255 l 257
 165.91 239.066 180.861 220.713 180.88 202 c 257
 181 160 l 258
 181.054 141.248 195.791 131.885 210.521 131.885 c 256
 225.264 131.885 240 141.265 240 160 c 258
 240 202 l 257
 339.88 202 l 257
 340 162 l 258
 340.061 141.747 355.048 131.634 370.026 131.634 c 256
 385.017 131.634 400 141.765 400 162 c 258
 400.004 202.128 l 258
 400.004 233.327 393.873 258.737 351 276 c 257
 448.224 354.096 l 257
 511.602 326.931 529 279.827 529 218 c 258
 529 136 l 258
 529 47.0805 455.346 -7.17 384.54 -7.17 c 256
 349.123 -7.17 314.418 6.40316 290 36 c 257
 269.556 6.1516 237.055 -6.59313 203.041 -6.59313 c 256
 136.876 -6.59313 64.988 41.6331 65 106 c 258
 65.0029 121.756 l 258
 65.0029 141.945 64.3154 161.906 41.2734 161.906 c 256
 37.9902 161.906 34.2529 161.3 30 160 c 257
30 160 m 257
 30 259 l 257
 301 480 l 257
 360.89 541.665 444.691 573.854 524.916 573.854 c 256
 651.939 573.854 770 493.158 770 321 c 258
 770 205 l 258
 769.58 88.7373 713.296 -1 574 -1 c 257
 574 142 l 257
 626.112 142 630 180.959 630 205 c 258
 630 307 l 258
 630 382.237 572.398 433.629 509.089 433.629 c 256
 480.642 433.629 451.043 423.253 425 400 c 257
 155 181.392 l 257
 30 160 l 257
EndSplineSet
EndChar

StartChar: si_Kh.halant
Encoding: 99 -1 207
GlifName: si_K_h.halant
Width: 622
VWidth: 0
GlyphClass: 3
Flags: W
LayerCount: 2
Back
Fore
SplineSet
30 189 m 258
 30 92 58 0 210 0 c 257
 211 140 l 257
 166.264 140 162 166 162 202 c 258
 162 251 l 258
 162 291 169 314 210 314 c 256
 256 314 257.03 280.509 257 251 c 258
 257 8 l 257
 257 -65 l 257
 392 -65 l 257
 392 290 l 258
 392 423 293 452 229 452 c 256
 112.911 452 30.0156 396.719 30 273 c 258
 30 189 l 258
344 512 m 257
 392.392 512 452 503.936 452 445 c 258
 452 200 l 258
 452 157 452 140 423 140 c 256
 392.206 140 392 155 392 192 c 258
 392 222 l 257
 382 222 l 257
 382 14 l 257
 382 0 433.101 0 448 0 c 256
 555 0 592 95 592 198 c 258
 592 474 l 258
 592 589.89 503.638 652 344 652 c 257
 344 512 l 257
64.333 512 m 257
 266.333 512 l 257
 266.333 652 l 257
 64.333 652 l 257
 64.333 512 l 257
336.5 703 m 257
 336.5 819 l 257
 409 819 l 258
 557.359 819 582.333 756 582.333 673 c 257
 447 673 l 257
 447 700 422.333 703 377 703 c 258
 336.5 703 l 257
69.9863 710.889 m 256
 69.9863 689.662 78.9043 668.715 99.8486 651.652 c 257
 99.8486 604.192 112.825 512 248 512 c 258
 256 512 l 257
 344 512 l 257
 344 652 l 257
 256 652 l 257
 235 652 l 258
 213.065 652 199.742 661.503 199.742 676.362 c 256
 199.742 688.847 206.062 703 235 703 c 258
 280 703 l 257
 280 819 l 257
 189 819 l 258
 125.96 819 69.9863 764.067 69.9863 710.889 c 256
EndSplineSet
Ligature2: "si_halant_1 subtable" si_Kha si_Halant
EndChar

StartChar: si_KhI
Encoding: 100 -1 208
GlifName: si_K_hI_
Width: 623
VWidth: 0
GlyphClass: 3
Flags: W
HStem: 0 21<140 216> 616 138
VStem: 32 135<189 202 202 261 184 273 184 333.86> 262 135<-65 8 8 261 134 222 222 222 261 278.473> 457 140<176 199 199 445 445 474>
LayerCount: 2
Back
Fore
SplineSet
35.292 670.735 m 256
 35.292 744.907 94.292 819 212.667 819 c 257
 269.667 819 l 257
 269.667 703 l 257
 191.667 703 l 257
 171.167 703 160.917 690.25 160.917 677.5 c 256
 160.917 664.75 171.167 652 191.667 652 c 257
 247.667 652 l 257
 365.667 652 l 257
 365.667 512 l 257
 247.667 512 l 257
 212.667 512 l 257
 94.542 512 35.292 570.065 35.292 670.735 c 256
325.167 703 m 257
 325.167 819 l 257
 410.667 819 l 258
 539.026 819 584 756 584 673 c 257
 448.667 673 l 257
 448.667 700 424 703 378.667 703 c 258
 325.167 703 l 257
262 134 m 258
 262 222 l 257
 397 222 l 257
 397 176 l 258
 397 155.161 411.836 144.909 426.754 144.909 c 256
 441.836 144.909 457 155.388 457 176 c 258
 457 445 l 258
 457 504 415.403 512 365.667 512 c 257
 365.667 652 l 257
 525.305 652 597 590 597 474 c 258
 597 199 l 258
 597 47.6332 521.098 -6.72454 441.553 -6.72454 c 256
 353.984 -6.72454 262 59.1509 262 134 c 258
32 189 m 258
 32 273 l 258
 32 394.719 127.151 452.114 220.289 452.114 c 256
 309.569 452.114 397 399.376 397 300 c 258
 397 -65 l 257
 262 -65 l 257
 262 8 l 257
 262 261 l 258
 262 295.946 238.643 312.998 215.092 312.998 c 256
 191.146 312.998 167 295.37 167 261 c 258
 167 202 l 258
 167 166 171.264 140 216 140 c 257
 216 0 l 257
 64 0 32 92 32 189 c 258
EndSplineSet
PickledDataWithLists: "(dp1
S'com.fontlab.hintData'
p2
(dp3
S'vhints'
p4
(lp5
(dp6
S'position'
p7
I32
sS'width'
p8
I135
sa(dp9
g7
I262
sg8
I135
sa(dp10
g7
I457
sg8
I140
sasS'hhints'
p11
(lp12
(dp13
g7
I0
sg8
I21
sa(dp14
g7
I616
sg8
I138
sass."
Ligature2: "si_abvs_1 subtable" si_Kha si_MatraI
EndChar

StartChar: si_KhIi
Encoding: 101 -1 209
GlifName: si_K_hI_i
Width: 623
VWidth: 0
GlyphClass: 3
Flags: HWO
HStem: 0 21<140 216> 616 138
VStem: 32 135<189 202 202 261 184 273 184 333.86> 262 135<-65 8 8 261 134 222 222 222 261 278.473> 457 140<176 199 199 438 438 467.5>
LayerCount: 2
Back
Fore
SplineSet
384.666992188 691 m 256
 384.666992188 751 432.666992188 799 492.666992188 799 c 256
 552.666992188 799 600.666992188 751 600.666992188 691 c 256
 600.666992188 631 552.666992188 583 492.666992188 583 c 256
 432.666992188 583 384.666992188 631 384.666992188 691 c 256
315.666992188 703 m 257
 315.666992188 819 l 257
 445.666992188 819 l 261
 508.400390625 818.932617188 600.666992188 801.358398438 600.666992188 691 c 0
 491 644 l 1
 491 691 461 703 442.666992188 703 c 261
 315.666992188 703 l 257
211.667 645 m 258
 257.667 645 l 257
 369.667 645 l 257
 369.667 505 l 257
 257.667 505 l 257
 222.667 505 l 258
 104.516 505 45.2919 583.631 45.2919 662.197 c 256
 45.2919 740.631 104.318 819 222.667 819 c 258
 259.667 819 l 257
 259.667 703 l 257
 211.667 703 l 258
 187.225 703 175.027 688.518 175.027 674.028 c 256
 175.027 659.518 187.256 645 211.667 645 c 258
262 134 m 258
 262 222 l 257
 397 222 l 257
 397 176 l 258
 397 155.161 411.836 144.909 426.754 144.909 c 256
 441.836 144.909 457 155.388 457 176 c 258
 457 438 l 258
 457 497 415.403 505 365.667 505 c 257
 365.667 645 l 257
 377.681 645 398.932 644.92 410.216 644.92 c 256
 543.109 644.933 597 596.258 597 474 c 258
 597 199 l 258
 597 47.6332 521.098 -6.72454 441.553 -6.72454 c 256
 353.984 -6.72454 262 59.1509 262 134 c 258
32 189 m 258
 32 273 l 258
 32 394.719 127.151 452.114 220.289 452.114 c 256
 309.569 452.114 397 399.376 397 300 c 258
 397 -65 l 257
 262 -65 l 257
 262 8 l 257
 262 261 l 258
 262 295.946 238.643 312.998 215.092 312.998 c 256
 191.146 312.998 167 295.37 167 261 c 258
 167 202 l 258
 167 166 171.264 140 216 140 c 257
 216 0 l 257
 64 0 32 92 32 189 c 258
EndSplineSet
PickledDataWithLists: "(dp1
S'com.fontlab.hintData'
p2
(dp3
S'vhints'
p4
(lp5
(dp6
S'position'
p7
I32
sS'width'
p8
I135
sa(dp9
g7
I262
sg8
I135
sa(dp10
g7
I457
sg8
I140
sasS'hhints'
p11
(lp12
(dp13
g7
I0
sg8
I21
sa(dp14
g7
I616
sg8
I138
sass."
LCarets2: 1 0
Ligature2: "si_abvs_2 subtable" si_Kha si_MatraIi
EndChar

StartChar: si_KhU
Encoding: 102 -1 214
GlifName: si_K_hU_
Width: 635
VWidth: 0
GlyphClass: 3
Flags: W
HStem: -205 140<68 280 68 280 336 466 68 336 456 466 456 456> 0 21<138 214> 616 139<329 370 209.397 329>
VStem: 30 135<189 202 202 261 184 273 184 333.86> 68 212<-205 -65 -205 -65> 260 135<-30 8 8 261 134 222 222 222 261 278.473> 461 140 461 10 470 140
LayerCount: 2
Back
Fore
SplineSet
46 566 m 257
 183 530 l 257
 183 595.735 222.259 616.5 262.667 616.5 c 257
 273 616.5 l 257
 273 755 l 257
 262.667 755 l 257
 156.127 755 46 672.126 46 566 c 257
260 134 m 258
 260 222 l 257
 395 222 l 257
 395 206 l 258
 395 185.161 412.309 174.909 429.713 174.909 c 256
 447.308 174.909 465 185.388 465 206 c 258
 465 500 l 258
 465 579 448.252 616 370 616 c 257
 329 616 l 257
 329 755 l 257
 370 755 l 257
 504.272 755 605 699 605 500 c 258
 605 209 l 258
 605 73.9892 511.253 20.5406 421.496 20.5406 c 256
 339.066 20.5406 260 65.6188 260 134 c 258
30 189 m 258
 30 273 l 258
 30 394.719 125.151 452.114 218.289 452.114 c 256
 307.569 452.114 395 399.376 395 300 c 258
 395 -30 l 257
 260 -30 l 257
 260 8 l 257
 260 261 l 258
 260 295.946 236.643 312.998 213.092 312.998 c 256
 189.146 312.998 165 295.37 165 261 c 258
 165 202 l 258
 165 166 169.264 140 214 140 c 257
 214 0 l 257
 62 0 30 92 30 189 c 258
456 173 m 257
 596 173 l 257
 596 -205 l 257
 456 -205 l 257
 456 173 l 257
336 -65 m 257
 466 -65 l 257
 466 -205 l 257
 336 -205 l 257
 336 -65 l 257
68 -65 m 257
 280 -65 l 257
 280 -205 l 257
 68 -205 l 257
 68 -65 l 257
EndSplineSet
PickledDataWithLists: "(dp1
S'com.fontlab.hintData'
p2
(dp3
S'vhints'
p4
(lp5
(dp6
S'position'
p7
I30
sS'width'
p8
I135
sa(dp9
g7
I68
sg8
I212
sa(dp10
g7
I260
sg8
I135
sa(dp11
g7
I461
sg8
I140
sa(dp12
g7
I461
sg8
I10
sa(dp13
g7
I470
sg8
I140
sasS'hhints'
p14
(lp15
(dp16
g7
I-205
sg8
I140
sa(dp17
g7
I0
sg8
I21
sa(dp18
g7
I616
sg8
I139
sass."
Ligature2: "si_blws_1 subtable" si_Kha si_MatraU
EndChar

StartChar: si_KhUu
Encoding: 103 -1 215
GlifName: si_K_hU_u
Width: 635
VWidth: 0
GlyphClass: 3
Flags: W
HStem: -205 140 -182 140<260.334 280 336 344.5 260.334 346.5> 0 21<138 214> 616 139<329 370 209.397 329>
VStem: 30 135<189 202 202 261 184 273 184 333.86> 68 212<-179 -42 -182 -39 -182 -39> 260 135<-16 261 154 242 242 242 261 278.473> 461 140 470 140
LayerCount: 2
Back
Fore
SplineSet
68 -39 m 257
 94.334 -58.333 141.444 -64.7773 162.741 -64.7773 c 256
 205.334 -64.7773 240.667 -42 280 -42 c 257
 280 -182 l 257
 240.667 -182 205.334 -204.777 162.741 -204.777 c 256
 141.444 -204.777 94.334 -198.333 68 -179 c 257
 68 -39 l 257
336 -42 m 257
 353 -42 433.148 -46.167 456 -61 c 257
 456 -205 l 257
 430.106 -186.639 357 -182 336 -182 c 257
 336 -42 l 257
46 566 m 257
 183 530 l 257
 183 595.735 222.259 616.5 262.667 616.5 c 257
 273 616.5 l 257
 273 755 l 257
 262.667 755 l 257
 156.127 755 46 672.126 46 566 c 257
260 154 m 258
 260 242 l 257
 395 242 l 257
 395 226 l 258
 395 205.161 412.309 194.909 429.713 194.909 c 256
 447.308 194.909 465 205.388 465 226 c 258
 465 500 l 258
 465 579 448.252 616 370 616 c 257
 329 616 l 257
 329 755 l 257
 370 755 l 257
 504.272 755 605 699 605 500 c 258
 605 229 l 258
 605 93.9892 511.253 40.5406 421.496 40.5406 c 256
 339.066 40.5406 260 85.6188 260 154 c 258
30 189 m 258
 30 273 l 258
 30 394.719 125.151 452.114 218.289 452.114 c 256
 307.569 452.114 395 399.376 395 300 c 258
 395 -16 l 257
 260 -16 l 257
 260 261 l 258
 260 295.946 236.643 312.998 213.092 312.998 c 256
 189.146 312.998 165 295.37 165 261 c 258
 165 202 l 258
 165 166 169.264 140 214 140 c 257
 214 0 l 257
 62 0 30 92 30 189 c 258
456 193 m 257
 596 193 l 257
 596 -205 l 257
 456 -205 l 257
 456 193 l 257
EndSplineSet
PickledDataWithLists: "(dp1
S'com.fontlab.hintData'
p2
(dp3
S'vhints'
p4
(lp5
(dp6
S'position'
p7
I30
sS'width'
p8
I135
sa(dp9
g7
I68
sg8
I212
sa(dp10
g7
I260
sg8
I135
sa(dp11
g7
I461
sg8
I140
sa(dp12
g7
I470
sg8
I140
sasS'hhints'
p13
(lp14
(dp15
g7
I-205
sg8
I140
sa(dp16
g7
I-182
sg8
I140
sa(dp17
g7
I0
sg8
I21
sa(dp18
g7
I616
sg8
I139
sass."
Ligature2: "si_blws_3 subtable" si_Kha si_MatraUu
EndChar

StartChar: si_Kha
Encoding: 22 3483 216
GlifName: si_K_ha
Width: 625
VWidth: 0
GlyphClass: 2
Flags: W
HStem: 0 21<138 214> 616 138
VStem: 32 135 262 135 457 140
LayerCount: 2
Back
Fore
SplineSet
439.553 -6.72454 m 256
 351.984 -6.72454 260 59.1509 260 134 c 258
 260 222 l 257
 395 222 l 257
 395 176 l 258
 395 155.161 409.836 144.909 424.754 144.909 c 256
 439.836 144.909 455 155.388 455 176 c 258
 455 500 l 258
 455 579 438.252 616 360 616 c 257
 329 616 l 257
 329 755 l 257
 360 755 l 257
 494.272 755 595 699 595 500 c 258
 595 199 l 258
 595 47.6332 519.098 -6.72454 439.553 -6.72454 c 256
260 -65 m 257
 260 261 l 258
 260 295.946 236.643 312.998 213.092 312.998 c 256
 189.146 312.998 165 295.37 165 261 c 258
 165 202 l 258
 165 166 169.264 140 214 140 c 257
 214 0 l 257
 62 0 30 92 30 189 c 258
 30 273 l 258
 30 394.719 125.151 452.114 218.289 452.114 c 256
 307.569 452.114 395 399.376 395 300 c 258
 395 -65 l 257
 260 -65 l 257
183 530 m 257
 46 566 l 257
 46 672.126 156.127 755 262.667 755 c 257
 273 755 l 257
 273 616.5 l 257
 262.667 616.5 l 257
 222.259 616.5 183 595.735 183 530 c 257
EndSplineSet
PickledDataWithLists: "(dp1
S'com.fontlab.hintData'
p2
(dp3
S'vhints'
p4
(lp5
(dp6
S'position'
p7
I32
sS'width'
p8
I135
sa(dp9
g7
I262
sg8
I135
sa(dp10
g7
I457
sg8
I140
sasS'hhints'
p11
(lp12
(dp13
g7
I0
sg8
I21
sa(dp14
g7
I616
sg8
I138
sass."
EndChar

StartChar: si_LI
Encoding: 382 -1 218
GlifName: si_L_I_
Width: 626
VWidth: 0
GlyphClass: 3
Flags: W
LayerCount: 2
Back
Fore
SplineSet
281 426 m 257
 281 566 l 257
 348 566 l 257
 348 426 l 257
 281 426 l 257
EndSplineSet
Refer: 248 3538 N 1 0 0 1 22 0 2
Refer: 222 3517 N 1 0 0 1 0 0 2
Ligature2: "si_abvs_1 subtable" si_La si_MatraI
EndChar

StartChar: si_LIi
Encoding: 383 -1 219
GlifName: si_L_I_i
Width: 626
VWidth: 0
GlyphClass: 3
Flags: W
LayerCount: 2
Back
Fore
SplineSet
281 426 m 257
 281 566 l 257
 348 566 l 257
 348 426 l 257
 281 426 l 257
EndSplineSet
Refer: 249 3539 N 1 0 0 1 2 0 2
Refer: 222 3517 N 1 0 0 1 0 0 2
Ligature2: "si_abvs_2 subtable" si_La si_MatraIi
EndChar

StartChar: si_LU
Encoding: 384 -1 220
GlifName: si_L_U_
Width: 651
VWidth: 0
GlyphClass: 3
Flags: W
HStem: -204 139 -30 112 114 100 251 114 251 72 434 140
VStem: 30 146 86 217<-205 -66 -205 -66> 258 128<285 333 330.423 333> 364 230<-205 -66 -66 -66 -31 92 -205 92> 465 129<-205 92 -205 92> 465 4<-205 -66 -205 92> 478 143<262.69 271>
LayerCount: 2
Back
Fore
SplineSet
465 92 m 257
 594 92 l 257
 594 -205 l 257
 465 -205 l 257
 465 92 l 257
364 -66 m 257
 469 -66 l 257
 469 -205 l 257
 364 -205 l 257
 364 -66 l 257
86 -66 m 257
 303 -66 l 257
 303 -205 l 257
 86 -205 l 257
 86 -66 l 257
222 261 m 257
 222 375 l 257
 434 375 l 257
 434 261 l 257
 222 261 l 257
364 -31 m 257
 364 92 l 257
 594 92 l 257
 594 -31 l 257
 364 -31 l 257
30.333 214 m 258
 30.333 294 l 258
 30.333 393.227 65.6476 574.5 303 574.5 c 257
 303 434.5 l 257
 183 425.383 176 370.638 176 294 c 258
 176 214 l 258
 176 110.802 272.624 94.4822 303 92 c 257
 303 -30 l 257
 163.864 -30 30.333 47.3266 30.333 214 c 258
258 285 m 256
 258 289.832 258 327.846 258 333 c 257
 386 333 l 257
 386 265 l 258
 386 246.127 394.178 224 432 224 c 256
 473.721 224 478 254.381 478 271 c 258
 478.195 342 l 258
 478 410.087 429.198 430.203 364 434.5 c 257
 364 574.5 l 257
 480.616 574.5 621 518.818 621 332 c 258
 621 307 l 258
 621 191.127 549.107 124 430 124 c 256
 283.067 124 258 208.669 258 285 c 256
EndSplineSet
PickledDataWithLists: "(dp1
S'com.fontlab.hintData'
p2
(dp3
S'vhints'
p4
(lp5
(dp6
S'position'
p7
I30
sS'width'
p8
I146
sa(dp9
g7
I86
sg8
I217
sa(dp10
g7
I258
sg8
I128
sa(dp11
g7
I364
sg8
I230
sa(dp12
g7
I465
sg8
I129
sa(dp13
g7
I465
sg8
I4
sa(dp14
g7
I478
sg8
I143
sasS'hhints'
p15
(lp16
(dp17
g7
I-204
sg8
I139
sa(dp18
g7
I-30
sg8
I112
sa(dp19
g7
I114
sg8
I100
sa(dp20
g7
I251
sg8
I114
sa(dp21
g7
I251
sg8
I72
sa(dp22
g7
I434
sg8
I140
sass."
Ligature2: "si_blws_1 subtable" si_La si_MatraU
EndChar

StartChar: si_LUu
Encoding: 385 -1 221
GlifName: si_L_U_u
Width: 651
VWidth: 0
GlyphClass: 3
Flags: W
HStem: -245 129 -217 124 -61 133 114 100 251 114 251 72 426 140
VStem: 30 146 258 128<285 333 330.423 333> 303 61<-177 -54 -177 -53 -177 -54 -30 92 -30 -30 434.5 574.5> 364 230<-177 -54 -54 -54 -31 92 -205 92> 465 129<-205 92 -205 92 -205 -73 -205 92> 478 143<262.69 271>
LayerCount: 2
Back
Fore
SplineSet
364 -31 m 257
 364 92 l 257
 594 92 l 257
 594 -31 l 257
 364 -31 l 257
465 92 m 257
 594 92 l 257
 594 -205 l 257
 465 -205 l 257
 465 92 l 257
222 261 m 257
 222 375 l 257
 434 375 l 257
 434 261 l 257
 222 261 l 257
30.333 214 m 258
 30.333 294 l 258
 30.333 393.227 65.6476 574.5 303 574.5 c 257
 303 434.5 l 257
 183 425.383 176 370.638 176 294 c 258
 176 214 l 258
 176 110.802 272.624 94.4822 303 92 c 257
 303 -30 l 257
 163.864 -30 30.333 47.3266 30.333 214 c 258
258 285 m 256
 258 289.832 258 327.846 258 333 c 257
 386 333 l 257
 386 265 l 258
 386 246.127 394.178 224 432 224 c 256
 473.721 224 478 254.381 478 271 c 258
 478.195 342 l 258
 478 410.087 429.198 430.203 364 434.5 c 257
 364 574.5 l 257
 480.616 574.5 621 518.818 621 332 c 258
 621 307 l 258
 621 191.127 549.107 124 430 124 c 256
 283.067 124 258 208.669 258 285 c 256
364 -54 m 257
 388.529 -54 432.028 -58.1674 465 -73 c 257
 465 -205 l 257
 427.639 -182.647 394.3 -177 364 -177 c 257
 364 -54 l 257
86 -51 m 257
 125.66 -69.678 159.997 -75.8262 190.939 -75.8262 c 256
 234.084 -75.8262 268.108 -53 303 -53 c 257
 303 -177 l 257
 263.667 -177 228.334 -204.777 185.741 -204.777 c 256
 155.714 -204.777 123.129 -198.333 86 -179 c 257
 86 -51 l 257
EndSplineSet
PickledDataWithLists: "(dp1
S'com.fontlab.hintData'
p2
(dp3
S'vhints'
p4
(lp5
(dp6
S'position'
p7
I30
sS'width'
p8
I146
sa(dp9
g7
I258
sg8
I128
sa(dp10
g7
I303
sg8
I61
sa(dp11
g7
I364
sg8
I230
sa(dp12
g7
I465
sg8
I129
sa(dp13
g7
I478
sg8
I143
sasS'hhints'
p14
(lp15
(dp16
g7
I-245
sg8
I129
sa(dp17
g7
I-217
sg8
I124
sa(dp18
g7
I-61
sg8
I133
sa(dp19
g7
I114
sg8
I100
sa(dp20
g7
I251
sg8
I114
sa(dp21
g7
I251
sg8
I72
sa(dp22
g7
I426
sg8
I140
sass."
Ligature2: "si_blws_3 subtable" si_La si_MatraUu
EndChar

StartChar: si_La
Encoding: 54 3517 222
GlifName: si_L_a
Width: 626
VWidth: 0
GlyphClass: 2
Flags: W
HStem: -173 140<344 371.079 344 393.528> 54 140 250 114 250 72 426 140<250.334 283 344 376.667>
VStem: 30 138 248 128<225.064 234.5 234.5 322.5 316.702 322.5> 458 138<231.19 239.5>
LayerCount: 2
Back
Fore
SplineSet
248 214.5 m 258
 248 214.5 248 310.903 248 322.5 c 257
 376 322.5 l 257
 376 234.5 l 258
 376 215.627 382.848 193.5 417.333 193.5 c 256
 453.69 193.5 458 222.881 458 239.5 c 258
 458.195 321.5 l 258
 458 396.948 409.333 426 344 426 c 257
 344 566 l 257
 458.348 566 596 522.216 596 321.5 c 258
 596 239.5 l 258
 596 122.36 529.553 53.5 417.333 53.5 c 256
 276.721 53.5 248 138.169 248 214.5 c 258
283 -170.5 m 257
 172.948 -170.5 30.333 -122.855 30.333 73.5 c 258
 30 321.5 l 258
 30 522.216 168.199 566 283 566 c 257
 283 426 l 257
 217.667 426 169 396.948 168.805 321.5 c 258
 168.805 73.5 l 258
 169 -1.94813 217.667 -30.5 283 -30.5 c 257
 283 -170.5 l 257
206 250.5 m 257
 206 364.5 l 257
 418 364.5 l 257
 418 250.5 l 257
 206 250.5 l 257
344 -33 m 257
 344 -173 l 257
 443.056 -173 559.601 -140.143 589 -0.875 c 257
 454 36.7705 l 257
 440.864 -13.0365 398.158 -33 344 -33 c 257
EndSplineSet
PickledDataWithLists: "(dp1
S'com.fontlab.hintData'
p2
(dp3
S'vhints'
p4
(lp5
(dp6
S'position'
p7
I30
sS'width'
p8
I138
sa(dp9
g7
I248
sg8
I128
sa(dp10
g7
I458
sg8
I138
sasS'hhints'
p11
(lp12
(dp13
g7
I-173
sg8
I140
sa(dp14
g7
I54
sg8
I140
sa(dp15
g7
I250
sg8
I114
sa(dp16
g7
I250
sg8
I72
sa(dp17
g7
I426
sg8
I140
sass."
EndChar

StartChar: si_LlU
Encoding: 439 -1 226
GlifName: si_L_lU_
Width: 758
VWidth: 0
GlyphClass: 3
Flags: W
LayerCount: 2
Back
Fore
SplineSet
30 169 m 258
 30 289 l 258
 30 422.903 108.927 495.749 214.144 495.749 c 256
 247.06 495.749 282.549 488.62 319 474 c 257
 319 375 l 257
 282 385 l 258
 267.83 388.592 254.696 390.472 242.748 390.472 c 256
 194.831 390.472 166 360.238 166 289 c 258
 166 169 l 258
 166 88.4355 179.558 66.5967 223 12 c 257
 93.0391 -28 l 257
 44.3975 41.1836 30 78.4443 30 169 c 258
EndSplineSet
Refer: 366 3509 N 1 0 0 1 190 0 2
Ligature2: "si_blws_1 subtable" si_Lla si_MatraU
EndChar

StartChar: si_LlUu
Encoding: 440 -1 227
GlifName: si_L_lU_u
Width: 1025
VWidth: 0
GlyphClass: 3
Flags: W
LayerCount: 2
Back
Fore
SplineSet
30 169 m 258
 30 289 l 258
 30 422.903 108.927 495.749 214.144 495.749 c 256
 247.06 495.749 282.549 488.62 319 474 c 257
 319 375 l 257
 282 385 l 258
 267.83 388.592 254.696 390.472 242.748 390.472 c 256
 194.831 390.472 166 360.238 166 289 c 258
 166 169 l 258
 166 88.4355 179.558 66.5967 223 12 c 257
 93.0391 -28 l 257
 44.3975 41.1836 30 78.4443 30 169 c 258
EndSplineSet
Refer: 242 3537 N 1 0 0 1 748 0 2
Refer: 366 3509 N 1 0 0 1 190 0 2
Ligature2: "si_blws_3 subtable" si_Lla si_MatraUu
EndChar

StartChar: si_Lla
Encoding: 60 3525 228
GlifName: si_L_la
Width: 609
VWidth: 0
GlyphClass: 2
Flags: W
LayerCount: 2
Back
Fore
SplineSet
115.025 421.275 m 257
 115.025 445.525 l 257
 115.025 524.575 169.425 574.725 253.575 574.725 c 256
 284.871 574.725 311.298 565.375 330.075 548.375 c 257
 349.943 569.625 378.784 574.725 400.575 574.725 c 256
 489.825 574.725 539.975 517.445 539.975 436.525 c 257
 424.375 436.525 l 257
 424.375 453.878 412.949 464 397 464 c 256
 378.515 464 370.925 450.263 370.925 436.525 c 257
 286.075 436.525 l 257
 285.398 450.763 280.572 465 259 465 c 256
 236.84 465 230.625 448.961 230.625 434.525 c 257
 115.025 421.275 l 257
30 77 m 258
 30 194 l 258
 30 322.197 132.979 386.745 216 387 c 258
 541 388 l 257
 541 256 l 257
 248 256 l 258
 203.378 256 169.002 227.882 168.996 146 c 258
 169 75 l 258
 169 3.43101 210.412 -30 283 -30 c 256
 283 -170 l 256
 131.835 -170 30.1154 -89.9693 30 77 c 258
144 216 m 257
 235 301 l 257
 235 195.928 309.198 185 334 185 c 258
 354 185 l 258
 390.105 185 419.389 200.704 429 222 c 257
 542 193 l 257
 499 82 406.733 66.9766 358 66.8896 c 258
 325 67 l 258
 217.263 67 144 142 144 216 c 257
344 -30 m 257
 344 -170 l 257
 443.057 -170 559.601 -137.144 589 2.125 c 257
 454 39.7705 l 257
 440.864 -10.0361 398.158 -30 344 -30 c 257
EndSplineSet
EndChar

StartChar: si_Ma
Encoding: 50 3512 238
GlifName: si_M_a
Width: 600
VWidth: 0
GlyphClass: 2
Flags: W
AnchorPoint: "si_rakar" 318 -3 basechar 0
LayerCount: 2
Back
Fore
SplineSet
30 252 m 258
 30 299 l 258
 30 416.254 102.653 470.796 168.343 470.796 c 256
 222.542 470.796 272 433.667 272 364 c 258
 272 348 l 258
 272 336.714 279.716 331.107 287.45 331.107 c 256
 295.216 331.107 303 336.763 303 348 c 258
 303 469 l 257
 395 469 l 257
 395 340 l 258
 395 263.042 342.455 228.663 290.44 228.663 c 256
 239.466 228.663 189 261.682 189 320 c 258
 189 328 l 258
 189 341.305 181.157 348.08 173.361 348.08 c 256
 165.658 348.08 158 341 158 328 c 258
 158 252 l 258
 158 153.848 200.99 135 260.667 135 c 257
 260.667 -5 l 257
 64.9495 -5 30 143 30 252 c 258
317 -5 m 257
 317 135 l 257
 385.414 135 430 147 430 252 c 258
 430 498 l 258
 430 603 385.414 615 317 615 c 257
 317 754 l 257
 527.505 754 570 621.855 570 498 c 258
 570 252 l 258
 570 127 527.505 -5 317 -5 c 257
34 565 m 257
 34 676.959 147.947 754 261 754 c 257
 261 615.5 l 257
 213.009 615.5 171 600.551 171 529 c 257
 34 565 l 257
EndSplineSet
EndChar

StartChar: si_MatraAa
Encoding: 63 3535 240
GlifName: si_M_atraA_a
Width: 277
VWidth: 0
GlyphClass: 2
Flags: W
VStem: 106 141
LayerCount: 2
Back
Fore
SplineSet
30 0 m 257
 30 143 l 257
 50 143 l 257
 102.112 143 106 181.959 106 206 c 258
 106 358 l 258
 106 385.857 102.112 431 50 431 c 257
 30 431 l 257
 30 574 l 257
 50 574 l 257
 189.296 574 246.58 484.263 246.921 368 c 258
 246.921 206 l 258
 246.58 89.7373 189.296 0 50 0 c 257
 30 0 l 257
EndSplineSet
PickledDataWithLists: "(dp1
S'com.fontlab.hintData'
p2
(dp3
S'vhints'
p4
(lp5
(dp6
S'position'
p7
I106
sS'width'
p8
I141
sass."
EndChar

StartChar: si_MatraAae
Encoding: 65 3537 242
GlifName: si_M_atraA_ae
Width: 277
VWidth: 0
GlyphClass: 2
Flags: W
HStem: 0 143<226 247> 302 110<30 30 30 247 74 247> 464 110<30 247 30 247 87 247 30 247>
VStem: 30 217<0 178 302 412 464 574> 30 141<178 178 177.5 412>
LayerCount: 2
Back
Fore
SplineSet
29.9893 216.358 m 258
 29.9893 249.529 30 262 74 302 c 257
 247 302 l 257
 179 250 171 251.229 171 216 c 258
 171 202 l 258
 171 153 201.803 143 226 143 c 256
 234.854 143 242.681 143 247 143 c 257
 247 0 l 257
 239.533 -0.00195312 232.23 -0.00292969 225.19 -0.00292969 c 256
 118.365 -0.00292969 29.8538 49.6214 30 178 c 258
 29.9893 216.358 l 258
30 412 m 257
 87 464 l 257
 247 464 l 257
 188 412 l 257
 30 412 l 257
30 464 m 257
 30 574 l 257
 247 574 l 257
 247 464 l 257
 30 464 l 257
30 302 m 257
 30 412 l 257
 247 412 l 257
 247 302 l 257
 30 302 l 257
EndSplineSet
PickledDataWithLists: "(dp1
S'com.fontlab.hintData'
p2
(dp3
S'vhints'
p4
(lp5
(dp6
S'position'
p7
I30
sS'width'
p8
I217
sa(dp9
g7
I30
sg8
I141
sasS'hhints'
p10
(lp11
(dp12
g7
I0
sg8
I143
sa(dp13
g7
I302
sg8
I110
sa(dp14
g7
I464
sg8
I110
sass."
EndChar

StartChar: si_MatraAe
Encoding: 64 3536 243
GlifName: si_M_atraA_e
Width: 277
VWidth: 0
GlyphClass: 2
Flags: W
HStem: 0 143<226 247>
VStem: 30 217<0 260 0 294.29 442 574> 30 141<177.603 260 177.603 294.29>
LayerCount: 2
Back
Fore
SplineSet
225.19 -0.00292969 m 256
 118.365 -0.00292969 29.8538 57.9849 30 208 c 258
 30 260 l 258
 30 328.58 37.4571 343.178 90 436 c 257
 30 436 l 257
 30 574 l 257
 247 574 l 257
 247 442 l 257
 179.741 318.241 171.059 314.551 171.177 248 c 258
 171 202 l 258
 171 153.207 201.803 143 226 143 c 256
 234.854 143 242.681 143 247 143 c 257
 247 0 l 257
 239.533 -0.00195312 232.23 -0.00292969 225.19 -0.00292969 c 256
EndSplineSet
PickledDataWithLists: "(dp1
S'com.fontlab.hintData'
p2
(dp3
S'vhints'
p4
(lp5
(dp6
S'position'
p7
I30
sS'width'
p8
I217
sa(dp9
g7
I30
sg8
I141
sasS'hhints'
p10
(lp11
(dp12
g7
I0
sg8
I143
sass."
EndChar

StartChar: si_MatraE
Encoding: 71 3545 246
GlifName: si_M_atraE_
Width: 447
VWidth: 0
GlyphClass: 2
Flags: W
HStem: -5 130<115.632 209.334 189.556 209.334 189.556 209.334 257.334 269.283 189.556 288.405 189.556 257.334> 434 130<208.263 219.334 219.334 249.334 249.334 263.672>
VStem: 40 125 297 125
LayerCount: 2
Back
Fore
SplineSet
249.334 434 m 257
 249.334 564 l 257
 270.405 564 l 258
 367.099 564 416.702 487.265 423.658 430.848 c 257
 301.959 399.762 l 257
 298.408 421.596 278.01 434 249.334 434 c 257
233 224 m 257
 233 354.2 l 257
 320.071 354.2 l 258
 379 354.2 427 335 427 255 c 258
 427 157 l 258
 427 69.7471 373.668 -5 288.405 -5 c 258
 257.334 -5 l 257
 257.334 125 l 257
 281.232 125 292 140 292 164 c 258
 292.013 197.271 l 258
 292.013 223.258 275.32 224 248 224 c 258
 233 224 l 257
30 198 m 258
 30 371 l 258
 30 449.253 63 564 208.263 564 c 258
 249.334 564 l 257
 249.334 434 l 257
 219.334 434 l 257
 189.779 434 165 410.398 165 371 c 258
 165 198 l 258
 165 158.602 169.779 125 209.334 125 c 257
 209.334 -5 l 257
 188.263 -5 l 258
 43 -5 30 139.747 30 198 c 258
EndSplineSet
PickledDataWithLists: "(dp1
S'com.fontlab.hintData'
p2
(dp3
S'vhints'
p4
(lp5
(dp6
S'position'
p7
I40
sS'width'
p8
I125
sa(dp9
g7
I297
sg8
I125
sasS'hhints'
p10
(lp11
(dp12
g7
I-5
sg8
I130
sa(dp13
g7
I434
sg8
I130
sass."
EndChar

StartChar: si_MatraI
Encoding: 66 3538 248
GlifName: si_M_atraI_i
Width: 583
VWidth: 0
GlyphClass: 2
Flags: W
LayerCount: 2
Back
Fore
SplineSet
30 602 m 257
 30 630 l 257
 29.623 723.409 106.741 789 206 789 c 257
 377 789 l 257
 476.259 789 553.377 723.409 553 630 c 257
 553 602 l 257
 423 602 l 257
 423 654.112 387.857 658 361 659 c 257
 222 659 l 257
 195.143 658 160 654.112 160 602 c 257
 30 602 l 257
EndSplineSet
PickledDataWithLists: "(dp1
."
EndChar

StartChar: si_MatraIi
Encoding: 67 3539 249
GlifName: si_M_atraI_i000000000000001
Width: 606
VWidth: 0
GlyphClass: 2
Flags: W
HStem: 462 119 659 130<222 458 222 222>
VStem: 472 118
LayerCount: 2
Back
Fore
SplineSet
340 671 m 256
 340 736 393 789 458 789 c 256
 523 789 576 736 576 671 c 256
 576 606 523 553 458 553 c 256
 393 553 340 606 340 671 c 256
30 602 m 257
 30 630 l 257
 29.623 723.409 106.741 789 206 789 c 257
 458 789 l 257
 458 659 l 256
 222 659 l 257
 195.143 658 160 654.112 160 602 c 257
 30 602 l 257
EndSplineSet
PickledDataWithLists: "(dp1
S'com.fontlab.hintData'
p2
(dp3
S'vhints'
p4
(lp5
(dp6
S'position'
p7
I472
sS'width'
p8
I118
sasS'hhints'
p9
(lp10
(dp11
g7
I462
sg8
I119
sa(dp12
g7
I659
sg8
I130
sass."
EndChar

StartChar: si_MatraLs
Encoding: 77 3551 251
GlifName: si_M_atraL_s
Width: 610
VWidth: 0
GlyphClass: 2
Flags: W
VStem: 116 141
LayerCount: 2
Back
Fore
SplineSet
188.387 -7.95992 m 256
 98.6073 -7.95992 10 48.5515 10 166 c 258
 10 202 l 257
 137 202 l 257
 137 166 l 258
 137 130.447 165.963 111.111 194.165 111.111 c 256
 220.925 111.111 247 128.519 247 166 c 258
 247 423 l 258
 247 436 239.342 443.08 231.639 443.08 c 256
 223.843 443.08 216 436.306 216 423 c 258
 216 375 l 258
 216 318.872 169.254 288.449 120.298 288.449 c 256
 66.4842 288.449 10 325.21 10 405 c 258
 10 564 l 257
 102 564 l 257
 102 443 l 258
 102 431.763 109.784 426.107 117.55 426.107 c 256
 125.284 426.107 133 431.714 133 443 c 258
 133 462 l 258
 133 535.112 189.604 571.401 249.265 571.401 c 256
 309.902 571.401 371.783 525.674 374 437 c 258
 374 166 l 258
 374 51.6238 280.575 -7.95992 188.387 -7.95992 c 256
EndSplineSet
PickledDataWithLists: "(dp1
S'com.fontlab.hintData'
p2
(dp3
S'vhints'
p4
(lp5
(dp6
S'position'
p7
I116
sS'width'
p8
I141
sass."
EndChar

StartChar: si_MatraR
Encoding: 70 3544 254
GlifName: si_M_atraR_
Width: 355
VWidth: 0
GlyphClass: 2
Flags: W
LayerCount: 2
Back
Fore
SplineSet
168 -0.179688 m 256
 87.7217 -0.179688 10 54.417 10 157 c 256
 10 236.469 54.1611 310.377 168 310.377 c 256
 168 310.377 168 310.377 168 310.377 c 257
 168 196.377 l 257
 168 196.377 168 196.377 168 196.377 c 256
 143.608 196.377 127 182.938 127 157 c 256
 127 137 143.642 118.377 168 118.377 c 256
 187.706 118.377 205 133 205 157 c 258
 205 382.377 l 257
 204 409.234 200.112 444.377 148 444.377 c 257
 58 444.377 l 257
 58 574.377 l 257
 166 574.377 l 257
 256 574 325 497.636 325 398.377 c 257
 325 157 l 258
 325 50.2568 245.16 -0.179688 168 -0.179688 c 256
EndSplineSet
EndChar

StartChar: si_MatraU
Encoding: 68 3540 256
GlifName: si_M_atraU_
Width: 498
VWidth: 0
GlyphClass: 2
Flags: W
HStem: -197 140
VStem: 30 172
LayerCount: 2
Back
Fore
SplineSet
328 123 m 257
 468 123 l 257
 468 -205 l 257
 328 -205 l 257
 328 123 l 257
258 -65 m 257
 338 -65 l 257
 338 -205 l 257
 258 -205 l 257
 258 -65 l 257
20 -65 m 257
 202 -65 l 257
 202 -205 l 257
 20 -205 l 257
 20 -65 l 257
EndSplineSet
PickledDataWithLists: "(dp1
S'com.fontlab.hintData'
p2
(dp3
S'vhints'
p4
(lp5
(dp6
S'position'
p7
I30
sS'width'
p8
I172
sasS'hhints'
p9
(lp10
(dp11
g7
I-197
sg8
I140
sass."
EndChar

StartChar: si_MatraU.alt
Encoding: 85 -1 257
GlifName: si_M_atraU_.alt
Width: 277
VWidth: 0
GlyphClass: 2
Flags: W
LayerCount: 2
Back
Fore
SplineSet
30 19 m 258
 29.8535 147.379 118.365 197.003 225.19 197.003 c 256
 232.229 197.003 239.533 197.002 247 197 c 257
 247 54 l 257
 242.681 54 234.854 54 226 54 c 256
 202.141 54 171.857 44.0752 171.018 -2.98418 c 258
 171.022 -7.23574 l 258
 171.951 -54.1062 202.178 -64 226 -64 c 256
 234.854 -64 242.681 -64 247 -64 c 257
 247 -205 l 257
 239.533 -205.002 232.229 -205.003 225.19 -205.003 c 256
 118.365 -205.003 29.8535 -155.937 30 -29 c 258
 30 19 l 258
EndSplineSet
EndChar

StartChar: si_MatraUu
Encoding: 69 3542 258
GlifName: si_M_atraU_u
Width: 516
VWidth: 0
GlyphClass: 2
Flags: W
HStem: -205 140 -182 140<200.334 220 276 284.5 200.334 286.5>
VStem: 30 188
LayerCount: 2
Back
Fore
SplineSet
32 -39 m 257
 58.3335 -58.333 81.4448 -64.7773 102.741 -64.7773 c 256
 145.334 -64.7773 180.667 -42 220 -42 c 257
 220 -182 l 257
 180.667 -182 145.334 -204.777 102.741 -204.777 c 256
 81.4448 -204.777 58.3335 -198.333 32 -179 c 257
 32 -39 l 257
346 -205 m 257
 346 123 l 257
 486 123 l 257
 486 -205 l 257
 346 -205 l 257
276 -42 m 257
 293 -42 323.148 -46.1674 346 -61 c 257
 346 -205 l 257
 320.106 -186.639 297 -182 276 -182 c 257
 276 -42 l 257
EndSplineSet
PickledDataWithLists: "(dp1
S'com.fontlab.hintData'
p2
(dp3
S'vhints'
p4
(lp5
(dp6
S'position'
p7
I30
sS'width'
p8
I188
sasS'hhints'
p9
(lp10
(dp11
g7
I-205
sg8
I140
sa(dp12
g7
I-182
sg8
I140
sass."
EndChar

StartChar: si_MatraUu.alt
Encoding: 86 -1 259
GlifName: si_M_atraU_u.alt
Width: 834
VWidth: 0
GlyphClass: 2
Flags: W
LayerCount: 2
Back
Fore
SplineSet
52.9453 -31 m 258
 52.9081 -1.08693 54.8389 5 66 20 c 256
 243 20 l 257
 235.74 20 228.654 20 222 20 c 256
 202.47 20 193 11.3271 193 -18 c 258
 192.844 -47 l 258
 192.964 -66.833 203.775 -75 226 -75 c 256
 239.071 -75 250.624 -75 257 -75 c 257
 257 -205 l 257
 185.19 -205.003 l 258
 129.065 -205.003 53 -162.81 53 -75 c 258
 52.9453 -31 l 258
30 90 m 257
 87 132 l 257
 267 132 l 257
 210 90 l 257
 30 90 l 257
30 132 m 257
 30 202 l 257
 267 202 l 257
 267 132 l 257
 30 132 l 257
30 20 m 257
 30 90 l 257
 267 90 l 257
 267 20 l 257
 30 20 l 257
EndSplineSet
EndChar

StartChar: si_Mba
Encoding: 51 3513 265
GlifName: si_M_ba
Width: 607
VWidth: 0
GlyphClass: 2
Flags: HW
HStem: -11 146 100 104 348 125 616 139<311 348 197.564 311>
VStem: 30 136<157 166 166 328> 223 157<155.538 173.334> 311 92<348 469> 437 140<166 508 508 520>
LayerCount: 2
Back
Fore
SplineSet
437 167 m 256
 437 145 422.556 134.824 408.209 134.824 c 256
 394.057 134.824 380 145.077 380 166 c 256
 380 180.669 372.842 204 346 204 c 258
 257 204 l 258
 230.158 204 223 180.669 223 166 c 256
 223 145.077 208.943 134.824 194.791 134.824 c 256
 180.444 134.824 166 145.36 166 166 c 258
 166 328 l 258
 166 341.465 173.658 348.08 181.361 348.08 c 256
 189.157 348.08 197 341.305 197 328 c 258
 197 320 l 258
 197 261.682 247.465 228.664 298.44 228.664 c 256
 350.455 228.664 403 263.042 403 340 c 258
 403 469 l 257
 311 469 l 257
 311 348 l 258
 311 336.763 303.216 331.107 295.45 331.107 c 256
 287.716 331.107 280 336.714 280 348 c 258
 280 364 l 258
 280 437.112 223.396 473.401 163.735 473.401 c 256
 98.7229 473.401 30 428.355 30 339 c 258
 30 157 l 258
 30 55 94.8102 -11 190 -11 c 256
 220.613 -11 242.363 -2.896 256.45975 10.906 c 256
 270.5565 24.708 277 44.208 277 67 c 256
 277 88.8221 289.492 99.7222 301.988 99.7222 c 256
 314.492 99.7222 327 88.8076 327 67 c 256
 327 44.208 333.4435 24.708 347.54025 10.906 c 256
 361.637 -2.896 383.387 -11 414 -11 c 256
 510.975 -11 577 55 577 157 c 256
 577 520 l 258
 577 695 492.857421875 755 317 755 c 257
 317 616 l 257
 388.119140625 616 437 616 437 508 c 258
 437 167 l 256
170 530 m 257
 33 566 l 257
 33 677.930664062 146.967773438 755 260 755 c 257
 260 616.5 l 257
 211.962890625 616.5 170 601.567382812 170 530 c 257
EndSplineSet
PickledDataWithLists: "(dp1
S'com.fontlab.hintData'
p2
(dp3
S'vhints'
p4
(lp5
(dp6
S'position'
p7
I30
sS'width'
p8
I136
sa(dp9
g7
I223
sg8
I157
sa(dp10
g7
I311
sg8
I92
sa(dp11
g7
I437
sg8
I140
sasS'hhints'
p12
(lp13
(dp14
g7
I-11
sg8
I146
sa(dp15
g7
I100
sg8
I104
sa(dp16
g7
I348
sg8
I125
sa(dp17
g7
I616
sg8
I139
sass."
EndChar

StartChar: si_NDU
Encoding: 484 -1 273
GlifName: si_N_D_U_
Width: 903
VWidth: 0
GlyphClass: 3
Flags: W
LayerCount: 2
Back
Fore
SplineSet
733 136 m 257
 873 136 l 257
 873 -205 l 257
 733 -205 l 257
 733 136 l 257
455 -65 m 257
 677 -65 l 257
 677 -205 l 257
 455 -205 l 257
 455 -65 l 257
450 198 m 256
 450 337.017 545 397 676 397 c 258
 719 397 l 257
 719 459 647 462 597 462.396 c 257
 597 592.392 l 257
 733 592 862 553 862 397 c 258
 862 263 l 257
 676 263 l 258
 637 263 593 257.19 593 198 c 257
 593 146 640 136 677 136 c 256
 677 0 l 256
 557 0 450 59.3916 450 198 c 256
32 439 m 257
 46 537 138.521 567 200 567 c 256
 268.511 567 331 522 331 506 c 257
 247 402 l 257
 247 437 216.169 446 200 446 c 256
 166.069 446 149 422.741 149 402 c 257
 32 439 l 257
125 165 m 257
 125 304 l 256
 149.771 303.963 l 258
 176.32 303.963 251.206 435.953 283.456 479 c 257
 333.498 554.371 422 592 542 592 c 257
 542 462.396 l 257
 460.521 462.321 411.726 435.199 373 384 c 258
 295.093 281 l 257
 239.657 208 201.849 165 154 165 c 257
 125 165 l 257
30 256 m 257
 30 344 l 257
 148 344 l 257
 148 313 148 301 148 270 c 256
 148 150.343 208.982 127 278 127 c 256
 331.142 127 362.45 166.525 362.45 202.924 c 256
 362.45 221.755 354.07 239.749 336 251 c 257
 412.215 354.312 l 257
 472.659 322.193 502.238 261.013 502.238 197.943 c 256
 502.238 97.3507 427.008 -8.00007 281.777 -8.00007 c 256
 133.895 -8.00007 30 85.1582 30 256 c 257
EndSplineSet
Ligature2: "si_blws_2 subtable" si_NDa si_MatraU
EndChar

StartChar: si_NDUu
Encoding: 485 -1 274
GlifName: si_N_D_U_u
Width: 903
VWidth: 0
GlyphClass: 3
Flags: W
LayerCount: 2
Back
Fore
SplineSet
30 256 m 257
 30 344 l 257
 148 344 l 257
 148 313 148 301 148 270 c 256
 148 150.343 208.982 127 278 127 c 256
 331.142 127 362.45 166.525 362.45 202.924 c 256
 362.45 221.755 354.07 239.749 336 251 c 257
 412.215 354.312 l 257
 472.659 322.193 502.238 261.013 502.238 197.943 c 256
 502.238 97.3507 427.008 -8.00007 281.777 -8.00007 c 256
 133.895 -8.00007 30 85.1582 30 256 c 257
125 165 m 257
 125 304 l 256
 149.771 303.963 l 258
 176.32 303.963 251.206 435.953 283.456 479 c 257
 333.498 554.371 422 592 542 592 c 257
 542 462.396 l 257
 460.521 462.321 411.726 435.199 373 384 c 258
 295.093 281 l 257
 239.657 208 201.849 165 154 165 c 257
 125 165 l 257
32 439 m 257
 46 537 138.521 567 200 567 c 256
 268.511 567 331 522 331 506 c 257
 247 402 l 257
 247 437 216.169 446 200 446 c 256
 166.069 446 149 422.741 149 402 c 257
 32 439 l 257
450 198 m 256
 450 337.017 545 397 676 397 c 258
 719 397 l 257
 719 459 647 462 597 462.396 c 257
 597 592.392 l 257
 733 592 862 553 862 397 c 258
 862 263 l 257
 676 263 l 258
 637 263 593 257.19 593 198 c 257
 593 146 640 136 677 136 c 256
 677 0 l 256
 557 0 450 59.3916 450 198 c 256
733 136 m 257
 873 136 l 257
 873 -205 l 257
 733 -205 l 257
 733 136 l 257
455 -39 m 257
 481.334 -58.333 504.444 -64.7773 525.741 -64.7773 c 256
 568.334 -64.7773 576.667 -42 616 -42 c 256
 633 -42 654.148 -46.167 677 -61 c 257
 677 -205 l 257
 651.106 -186.639 637 -182 616 -182 c 256
 576.667 -182 568.334 -204.777 525.741 -204.777 c 256
 504.444 -204.777 481.334 -198.333 455 -179 c 257
 455 -39 l 257
EndSplineSet
Ligature2: "si_blws_4 subtable" si_NDa si_MatraUu
EndChar

StartChar: si_NDa
Encoding: 454 -1 275
GlifName: si_N_D_a
Width: 1023
VWidth: 0
GlyphClass: 3
Flags: W
HStem: -204 126<774.644 799.344 774.644 841.751> 0 136<617 714 677 714> 263 135 454 121
VStem: 32 143
LayerCount: 2
Back
Fore
SplineSet
603 -45 m 257
 603 -136.261 669.999 -204 789 -204 c 256
 894.502 -204 950.119 -148.451 972 -81 c 257
 839 -47 l 257
 833.827 -67.3711 809.689 -78 789 -78 c 256
 760.289 -78 740 -61.1494 740 -45 c 257
 603 -45 l 257
30 256 m 257
 30 344 l 257
 148 344 l 257
 148 313 148 301 148 270 c 256
 148 150.343 208.982 127 278 127 c 256
 331.142 127 362.45 166.525 362.45 202.924 c 256
 362.45 221.755 354.07 239.749 336 251 c 257
 412.215 354.312 l 257
 472.659 322.193 502.238 261.013 502.238 197.943 c 256
 502.238 97.3507 427.008 -8.00007 281.777 -8.00007 c 256
 133.895 -8.00007 30 85.1582 30 256 c 257
125 165 m 257
 125 304 l 256
 149.771 303.963 l 258
 176.32 303.963 251.206 435.953 283.456 479 c 257
 333.498 554.371 422 592 542 592 c 257
 542 462.396 l 257
 460.521 462.321 411.726 435.199 373 384 c 258
 295.093 281 l 257
 239.657 208 201.849 165 154 165 c 257
 125 165 l 257
32 439 m 257
 46 537 138.521 567 200 567 c 256
 268.511 567 331 522 331 506 c 257
 247 402 l 257
 247 437 216.169 446 200 446 c 256
 166.069 446 149 422.741 149 402 c 257
 32 439 l 257
450 198 m 256
 450 334.29 543 397 676 397 c 258
 719 397 l 257
 719 459 647 462 597 462.396 c 257
 597 592.392 l 257
 733 592 862 553 862 397 c 258
 862 263 l 257
 676 263 l 258
 637 263 593 257.19 593 198 c 256
 593 146 640 136 677 136 c 258
 714 136 l 258
 746.728 136 776 140 789 172 c 257
 917 138 l 257
 892 52 806.826 0.131836 714 0 c 258
 677 0 l 258
 557 0 450 59.3916 450 198 c 256
EndSplineSet
PickledDataWithLists: "(dp1
S'com.fontlab.hintData'
p2
(dp3
S'vhints'
p4
(lp5
(dp6
S'position'
p7
I32
sS'width'
p8
I143
sasS'hhints'
p9
(lp10
(dp11
g7
I-204
sg8
I126
sa(dp12
g7
I0
sg8
I136
sa(dp13
g7
I263
sg8
I135
sa(dp14
g7
I454
sg8
I121
sass."
Ligature2: "si_akhands subtable" si_Na si_Halant si_Da
EndChar

StartChar: si_NDh.halant
Encoding: 472 -1 276
GlifName: si_N_D_h.halant
Width: 969
VWidth: 0
GlyphClass: 2
Flags: W
HStem: -8 140<709 739 709 742.979 904.075 915> 200 2<939 1080> 336 138 616 138
VStem: 30 138 245 100 422 141
LayerCount: 2
Back
Fore
SplineSet
570.939 636.534 m 257
 706.934 588.211 l 257
 722.095 608.868 746.17 616.5 770.667 616.5 c 257
 781 616.5 l 257
 781 755 l 257
 770.667 755 l 257
 689.296 755 605.832 706.657 570.939 636.534 c 257
546.999 251.926 m 258
 546.999 324.188 558.455 434.365 696.413 459 c 256
 780 394 l 257
 780 326 l 257
 757.667 326 l 257
 717.667 326 685 312 685 252 c 258
 685 166 l 258
 685 154 694 132 724 132 c 256
 754 132 762 152.875 762 166 c 258
 762 202 l 257
 862 202 l 257
 862 166 l 258
 862 152.875 870 132 900 132 c 256
 930 132 939 154 939 166 c 258
 939 202 l 257
 1080 202 l 257
 1080 160 l 258
 1080 58 1013.38 -8 921 -8 c 256
 887.151 -8 845.925 3.4668 817 35 c 257
 793.108 3.4668 756.959 -8 729 -8 c 256
 622.004 -8 547 58 547 160 c 258
 546.999 251.926 l 258
836 616 m 257
 836 755 l 257
 846 755 l 257
 979.701 755 1080 699.969 1080 520 c 258
 1080 200 l 257
 939 200 l 257
 939 498 l 258
 939 576.997 922.604 616 846 616 c 257
 836 616 l 257
32 439 m 257
 46 537 138.521 567 200 567 c 256
 268.511 567 331 522 331 506 c 257
 247 402 l 257
 247 437 216.169 446 200 446 c 256
 166.069 446 149 422.741 149 402 c 257
 32 439 l 257
125 165 m 257
 125 304 l 256
 149.771 303.963 l 258
 176.32 303.963 251.206 435.953 283.456 479 c 257
 330.963 550.553 420.736 583.379 511.028 583.379 c 256
 644.943 583.379 780 511.171 780 386 c 257
 658 392 l 257
 610.4 438.734 560.98 457.21 515.749 457.21 c 256
 456.455 457.21 404.359 425.459 373 384 c 258
 295.093 281 l 257
 239.657 208 201.849 165 154 165 c 257
 125 165 l 257
30 256 m 257
 30 344 l 257
 148 344 l 257
 148 313 148 301 148 270 c 256
 148 150.343 208.982 127 278 127 c 256
 331.142 127 362.45 166.525 362.45 202.924 c 256
 362.45 221.755 354.07 239.749 336 251 c 257
 412.215 354.312 l 257
 472.659 322.193 502.238 261.013 502.238 197.943 c 256
 502.238 97.3508 427.008 -8.00007 281.777 -8.00007 c 256
 133.896 -8.00007 30 85.1581 30 256 c 257
EndSplineSet
PickledDataWithLists: "(dp1
S'com.fontlab.hintData'
p2
(dp3
S'vhints'
p4
(lp5
(dp6
S'position'
p7
I30
sS'width'
p8
I138
sa(dp9
g7
I245
sg8
I100
sa(dp10
g7
I422
sg8
I141
sasS'hhints'
p11
(lp12
(dp13
g7
I-8
sg8
I140
sa(dp14
g7
I200
sg8
I2
sa(dp15
g7
I336
sg8
I138
sa(dp16
g7
I616
sg8
I138
sass."
EndChar

StartChar: si_NDhI
Encoding: 473 -1 277
GlifName: si_N_D_hI_
Width: 969
VWidth: 0
GlyphClass: 3
Flags: W
HStem: -8 140<709 739 709 742.979 904.075 915> 200 2<939 1080> 336 138 616 138
VStem: 30 138 245 100 422 141
LayerCount: 2
Back
Fore
SplineSet
570.939 636.534 m 257
 706.934 588.211 l 257
 722.095 608.868 746.17 616.5 770.667 616.5 c 257
 781 616.5 l 257
 781 755 l 257
 770.667 755 l 257
 689.296 755 605.832 706.657 570.939 636.534 c 257
546.999 251.926 m 258
 546.999 324.188 558.455 434.365 696.413 459 c 256
 780 394 l 257
 780 326 l 257
 757.667 326 l 257
 717.667 326 685 312 685 252 c 258
 685 166 l 258
 685 154 694 132 724 132 c 256
 754 132 762 152.875 762 166 c 258
 762 202 l 257
 862 202 l 257
 862 166 l 258
 862 152.875 870 132 900 132 c 256
 930 132 939 154 939 166 c 258
 939 202 l 257
 1080 202 l 257
 1080 160 l 258
 1080 58 1013.38 -8 921 -8 c 256
 887.151 -8 845.925 3.4668 817 35 c 257
 793.108 3.4668 756.959 -8 729 -8 c 256
 622.004 -8 547 58 547 160 c 258
 546.999 251.926 l 258
836 616 m 257
 836 755 l 257
 846 755 l 257
 979.701 755 1080 699.969 1080 520 c 258
 1080 200 l 257
 939 200 l 257
 939 498 l 258
 939 576.997 922.604 616 846 616 c 257
 836 616 l 257
32 439 m 257
 46 537 138.521 567 200 567 c 256
 268.511 567 331 522 331 506 c 257
 247 402 l 257
 247 437 216.169 446 200 446 c 256
 166.069 446 149 422.741 149 402 c 257
 32 439 l 257
125 165 m 257
 125 304 l 256
 149.771 303.963 l 258
 176.32 303.963 251.206 435.953 283.456 479 c 257
 330.963 550.553 420.736 583.379 511.028 583.379 c 256
 644.943 583.379 780 511.171 780 386 c 257
 658 392 l 257
 610.4 438.734 560.98 457.21 515.749 457.21 c 256
 456.455 457.21 404.359 425.459 373 384 c 258
 295.093 281 l 257
 239.657 208 201.849 165 154 165 c 257
 125 165 l 257
30 256 m 257
 30 344 l 257
 148 344 l 257
 148 313 148 301 148 270 c 256
 148 150.343 208.982 127 278 127 c 256
 331.142 127 362.45 166.525 362.45 202.924 c 256
 362.45 221.755 354.07 239.749 336 251 c 257
 412.215 354.312 l 257
 472.659 322.193 502.238 261.013 502.238 197.943 c 256
 502.238 97.3508 427.008 -8.00007 281.777 -8.00007 c 256
 133.896 -8.00007 30 85.1581 30 256 c 257
EndSplineSet
PickledDataWithLists: "(dp1
S'com.fontlab.hintData'
p2
(dp3
S'vhints'
p4
(lp5
(dp6
S'position'
p7
I30
sS'width'
p8
I138
sa(dp9
g7
I245
sg8
I100
sa(dp10
g7
I422
sg8
I141
sasS'hhints'
p11
(lp12
(dp13
g7
I-8
sg8
I140
sa(dp14
g7
I200
sg8
I2
sa(dp15
g7
I336
sg8
I138
sa(dp16
g7
I616
sg8
I138
sass."
Ligature2: "si_abvs_5 subtable" si_NDha si_MatraI
EndChar

StartChar: si_NDhIi
Encoding: 474 -1 278
GlifName: si_N_D_hI_i
Width: 969
VWidth: 0
GlyphClass: 3
Flags: W
HStem: -8 140<709 739 709 742.979 904.075 915> 200 2<939 1080> 336 138 616 138
VStem: 30 138 245 100 422 141
LayerCount: 2
Back
Fore
SplineSet
570.939 636.534 m 257
 706.934 588.211 l 257
 722.095 608.868 746.17 616.5 770.667 616.5 c 257
 781 616.5 l 257
 781 755 l 257
 770.667 755 l 257
 689.296 755 605.832 706.657 570.939 636.534 c 257
546.999 251.926 m 258
 546.999 324.188 558.455 434.365 696.413 459 c 256
 780 394 l 257
 780 326 l 257
 757.667 326 l 257
 717.667 326 685 312 685 252 c 258
 685 166 l 258
 685 154 694 132 724 132 c 256
 754 132 762 152.875 762 166 c 258
 762 202 l 257
 862 202 l 257
 862 166 l 258
 862 152.875 870 132 900 132 c 256
 930 132 939 154 939 166 c 258
 939 202 l 257
 1080 202 l 257
 1080 160 l 258
 1080 58 1013.38 -8 921 -8 c 256
 887.151 -8 845.925 3.4668 817 35 c 257
 793.108 3.4668 756.959 -8 729 -8 c 256
 622.004 -8 547 58 547 160 c 258
 546.999 251.926 l 258
836 616 m 257
 836 755 l 257
 846 755 l 257
 979.701 755 1080 699.969 1080 520 c 258
 1080 200 l 257
 939 200 l 257
 939 498 l 258
 939 576.997 922.604 616 846 616 c 257
 836 616 l 257
32 439 m 257
 46 537 138.521 567 200 567 c 256
 268.511 567 331 522 331 506 c 257
 247 402 l 257
 247 437 216.169 446 200 446 c 256
 166.069 446 149 422.741 149 402 c 257
 32 439 l 257
125 165 m 257
 125 304 l 256
 149.771 303.963 l 258
 176.32 303.963 251.206 435.953 283.456 479 c 257
 330.963 550.553 420.736 583.379 511.028 583.379 c 256
 644.943 583.379 780 511.171 780 386 c 257
 658 392 l 257
 610.4 438.734 560.98 457.21 515.749 457.21 c 256
 456.455 457.21 404.359 425.459 373 384 c 258
 295.093 281 l 257
 239.657 208 201.849 165 154 165 c 257
 125 165 l 257
30 256 m 257
 30 344 l 257
 148 344 l 257
 148 313 148 301 148 270 c 256
 148 150.343 208.982 127 278 127 c 256
 331.142 127 362.45 166.525 362.45 202.924 c 256
 362.45 221.755 354.07 239.749 336 251 c 257
 412.215 354.312 l 257
 472.659 322.193 502.238 261.013 502.238 197.943 c 256
 502.238 97.3508 427.008 -8.00007 281.777 -8.00007 c 256
 133.896 -8.00007 30 85.1581 30 256 c 257
EndSplineSet
PickledDataWithLists: "(dp1
S'com.fontlab.hintData'
p2
(dp3
S'vhints'
p4
(lp5
(dp6
S'position'
p7
I30
sS'width'
p8
I138
sa(dp9
g7
I245
sg8
I100
sa(dp10
g7
I422
sg8
I141
sasS'hhints'
p11
(lp12
(dp13
g7
I-8
sg8
I140
sa(dp14
g7
I200
sg8
I2
sa(dp15
g7
I336
sg8
I138
sa(dp16
g7
I616
sg8
I138
sass."
Ligature2: "si_abvs_6 subtable" si_NDha si_MatraIi
EndChar

StartChar: si_NDha
Encoding: 453 -1 281
GlifName: si_N_D_ha
Width: 969
VWidth: 0
GlyphClass: 3
Flags: W
HStem: -8 140<709 739 709 742.979 904.075 915> 200 2<939 1080> 336 138 616 138
VStem: 30 138 245 100 422 141
LayerCount: 2
Back
Fore
SplineSet
570.939 636.534 m 257
 706.934 588.211 l 257
 722.095 608.868 746.17 616.5 770.667 616.5 c 257
 781 616.5 l 257
 781 755 l 257
 770.667 755 l 257
 689.296 755 605.832 706.657 570.939 636.534 c 257
546.999 251.926 m 258
 546.999 324.188 558.455 434.365 696.413 459 c 256
 780 394 l 257
 780 326 l 257
 757.667 326 l 257
 717.667 326 685 312 685 252 c 258
 685 166 l 258
 685 154 694 132 724 132 c 256
 754 132 762 152.875 762 166 c 258
 762 202 l 257
 862 202 l 257
 862 166 l 258
 862 152.875 870 132 900 132 c 256
 930 132 939 154 939 166 c 258
 939 202 l 257
 1080 202 l 257
 1080 160 l 258
 1080 58 1013.38 -8 921 -8 c 256
 887.151 -8 845.925 3.4668 817 35 c 257
 793.108 3.4668 756.959 -8 729 -8 c 256
 622.004 -8 547 58 547 160 c 258
 546.999 251.926 l 258
836 616 m 257
 836 755 l 257
 846 755 l 257
 979.701 755 1080 699.969 1080 520 c 258
 1080 200 l 257
 939 200 l 257
 939 498 l 258
 939 576.997 922.604 616 846 616 c 257
 836 616 l 257
32 439 m 257
 46 537 138.521 567 200 567 c 256
 268.511 567 331 522 331 506 c 257
 247 402 l 257
 247 437 216.169 446 200 446 c 256
 166.069 446 149 422.741 149 402 c 257
 32 439 l 257
125 165 m 257
 125 304 l 256
 149.771 303.963 l 258
 176.32 303.963 251.206 435.953 283.456 479 c 257
 330.963 550.553 420.736 583.379 511.028 583.379 c 256
 644.943 583.379 780 511.171 780 386 c 257
 658 392 l 257
 610.4 438.734 560.98 457.21 515.749 457.21 c 256
 456.455 457.21 404.359 425.459 373 384 c 258
 295.093 281 l 257
 239.657 208 201.849 165 154 165 c 257
 125 165 l 257
30 256 m 257
 30 344 l 257
 148 344 l 257
 148 313 148 301 148 270 c 256
 148 150.343 208.982 127 278 127 c 256
 331.142 127 362.45 166.525 362.45 202.924 c 256
 362.45 221.755 354.07 239.749 336 251 c 257
 412.215 354.312 l 257
 472.659 322.193 502.238 261.013 502.238 197.943 c 256
 502.238 97.3508 427.008 -8.00007 281.777 -8.00007 c 256
 133.896 -8.00007 30 85.1581 30 256 c 257
EndSplineSet
PickledDataWithLists: "(dp1
S'com.fontlab.hintData'
p2
(dp3
S'vhints'
p4
(lp5
(dp6
S'position'
p7
I30
sS'width'
p8
I138
sa(dp9
g7
I245
sg8
I100
sa(dp10
g7
I422
sg8
I141
sasS'hhints'
p11
(lp12
(dp13
g7
I-8
sg8
I140
sa(dp14
g7
I200
sg8
I2
sa(dp15
g7
I336
sg8
I138
sa(dp16
g7
I616
sg8
I138
sass."
Ligature2: "si_akhands subtable" si_Na si_Halant si_Dha
EndChar

StartChar: si_NTh.halant
Encoding: 489 -1 284
GlifName: si_N_T_h.halant
Width: 1078
VWidth: 0
GlyphClass: 2
Flags: W
LayerCount: 2
Back
Fore
SplineSet
912.001 518 m 257
 1048 518 l 257
 1048 819 l 257
 912.001 819 l 257
 912.001 518 l 257
EndSplineSet
Refer: 289 -1 N 1 0 0 1 0 0 2
EndChar

StartChar: si_NThI
Encoding: 490 -1 285
GlifName: si_N_T_hI_
Width: 1078
VWidth: 0
GlyphClass: 3
Flags: W
LayerCount: 2
Back
Fore
SplineSet
665.744 645 m 258
 581.475 645 537.526 709.418 537.526 776.125 c 256
 537.526 847.744 588.187 922 694 922 c 258
 880 922 l 258
 986 922 1029.33 853.602 1029.33 776 c 257
 894 776 l 257
 894 804.182 873.614 805.917 835.849 806 c 258
 694 806 l 258
 673.505 806 663.348 793.325 663.348 780.613 c 256
 663.348 767.826 673.626 755 694 755 c 257
 694 645 l 257
 665.744 645 l 258
EndSplineSet
Refer: 289 -1 N 1 0 0 1 0 0 2
Ligature2: "si_abvs_5 subtable" si_NTha si_MatraI
EndChar

StartChar: si_NThIi
Encoding: 491 -1 286
GlifName: si_N_T_hI_i
Width: 1078
VWidth: 0
GlyphClass: 3
Flags: W
LayerCount: 2
Back
Fore
SplineSet
536.526 776.125 m 256
 536.526 709.419 580.476 645 664.744 645 c 258
 693 645 l 257
 693 755 l 257
 672.626 755 662.348 767.825 662.348 780.613 c 256
 662.348 793.325 672.505 806 693 806 c 258
 832.286 806 l 257
 832.331 749.79 882.692 706 940 706 c 256
 1000 706 1048 754 1048 814 c 256
 1048 874 1000 922 940 922 c 258
 693 922 l 258
 587.187 922 536.526 847.744 536.526 776.125 c 256
EndSplineSet
Refer: 289 -1 N 1 0 0 1 0 0 2
Ligature2: "si_abvs_6 subtable" si_NTha si_MatraIi
EndChar

StartChar: si_NTha
Encoding: 455 -1 289
GlifName: si_N_T_ha
Width: 561
VWidth: 0
GlyphClass: 3
Flags: W
HStem: -8 135 -5 145<731.833 757.667 731.833 757.667 731.833 813> 446 121<183.034 208.084> 454 86<872 872> 616 139<733 852.126>
VStem: 30 118<256 285.5 285.5 344 210.171 344> 125 23<210.171 285.5 285.5 304 304 304> 547 138<203.423 208> 733 80<589.535 616> 908 140<201.761 250 241 241 241 250 250 498>
LayerCount: 2
Back
Fore
SplineSet
32 439 m 257
 46 537 138.521 567 200 567 c 256
 268.511 567 331 522 331 506 c 257
 247 402 l 257
 247 437 216.169 446 200 446 c 256
 166.069 446 149 422.741 149 402 c 257
 32 439 l 257
125 165 m 257
 125 304 l 256
 149.771 303.963 l 258
 176.32 303.963 251.206 435.953 283.456 479 c 257
 330.823 550.342 416.66 583.024 502.437 583.024 c 256
 630.286 583.024 758 510.419 758 385 c 257
 612 386 l 257
 586.315 428.496 544.554 446.804 501.702 446.804 c 256
 452.793 446.804 402.465 422.955 373 384 c 258
 295.093 281 l 257
 239.657 208 201.849 165 154 165 c 257
 125 165 l 257
30 256 m 257
 30 344 l 257
 148 344 l 257
 148 313 148 301 148 270 c 256
 148 150.343 208.982 127 278 127 c 256
 331.142 127 362.45 166.525 362.45 202.924 c 256
 362.45 221.755 354.07 239.749 336 251 c 257
 412.215 354.312 l 257
 472.659 322.193 502.238 261.013 502.238 197.943 c 256
 502.238 97.3508 427.008 -8.00007 281.777 -8.00007 c 256
 133.896 -8.00007 30 85.1581 30 256 c 257
813 -5 m 257
 967.968 -4.83398 1048 78.4932 1048 250 c 256
 908 250 l 256
 908 153.522 855.411 140 813 140 c 257
 813 -5 l 257
733 617 m 258
 733 544.038 768.619 473.607 872 454 c 257
 872 540 l 257
 838.652 547.238 813 563.071 813 616 c 257
 891.252 616 908 577 908 498 c 258
 908 241 l 257
 1048 241 l 257
 1048 517 l 258
 1048 700 947.272 755 813 755 c 257
 733 755 l 257
 733 617 l 258
546.999 261.926 m 258
 546.999 331.578 557.642 436.452 681.947 466 c 256
 757.667 384 l 257
 757.667 336 l 257
 717.667 336 685 322 685 262 c 258
 685 222 l 258
 685 184.846 706 140 757.667 140 c 257
 757.667 -5 l 257
 613.667 -5 547 116.58 547 208 c 258
 546.999 261.926 l 258
EndSplineSet
PickledDataWithLists: "(dp1
S'com.fontlab.hintData'
p2
(dp3
S'vhints'
p4
(lp5
(dp6
S'position'
p7
I30
sS'width'
p8
I118
sa(dp9
g7
I125
sg8
I23
sa(dp10
g7
I547
sg8
I138
sa(dp11
g7
I733
sg8
I80
sa(dp12
g7
I908
sg8
I140
sasS'hhints'
p13
(lp14
(dp15
g7
I-8
sg8
I135
sa(dp16
g7
I-5
sg8
I145
sa(dp17
g7
I446
sg8
I121
sa(dp18
g7
I454
sg8
I86
sa(dp19
g7
I616
sg8
I139
sass."
Ligature2: "si_akhands subtable" si_Na si_Halant si_Tha
EndChar

StartChar: si_NU
Encoding: 297 -1 290
GlifName: si_N_U_
Width: 758
VWidth: 0
GlyphClass: 3
Flags: W
LayerCount: 2
Back
Fore
SplineSet
568 131 m 257
 708 131 l 257
 708 -205 l 257
 568 -205 l 257
 568 131 l 257
418 -65 m 257
 578 -65 l 257
 578 -205 l 257
 418 -205 l 257
 418 -65 l 257
120 -65 m 257
 362 -65 l 257
 362 -205 l 257
 120 -205 l 257
 120 -65 l 257
EndSplineSet
Refer: 298 3505 N 1 0 0 1 0 0 2
Ligature2: "si_blws_1 subtable" si_Na si_MatraU
EndChar

StartChar: si_NUu
Encoding: 298 -1 291
GlifName: si_N_U_u
Width: 758
VWidth: 0
GlyphClass: 3
Flags: W
LayerCount: 2
Back
Fore
SplineSet
120 -34 m 257
 160.479 -59.333 196.005 -67.7773 228.741 -67.7773 c 256
 280.051 -67.7773 314.616 -34 362 -34 c 257
 362 -174 l 257
 314.616 -174 280.051 -204.777 228.741 -204.777 c 256
 196.005 -204.777 160.479 -197.083 120 -174 c 257
 120 -34 l 257
568 131 m 257
 708 131 l 257
 708 -205 l 257
 568 -205 l 257
 568 131 l 257
418 -34 m 257
 447.143 -34 528.825 -39.9219 568 -61 c 257
 568 -205 l 257
 523.61 -180.253 454 -174 418 -174 c 257
 418 -34 l 257
568 131 m 257
 708 131 l 257
 708 -205 l 257
 568 -205 l 257
 568 131 l 257
EndSplineSet
Refer: 298 3505 N 1 0 0 1 0 0 2
Ligature2: "si_blws_3 subtable" si_Na si_MatraUu
EndChar

StartChar: si_NV.halant
Encoding: 494 -1 292
GlifName: si_N_V_.halant
Width: 1082
VWidth: 0
GlyphClass: 2
Flags: W
LayerCount: 2
Back
Fore
SplineSet
820.167 703 m 257
 820.167 819 l 257
 865.667 819 l 258
 1014.03 819 1039 756 1039 673 c 257
 903.667 673 l 257
 903.667 700 879 703 833.667 703 c 258
 820.167 703 l 257
588 652 m 257
 571.708 652 555.543 678.371 555.543 710.154 c 256
 555.543 758.353 592.718 819 723 819 c 258
 764.667 819 l 257
 764.667 703 l 257
 731.667 703 l 258
 702.729 703 696.409 688.847 696.409 676.362 c 256
 696.409 661.503 709.732 652 731.667 652 c 257
 762.667 652 l 257
 762.667 522 l 257
 744.667 522 l 257
 609.492 522 588 607.938 588 652 c 257
538 522 m 257
 538 652 l 257
 763 652 l 257
 763 522 l 257
 538 522 l 257
817 -5 m 257
 817 135 l 257
 859.411 135 911 149 911 250 c 258
 911 455 l 258
 911 514 870.403 522 820.667 522 c 257
 820.667 652 l 257
 980.305 652 1052 590 1052 474 c 258
 1052 250 l 258
 1052 78 971.968 -4.83398 817 -5 c 257
32 439 m 257
 46 537 138.521 567 200 567 c 256
 268.511 567 331 522 331 506 c 257
 247 402 l 257
 247 437 216.169 446 200 446 c 256
 166.069 446 149 422.741 149 402 c 257
 32 439 l 257
125 165 m 257
 125 304 l 256
 149.771 303.963 l 258
 176.32 303.963 251.206 435.953 283.456 479 c 257
 330.506 549.864 427.126 585.676 526.1 585.676 c 256
 675.278 585.676 829.803 504.318 828 339 c 257
 828 252 l 257
 744 252 l 258
 714 252 685 242 685 195 c 256
 685 165.781 707.503 135 761 135 c 257
 761 -5 l 257
 633.558 -5 547 84.2324 547 189 c 256
 547 265.484 568.439 349 686 369 c 257
 651.699 447.451 576.575 452.589 519.43 452.589 c 256
 454.63 452.589 402.375 422.837 373 384 c 258
 295.093 281 l 257
 239.657 208 201.849 165 154 165 c 257
 125 165 l 257
30 256 m 257
 30 344 l 257
 148 344 l 257
 148 313 148 301 148 270 c 256
 148 150.343 208.982 127 278 127 c 256
 331.142 127 362.45 166.525 362.45 202.924 c 256
 362.45 221.755 354.07 239.749 336 251 c 257
 412.215 354.312 l 257
 472.659 322.193 502.238 261.013 502.238 197.943 c 256
 502.238 97.3507 427.008 -8.00007 281.777 -8.00007 c 256
 133.895 -8.00007 30 85.1582 30 256 c 257
EndSplineSet
EndChar

StartChar: si_NVI
Encoding: 495 -1 293
GlifName: si_N_V_I_
Width: 1082
VWidth: 0
GlyphClass: 3
Flags: W
LayerCount: 2
Back
Fore
SplineSet
534.625 670.735 m 256
 534.625 744.907 593.625 819 712 819 c 257
 761 819 l 257
 761 703 l 257
 691 703 l 257
 670.5 703 660.25 690.25 660.25 677.5 c 256
 660.25 664.75 670.5 652 691 652 c 257
 761 652 l 257
 761 522 l 257
 712 522 l 257
 593.875 522 534.625 576.407 534.625 670.735 c 256
816.5 703 m 257
 816.5 819 l 257
 870 819 l 258
 998.359 819 1043.33 756 1043.33 673 c 257
 908 673 l 257
 908 700 883.333 703 838 703 c 258
 816.5 703 l 257
816.667 522 m 257
 816.667 652 l 257
 980.305 652 1052 590 1052 473 c 258
 1052 250 l 258
 1052 78 971.968 -4.83398 817 -5 c 257
 817 135 l 257
 859.411 135 911 149 911 250 c 258
 911 454 l 258
 911 514 870.403 522 816.667 522 c 257
32 439 m 257
 46 537 138.521 567 200 567 c 256
 268.511 567 331 522 331 506 c 257
 247 402 l 257
 247 437 216.169 446 200 446 c 256
 166.069 446 149 422.741 149 402 c 257
 32 439 l 257
125 165 m 257
 125 304 l 256
 149.771 303.963 l 258
 176.32 303.963 251.206 435.953 283.456 479 c 257
 330.506 549.864 427.126 585.676 526.1 585.676 c 256
 675.278 585.676 829.803 504.318 828 339 c 257
 828 252 l 257
 744 252 l 258
 714 252 685 242 685 195 c 256
 685 165.781 707.503 135 761 135 c 257
 761 -5 l 257
 633.558 -5 547 84.2324 547 189 c 256
 547 265.484 568.439 349 686 369 c 257
 651.699 447.451 576.575 452.589 519.43 452.589 c 256
 454.63 452.589 402.375 422.837 373 384 c 258
 295.093 281 l 257
 239.657 208 201.849 165 154 165 c 257
 125 165 l 257
30 256 m 257
 30 344 l 257
 148 344 l 257
 148 313 148 301 148 270 c 256
 148 150.343 208.982 127 278 127 c 256
 331.142 127 362.45 166.525 362.45 202.924 c 256
 362.45 221.755 354.07 239.749 336 251 c 257
 412.215 354.312 l 257
 472.659 322.193 502.238 261.013 502.238 197.943 c 256
 502.238 97.3507 427.008 -8.00007 281.777 -8.00007 c 256
 133.895 -8.00007 30 85.1582 30 256 c 257
EndSplineSet
Ligature2: "si_abvs_5 subtable" si_NVa si_MatraI
EndChar

StartChar: si_NVIi
Encoding: 496 -1 294
GlifName: si_N_V_I_i
Width: 1082
VWidth: 0
GlyphClass: 3
Flags: W
LayerCount: 2
Back
Fore
SplineSet
839 711 m 256
 839 651 887 603 947 603 c 256
 1007 603 1055 651 1055 711 c 256
 1055 771 1007 819 947 819 c 256
 887 819 839 771 839 711 c 256
817 703 m 257
 947 703 l 257
 947 819 l 257
 817 819 l 257
 817 703 l 257
703 645 m 258
 760.667 645 l 257
 760.667 522 l 257
 714 522 l 258
 595.849 522 536.625 596.374 536.625 670.686 c 256
 536.625 744.874 595.651 819 714 819 c 258
 761 819 l 257
 761 703 l 257
 703 703 l 258
 678.558 703 666.36 688.518 666.36 674.028 c 256
 666.36 659.518 678.589 645 703 645 c 258
817 -5 m 257
 971.968 -4.83398 1052 78 1052 250 c 258
 1052 474 l 258
 1052 594.972 1000.64 644.92 865.094 644.92 c 256
 853.898 644.919 829.219 645 817 645 c 257
 817 522 l 257
 869.736 522 912 514 912 455 c 258
 912 250 l 258
 912 149 859.411 135 817 135 c 257
 817 -5 l 257
32 439 m 257
 46 537 138.521 567 200 567 c 256
 268.511 567 331 522 331 506 c 257
 247 402 l 257
 247 437 216.169 446 200 446 c 256
 166.069 446 149 422.741 149 402 c 257
 32 439 l 257
125 165 m 257
 125 304 l 256
 149.771 303.963 l 258
 176.32 303.963 251.206 435.953 283.456 479 c 257
 330.506 549.864 427.126 585.676 526.1 585.676 c 256
 675.278 585.676 829.803 504.318 828 339 c 257
 828 252 l 257
 744 252 l 258
 714 252 685 242 685 195 c 256
 685 165.781 707.503 135 761 135 c 257
 761 -5 l 257
 633.558 -5 547 84.2324 547 189 c 256
 547 265.484 568.439 349 686 369 c 257
 651.699 447.451 576.575 452.589 519.43 452.589 c 256
 454.63 452.589 402.375 422.837 373 384 c 258
 295.093 281 l 257
 239.657 208 201.849 165 154 165 c 257
 125 165 l 257
30 256 m 257
 30 344 l 257
 148 344 l 257
 148 313 148 301 148 270 c 256
 148 150.343 208.982 127 278 127 c 256
 331.142 127 362.45 166.525 362.45 202.924 c 256
 362.45 221.755 354.07 239.749 336 251 c 257
 412.215 354.312 l 257
 472.659 322.193 502.238 261.013 502.238 197.943 c 256
 502.238 97.3507 427.008 -8.00007 281.777 -8.00007 c 256
 133.895 -8.00007 30 85.1582 30 256 c 257
EndSplineSet
Ligature2: "si_abvs_6 subtable" si_NVa si_MatraIi
EndChar

StartChar: si_NVa
Encoding: 456 -1 297
GlifName: si_N_V_a
Width: 1082
VWidth: 0
GlyphClass: 3
Flags: W
HStem: -5 140<734.252 761 734.252 761 734.252 817> 399 102 616 138
VStem: 33 138 398 140
LayerCount: 2
Back
Fore
SplineSet
568.839 650.188 m 257
 713.062 603.412 l 257
 726.888 612.756 743.841 616.5 761 616.5 c 257
 761 755 l 257
 685.024 755 607.225 712.855 568.839 650.188 c 257
817 -5 m 257
 971.968 -4.83398 1052 78.4932 1052 250 c 258
 1052 520 l 258
 1052 699.969 951.272 755 817 755 c 257
 817 616 l 257
 895.252 616 912 577 912 498 c 258
 912 250 l 258
 912 149.137 859.411 135 817 135 c 257
 817 -5 l 257
32 439 m 257
 46 537 138.521 567 200 567 c 256
 268.511 567 331 522 331 506 c 257
 247 402 l 257
 247 437 216.169 446 200 446 c 256
 166.069 446 149 422.741 149 402 c 257
 32 439 l 257
125 165 m 257
 125 304 l 256
 149.771 303.963 l 258
 176.32 303.963 251.206 435.953 283.456 479 c 257
 330.506 549.864 427.126 585.676 526.1 585.676 c 256
 675.278 585.676 829.803 504.318 828 339 c 257
 828 252 l 257
 744 252 l 258
 714 252 685 242 685 195 c 256
 685 165.781 707.503 135 761 135 c 257
 761 -5 l 257
 633.558 -5 547 84.2324 547 189 c 256
 547 265.484 568.439 349 686 369 c 257
 651.699 447.451 576.575 452.589 519.43 452.589 c 256
 454.63 452.589 402.375 422.837 373 384 c 258
 295.093 281 l 257
 239.657 208 201.849 165 154 165 c 257
 125 165 l 257
30 256 m 257
 30 344 l 257
 148 344 l 257
 148 313 148 301 148 270 c 256
 148 150.343 208.982 127 278 127 c 256
 331.142 127 362.45 166.525 362.45 202.924 c 256
 362.45 221.755 354.07 239.749 336 251 c 257
 412.215 354.312 l 257
 472.659 322.193 502.238 261.013 502.238 197.943 c 256
 502.238 97.3508 427.008 -8.00007 281.777 -8.00007 c 256
 133.896 -8.00007 30 85.1581 30 256 c 257
EndSplineSet
PickledDataWithLists: "(dp1
S'com.fontlab.hintData'
p2
(dp3
S'vhints'
p4
(lp5
(dp6
S'position'
p7
I33
sS'width'
p8
I138
sa(dp9
g7
I398
sg8
I140
sasS'hhints'
p10
(lp11
(dp12
g7
I-5
sg8
I140
sa(dp13
g7
I399
sg8
I102
sa(dp14
g7
I616
sg8
I138
sass."
Ligature2: "si_akhands subtable" si_Na si_Halant si_Va
EndChar

StartChar: si_Na
Encoding: 44 3505 298
GlifName: si_N_a
Width: 758
VWidth: 0
GlyphClass: 2
Flags: W
HStem: -8 135 436 138 446 121<183.034 208.084>
VStem: 30 118<256 285.5 285.5 344 210.171 344> 125 23<210.171 285.5 285.5 304 304 304> 588 140<198 317 317 337 198 354.083>
LayerCount: 2
Back
Fore
SplineSet
532 -8 m 257
 532 135 l 257
 584.112 135 588 173.959 588 198 c 258
 588 317 l 258
 588 391.167 530.397 436.016 470.745 436.016 c 256
 434.879 436.016 399.422 418.933 373 384 c 258
 295.093 281 l 257
 239.657 208 201.849 165 154 165 c 257
 125 165 l 257
 125 304 l 256
 149.771 303.963 l 258
 163.0455 303.963 188.40425 336.9605 214.475625 375.338875 c 256
 240.547 413.71725 267.331 457.4765 283.456 479 c 257
 325.869 542.88 400.3 573.748 476.268 573.748 c 256
 600.092 573.748 728 491.739 728 337 c 258
 728 198 l 258
 727.58 81.7373 671.296 -8 532 -8 c 257
30 256 m 257
 30 344 l 257
 148 344 l 257
 148 313 148 301 148 270 c 256
 148 150.343 208.982 127 278 127 c 256
 331.142 127 362.45 166.525 362.45 202.924 c 256
 362.45 221.755 354.07 239.749 336 251 c 257
 412.215 354.312 l 257
 472.659 322.193 502.238 261.013 502.238 197.943 c 256
 502.238 97.3508 427.008 -8.00007 281.777 -8.00007 c 256
 133.896 -8.00007 30 85.1581 30 256 c 257
32 439 m 257
 46 537 138.521 567 200 567 c 256
 268.511 567 331 522 331 506 c 257
 247 402 l 257
 247 437 216.169 446 200 446 c 256
 166.069 446 149 422.741 149 402 c 257
 32 439 l 257
EndSplineSet
PickledDataWithLists: "(dp1
S'com.fontlab.hintData'
p2
(dp3
S'vhints'
p4
(lp5
(dp6
S'position'
p7
I30
sS'width'
p8
I118
sa(dp9
g7
I125
sg8
I23
sa(dp10
g7
I588
sg8
I140
sasS'hhints'
p11
(lp12
(dp13
g7
I-8
sg8
I135
sa(dp14
g7
I436
sg8
I138
sa(dp15
g7
I446
sg8
I121
sass."
EndChar

StartChar: si_Nda
Encoding: 45 3507 306
GlifName: si_N_da
Width: 712
VWidth: 0
GlyphClass: 2
Flags: W
HStem: -204 126<544.644 569.344 544.644 611.751> 0 136<389 486 449 486> 263 135<428.5 505 448 505 448 634> 454 121<425.293 441.941>
VStem: 30 136<209 294 168.718 383.757> 222 143<172 227.595 172 266.145>
LayerCount: 2
Back
Fore
SplineSet
373 -45 m 257
 510 -45 l 257
 510 -61.1494 530.289 -78 559 -78 c 256
 579.689 -78 603.827 -67.3711 609 -47 c 257
 742 -81 l 257
 720.119 -148.451 664.502 -204 559 -204 c 256
 439.999 -204 373 -136.261 373 -45 c 257
30 209 m 258
 30 294 l 258
 30 473.514 142.301 567.01 267.897 567.01 c 256
 299.615 567.01 332.181 561.047 364 549.001 c 257
 364 420 l 257
 343.277 428.289 317.614 433.956 291.71 433.956 c 256
 229.549 433.956 166 401.326 166 294 c 258
 166 209 l 258
 166 128.436 168.558 87.5967 233 11 c 257
 103.039 -29 l 257
 43.3975 48.1836 30 118.444 30 209 c 258
222 198 m 256
 222 334.29 315.044 398 448 398 c 258
 505 398 l 257
 505 445.656 450.882 454 433 454 c 256
 417.587 454 374.856 453.742 364 420 c 257
 241 468 l 257
 276.903 550.873 354.709 575 433 575 c 256
 542 575 635 520 635 385 c 258
 634 263 l 257
 448 263 l 258
 409 263 365 257.19 365 198 c 256
 365 146 412 136 449 136 c 258
 486 136 l 258
 518.728 136 548 140 561 172 c 257
 689 138 l 257
 664 52 578.826 0.131836 486 0 c 258
 449 0 l 258
 329 0 222 59.3916 222 198 c 256
EndSplineSet
PickledDataWithLists: "(dp1
S'com.fontlab.hintData'
p2
(dp3
S'vhints'
p4
(lp5
(dp6
S'position'
p7
I30
sS'width'
p8
I136
sa(dp9
g7
I222
sg8
I143
sasS'hhints'
p10
(lp11
(dp12
g7
I-204
sg8
I126
sa(dp13
g7
I0
sg8
I136
sa(dp14
g7
I263
sg8
I135
sa(dp15
g7
I454
sg8
I121
sass."
EndChar

StartChar: si_Ndj.halant
Encoding: 199 -1 307
GlifName: si_N_dj.halant
Width: 801
VWidth: 0
GlyphClass: 3
Flags: W
LayerCount: 2
Back
Fore
SplineSet
490.001 529 m 257
 490.001 819 l 257
 621.001 819 l 257
 621.001 696 l 257
 497.685 529 l 257
 490.001 529 l 257
EndSplineSet
Refer: 314 3494 N 1 0 0 1 0 0 2
Ligature2: "si_halant_1 subtable" si_Ndja si_Halant
EndChar

StartChar: si_NdjU
Encoding: 202 -1 312
GlifName: si_N_djU_
Width: 801
VWidth: 0
GlyphClass: 2
Flags: W
LayerCount: 2
Back
Fore
SplineSet
618 131 m 257
 758 131 l 257
 758 -205 l 257
 618 -205 l 257
 618 131 l 257
518 -65 m 257
 628 -65 l 257
 628 -205 l 257
 518 -205 l 257
 518 -65 l 257
245 -65 m 257
 462 -65 l 257
 462 -205 l 257
 245 -205 l 257
 245 -65 l 257
EndSplineSet
Refer: 314 3494 N 1 0 0 1 0 0 2
EndChar

StartChar: si_NdjUu
Encoding: 203 -1 313
GlifName: si_N_djU_u
Width: 801
VWidth: 0
GlyphClass: 3
Flags: W
LayerCount: 2
Back
Fore
SplineSet
245 -34 m 257
 285.479 -59.333 305.005 -67.7773 337.741 -67.7773 c 256
 389.051 -67.7773 404.616 -38 452 -38 c 257
 452 -178 l 257
 404.616 -178 389.051 -204.777 337.741 -204.777 c 256
 305.005 -204.777 285.479 -197.083 245 -174 c 257
 245 -34 l 257
618 131 m 257
 758 131 l 257
 758 -205 l 257
 618 -205 l 257
 618 131 l 257
508 -38 m 257
 537.143 -38 578.825 -39.9219 618 -61 c 257
 618 -205 l 257
 573.61 -180.253 544 -178 508 -178 c 257
 508 -38 l 257
EndSplineSet
Refer: 314 3494 N 1 0 0 1 0 0 2
Ligature2: "si_blws_3 subtable" si_Ndja si_MatraUu
EndChar

StartChar: si_Ndja
Encoding: 33 3494 314
GlifName: si_N_dja
Width: 801
VWidth: 0
GlyphClass: 2
Flags: W
LayerCount: 2
Back
Fore
SplineSet
106.039 -41 m 257
 46.3975 36.1836 30 101.444 30 192 c 258
 30 332 l 258
 30 467.37 124.233 571.777 244.776 571.777 c 256
 271.161 571.777 353.996329543 569.498164772 321 553 c 257
 321 422 l 257
 286.746763595 433.914169184 270.764 437.365 253.785 437.365 c 256
 210.828 437.365 161 413.791 161 307 c 258
 161 197 l 258
 161 116.436 171.558 75.5967 236 -1 c 257
 106.039 -41 l 257
EndSplineSet
Refer: 159 3490 N 1 0 0 1 175 0 2
EndChar

StartChar: si_Ng.halant
Encoding: 128 -1 315
GlifName: si_N_g.halant
Width: 593
VWidth: 0
GlyphClass: 3
Flags: W
HStem: -8 140<192 222 192 225.98 387.076 398> 200 2<422 563> 251 100<99.667 200.667 99.667 229 99.667 238 99.667 214> 397 100<173 174 174 229> 616 138
VStem: 30 138<109 166> 245 100<166 202 159.438 202> 287 105 422 141<166 202 200 202 202 455 202 202 455 474>
LayerCount: 2
Back
Fore
SplineSet
89 652 m 257
 72.7076 652 56.543 678.371 56.543 710.154 c 256
 56.543 758.353 93.7184 819 224 819 c 258
 265.667 819 l 257
 265.667 703 l 257
 232.667 703 l 258
 203.729 703 197.409 688.847 197.409 676.362 c 256
 197.409 661.503 210.732 652 232.667 652 c 257
 263.667 652 l 257
 263.667 522 l 257
 245.667 522 l 257
 110.492 522 89 607.938 89 652 c 257
321.167 703 m 257
 321.167 819 l 257
 376.667 819 l 258
 525.026 819 550 756 550 673 c 257
 414.667 673 l 257
 414.667 700 390 703 344.667 703 c 258
 321.167 703 l 257
233.667 522 m 257
 233.667 652 l 257
 331.667 652 l 257
 331.667 522 l 257
 233.667 522 l 257
42 522 m 257
 42 652 l 257
 234 652 l 257
 234 522 l 257
 42 522 l 257
53 374 m 256
 53 435.527 93.2119 497 173 497 c 257
 238 497 l 257
 317.788 497 357.737 435.443 357.737 373.916 c 256
 357.737 312.443 317.861 251 238 251 c 257
 214 251 l 257
 214 351.2 l 257
 229 351.2 l 257
 244.501 351.2 252.355 362.75 252.355 374.25 c 256
 252.355 385.649 244.637 397 229 397 c 257
 174 397 l 257
 158.363 397 151 385.399 151 374 c 256
 53 374 l 256
29.999 196.926 m 258
 29.999 278.692 31.667 351 167.667 351 c 257
 229 351.2 l 257
 229 251 l 257
 200.667 251 l 257
 181.667 251 168 242 168 217 c 258
 168 166 l 258
 168 154 177 132 207 132 c 256
 237 132 245 152.875 245 166 c 258
 245 202 l 257
 345 202 l 257
 345 166 l 258
 345 152.875 353 132 383 132 c 256
 413 132 422 154 422 166 c 258
 422 202 l 257
 563 202 l 257
 563 160 l 258
 563 58 496.381 -8 404 -8 c 256
 370.151 -8 328.925 3.4668 300 35 c 257
 276.108 3.4668 239.959 -8 212 -8 c 256
 105.004 -8 30 58 30 160 c 258
 29.999 196.926 l 258
331.667 522 m 257
 331.667 652 l 257
 491.305 652 563 588 563 474 c 258
 563 200 l 257
 422 200 l 257
 422 455 l 258
 422 514 381.403 522 331.667 522 c 257
EndSplineSet
PickledDataWithLists: "(dp1
S'com.fontlab.hintData'
p2
(dp3
S'vhints'
p4
(lp5
(dp6
S'position'
p7
I30
sS'width'
p8
I138
sa(dp9
g7
I245
sg8
I100
sa(dp10
g7
I287
sg8
I105
sa(dp11
g7
I422
sg8
I141
sasS'hhints'
p12
(lp13
(dp14
g7
I-8
sg8
I140
sa(dp15
g7
I200
sg8
I2
sa(dp16
g7
I251
sg8
I100
sa(dp17
g7
I397
sg8
I100
sa(dp18
g7
I616
sg8
I138
sass."
Ligature2: "si_halant_1 subtable" si_Nga si_Halant
EndChar

StartChar: si_NgI
Encoding: 129 -1 316
GlifName: si_N_gI_
Width: 593
VWidth: 0
GlyphClass: 3
Flags: W
HStem: -8 140<192 222 192 225.98 387.076 398> 200 2<422 563> 251 100<99.667 200.667 99.667 229 99.667 238 99.667 214> 397 100<173 174 174 229> 616 138
VStem: 30 138<109 166> 245 100<166 202 159.438 202> 287 105 422 141<166 202 200 202 202 446 202 202 446 473>
LayerCount: 2
Back
Fore
SplineSet
31.292 670.735 m 256
 31.292 744.907 90.292 819 208.667 819 c 257
 253.667 819 l 257
 253.667 703 l 257
 187.667 703 l 257
 167.167 703 156.917 690.25 156.917 677.5 c 256
 156.917 664.75 167.167 652 187.667 652 c 257
 253.667 652 l 257
 253.667 512 l 257
 208.667 512 l 257
 90.542 512 31.292 570.065 31.292 670.735 c 256
309.167 703 m 257
 309.167 819 l 257
 376.667 819 l 258
 505.026 819 550 756 550 673 c 257
 414.667 673 l 257
 414.667 700 390 703 344.667 703 c 258
 309.167 703 l 257
53 374 m 256
 53 435.527 93.2119 497 173 497 c 257
 238 497 l 257
 317.788 497 357.737 435.443 357.737 373.916 c 256
 357.737 312.443 317.861 251 238 251 c 257
 214 251 l 257
 214 351.2 l 257
 229 351.2 l 257
 244.501 351.2 252.355 362.75 252.355 374.25 c 256
 252.355 385.649 244.637 397 229 397 c 257
 174 397 l 257
 158.363 397 151 385.399 151 374 c 256
 53 374 l 256
29.999 196.926 m 258
 29.999 278.692 31.667 351 167.667 351 c 257
 229 351.2 l 257
 229 251 l 257
 200.667 251 l 257
 181.667 251 168 242 168 217 c 258
 168 166 l 258
 168 154 177 132 207 132 c 256
 237 132 245 152.875 245 166 c 258
 245 202 l 257
 345 202 l 257
 345 166 l 258
 345 152.875 353 132 383 132 c 256
 413 132 422 154 422 166 c 258
 422 202 l 257
 563 202 l 257
 563 160 l 258
 563 58 496.381 -8 404 -8 c 256
 370.151 -8 328.925 3.4668 300 35 c 257
 276.108 3.4668 239.959 -8 212 -8 c 256
 105.004 -8 30 58 30 160 c 258
 29.999 196.926 l 258
253.667 512 m 257
 253.667 652 l 257
 331.667 652 l 257
 491.305 652 563 590 563 473 c 258
 563 200 l 257
 422 200 l 257
 422 446 l 258
 422 504 381.403 512 331.667 512 c 257
 253.667 512 l 257
EndSplineSet
PickledDataWithLists: "(dp1
S'com.fontlab.hintData'
p2
(dp3
S'vhints'
p4
(lp5
(dp6
S'position'
p7
I30
sS'width'
p8
I138
sa(dp9
g7
I245
sg8
I100
sa(dp10
g7
I287
sg8
I105
sa(dp11
g7
I422
sg8
I141
sasS'hhints'
p12
(lp13
(dp14
g7
I-8
sg8
I140
sa(dp15
g7
I200
sg8
I2
sa(dp16
g7
I251
sg8
I100
sa(dp17
g7
I397
sg8
I100
sa(dp18
g7
I616
sg8
I138
sass."
Ligature2: "si_abvs_1 subtable" si_Nga si_MatraI
EndChar

StartChar: si_NgIi
Encoding: 130 -1 317
GlifName: si_N_gI_i
Width: 593
VWidth: 0
GlyphClass: 3
Flags: W
HStem: -8 140<192 222 192 225.98 387.076 398> 200 2<422 563> 251 100<99.667 200.667 99.667 229 99.667 238 99.667 214> 397 100<173 174 174 229> 616 138
VStem: 30 138<109 166> 245 100<166 202 159.438 202> 287 105 422 141<166 202 200 202 202 457 202 202 457 475>
LayerCount: 2
Back
Fore
SplineSet
350.667 711 m 256
 350.667 771 398.667 819 458.667 819 c 256
 518.667 819 566.667 771 566.667 711 c 256
 566.667 651 518.667 603 458.667 603 c 256
 398.667 603 350.667 651 350.667 711 c 256
295.667 703 m 257
 295.667 819 l 257
 458.667 819 l 257
 458.667 703 l 257
 295.667 703 l 257
197.667 645 m 258
 243.667 645 l 257
 335.667 645 l 257
 335.667 522 l 257
 243.667 522 l 257
 208.667 522 l 258
 90.516 522 31.2919 596.374 31.2919 670.686 c 256
 31.2919 744.874 90.3183 819 208.667 819 c 258
 239.667 819 l 257
 239.667 703 l 257
 197.667 703 l 258
 173.225 703 161.027 688.518 161.027 674.028 c 256
 161.027 659.518 173.256 645 197.667 645 c 258
53 374 m 256
 53 435.527 93.2119 497 173 497 c 257
 238 497 l 257
 317.788 497 357.737 435.443 357.737 373.916 c 256
 357.737 312.443 317.861 251 238 251 c 257
 214 251 l 257
 214 351.2 l 257
 229 351.2 l 257
 244.501 351.2 252.355 362.75 252.355 374.25 c 256
 252.355 385.649 244.637 397 229 397 c 257
 174 397 l 257
 158.363 397 151 385.399 151 374 c 256
 53 374 l 256
29.999 196.926 m 258
 29.999 278.692 31.667 351 167.667 351 c 257
 229 351.2 l 257
 229 251 l 257
 200.667 251 l 257
 181.667 251 168 242 168 217 c 258
 168 166 l 258
 168 154 177 132 207 132 c 256
 237 132 245 152.875 245 166 c 258
 245 202 l 257
 345 202 l 257
 345 166 l 258
 345 152.875 353 132 383 132 c 256
 413 132 422 154 422 166 c 258
 422 202 l 257
 563 202 l 257
 563 160 l 258
 563 58 496.381 -8 404 -8 c 256
 370.151 -8 328.925 3.4668 300 35 c 257
 276.108 3.4668 239.959 -8 212 -8 c 256
 105.004 -8 30 58 30 160 c 258
 29.999 196.926 l 258
331.667 522 m 257
 331.667 645 l 257
 343.7 645 364.998 644.92 376.269 644.92 c 256
 509.128 644.931 563 595.228 563 475 c 258
 563 200 l 257
 422 200 l 257
 422 457 l 258
 422 514 381.403 522 331.667 522 c 257
EndSplineSet
PickledDataWithLists: "(dp1
S'com.fontlab.hintData'
p2
(dp3
S'vhints'
p4
(lp5
(dp6
S'position'
p7
I30
sS'width'
p8
I138
sa(dp9
g7
I245
sg8
I100
sa(dp10
g7
I287
sg8
I105
sa(dp11
g7
I422
sg8
I141
sasS'hhints'
p12
(lp13
(dp14
g7
I-8
sg8
I140
sa(dp15
g7
I200
sg8
I2
sa(dp16
g7
I251
sg8
I100
sa(dp17
g7
I397
sg8
I100
sa(dp18
g7
I616
sg8
I138
sass."
Ligature2: "si_abvs_2 subtable" si_Nga si_MatraIi
EndChar

StartChar: si_Nga
Encoding: 25 3486 318
GlifName: si_N_ga
Width: 593
VWidth: 0
GlyphClass: 2
Flags: W
HStem: -8 140<192 222 192 225.98 387.076 398> 200 2<422 563> 251 100<99.667 200.667 99.667 229 99.667 214 99.667 238> 397 100<173 174 174 229> 616 138
VStem: 30 138<109 166> 245 100<166 202 159.438 202> 287 105 422 141<166 202 200 202 202 498 202 202 498 520>
LayerCount: 2
Back
Fore
SplineSet
212 -8 m 256
 105.004 -8 30 58 30 160 c 258
 29.999 196.926 l 258
 29.999 278.692 31.667 351 167.667 351 c 257
 229 351.2 l 257
 229 251 l 257
 200.667 251 l 257
 181.667 251 168 242 168 217 c 258
 168 166 l 258
 168 154 177 132 207 132 c 256
 237 132 245 152.875 245 166 c 258
 245 202 l 257
 345 202 l 257
 345 166 l 258
 345 152.875 353 132 383 132 c 256
 413 132 422 154 422 166 c 258
 422 202 l 257
 563 202 l 257
 563 160 l 258
 563 58 496.381 -8 404 -8 c 256
 370.151 -8 328.925 3.4668 300 35 c 257
 276.108 3.4668 239.959 -8 212 -8 c 256
53 374 m 256
 53 435.527 93.2119 497 173 497 c 257
 238 497 l 257
 317.788 497 357.737 435.443 357.737 373.916 c 256
 357.737 312.443 317.861 251 238 251 c 257
 214 251 l 257
 214 351.2 l 257
 229 351.2 l 257
 244.501 351.2 252.355 362.75 252.355 374.25 c 256
 252.355 385.649 244.637 397 229 397 c 257
 174 397 l 257
 158.363 397 151 385.399 151 374 c 256
 53 374 l 256
422 200 m 257
 422 498 l 258
 422 576.997 405.604 616 329 616 c 257
 319 616 l 257
 319 755 l 257
 329 755 l 257
 462.701 755 563 699.969 563 520 c 258
 563 200 l 257
 422 200 l 257
36 566 m 257
 36 672.126 146.127 755 252.667 755 c 257
 263 755 l 257
 263 616.5 l 257
 252.667 616.5 l 257
 212.259 616.5 173 595.735 173 530 c 257
 36 566 l 257
EndSplineSet
PickledDataWithLists: "(dp1
S'com.fontlab.hintData'
p2
(dp3
S'vhints'
p4
(lp5
(dp6
S'position'
p7
I30
sS'width'
p8
I138
sa(dp9
g7
I245
sg8
I100
sa(dp10
g7
I287
sg8
I105
sa(dp11
g7
I422
sg8
I141
sasS'hhints'
p12
(lp13
(dp14
g7
I-8
sg8
I140
sa(dp15
g7
I200
sg8
I2
sa(dp16
g7
I251
sg8
I100
sa(dp17
g7
I397
sg8
I100
sa(dp18
g7
I616
sg8
I138
sass."
EndChar

StartChar: si_NnU
Encoding: 239 -1 322
GlifName: si_N_nU_
Width: 1019
VWidth: 0
GlyphClass: 3
Flags: W
LayerCount: 2
Back
Fore
SplineSet
834 131 m 257
 974 131 l 257
 974 -205 l 257
 834 -205 l 257
 834 131 l 257
638 -65 m 257
 844 -65 l 257
 844 -205 l 257
 638 -205 l 257
 638 -65 l 257
316 -65 m 257
 582 -65 l 257
 582 -205 l 257
 316 -205 l 257
 316 -65 l 257
EndSplineSet
Refer: 324 3499 N 1 0 0 1 0 0 2
Ligature2: "si_blws_1 subtable" si_Nna si_MatraU
EndChar

StartChar: si_NnUu
Encoding: 240 -1 323
GlifName: si_N_nU_u
Width: 1019
VWidth: 0
GlyphClass: 3
Flags: W
LayerCount: 2
Back
Fore
SplineSet
320 -34 m 257
 360.479 -59.333 396.005 -67.7773 428.741 -67.7773 c 256
 480.051 -67.7773 533.616 -34 581 -34 c 257
 581 -174 l 257
 533.616 -174 480.051 -204.777 428.741 -204.777 c 256
 396.005 -204.777 360.479 -197.083 320 -174 c 257
 320 -34 l 257
834 131 m 257
 974 131 l 257
 974 -205 l 257
 834 -205 l 257
 834 131 l 257
639 -34 m 257
 668.143 -34 794.825 -39.9219 834 -61 c 257
 834 -205 l 257
 789.61 -180.253 675 -174 639 -174 c 257
 639 -34 l 257
EndSplineSet
Refer: 324 3499 N 1 0 0 1 0 0 2
Ligature2: "si_blws_3 subtable" si_Nna si_MatraUu
EndChar

StartChar: si_Nna
Encoding: 38 3499 324
GlifName: si_N_na
Width: 1019
VWidth: 0
GlyphClass: 2
Flags: W
LayerCount: 2
Back
Fore
SplineSet
4 26 m 257
 22.2471 76.4678 77 159 170 159 c 256
 224.287 159 277.202 139.727 317.302 139.727 c 256
 359.871 139.727 388 153.446 388 243 c 258
 388 343 l 258
 388 401.834 382.322 474 287 474 c 256
 229.17 474 201.708 435.68 201.708 399.426 c 256
 201.708 366.881 223.839 336 266 336 c 256
 286.513 336 306 336 322 336 c 257
 322 202 l 257
 312 202 271.156 201.959 245.25 201.959 c 256
 148.378 201.959 65 275.274 65 398 c 256
 65 535 177 606 287 606 c 256
 497.698 606 519.075 470.731 519.075 343 c 256
 519.075 328.861 519 261.315 519 243 c 256
 519 95 464 0 346 0 c 256
 303 0 240 27 195 27 c 256
 150 27 138 -8 138 -8 c 257
 4 26 l 257
644 251 m 257
 645 350 l 257
 645 404 626.025 421 606 421 c 256
 580 421 577 412 573 407 c 257
 533 532 l 257
 537 538 566 563 623 563 c 256
 668 563 698 543 717 522 c 257
 738 543 773 563 826 563 c 256
 924.132 563 990.301 512.605 991 405 c 258
 992 251 l 257
 852 251 l 257
 852 372 l 258
 852 397 849 420 816 420 c 256
 785.983 420 779 396.998 779 372 c 258
 779 251 l 257
 644 251 l 257
554 164 m 258
 554 202 l 257
 694 202 l 257
 694 187 l 258
 694 141 738 126 771 126 c 256
 806 126 852 136 852 185 c 258
 852 202 l 257
 992 202 l 257
 991 181 l 256
 991 56 889 -6 772 -6 c 256
 627 -6 554 69 554 164 c 258
294 522 m 257
 499.721 793 l 257
 645 755 l 257
 400 433 l 257
 294 522 l 257
EndSplineSet
EndChar

StartChar: si_Nndd.halant
Encoding: 242 -1 326
GlifName: si_N_ndd.halant
Width: 789
VWidth: 0
GlyphClass: 3
Flags: W
LayerCount: 2
Back
Fore
SplineSet
285 652 m 257
 268.708 652 252.543 678.371 252.543 710.154 c 256
 252.543 758.353 289.718 819 420 819 c 258
 461.667 819 l 257
 461.667 703 l 257
 428.667 703 l 258
 399.729 703 393.409 688.847 393.409 676.362 c 256
 393.409 661.503 406.732 652 428.667 652 c 257
 459.667 652 l 257
 459.667 522 l 257
 441.667 522 l 257
 306.492 522 285 607.938 285 652 c 257
517.167 703 m 257
 517.167 819 l 257
 572.667 819 l 258
 721.026 819 746 756 746 673 c 257
 610.667 673 l 257
 610.667 700 586 703 540.667 703 c 258
 517.167 703 l 257
429.667 522 m 257
 429.667 652 l 257
 527.667 652 l 257
 527.667 522 l 257
 429.667 522 l 257
238 522 m 257
 238 652 l 257
 430 652 l 257
 430 522 l 257
 238 522 l 257
30 210 m 258
 30 277 l 258
 30 415.323 128.995 505.4 241.245 505.4 c 256
 265.828 505.4 291.046 501.08 316 492 c 257
 316 361 l 257
 294 370 l 258
 281.637 374.888 265.14 379.114 247.91 379.114 c 256
 205.21 379.114 158 353.16 158 247 c 258
 158 210 l 258
 158 129.436 168.558 88.5967 233 12 c 257
 103.039 -28 l 257
 43.3975 49.1836 30 119.444 30 210 c 258
207 231 m 257
 207 333 l 257
 423 333 l 257
 423 339 l 257
 423.059 368.055 395.028 385 372 385 c 256
 356.974 385 330.582 384 316 361 c 257
 217 401 l 257
 245.494 488.737 332.711 502 372 502 c 256
 496.97 502 541 412.605 541 329 c 258
 541 231 l 257
 399 231 l 257
 368.475 231 364 211 364 199 c 257
 364 166 l 258
 364 154 373 132 403 132 c 256
 433 132 441 152.875 441 166 c 258
 441 202 l 257
 541 202 l 257
 541 166 l 258
 541 152.875 549 132 579 132 c 256
 609 132 618 154 618 166 c 258
 618 202 l 257
 759 202 l 257
 759 160 l 258
 759 58 692.381 -8 600 -8 c 256
 566.151 -8 524.925 3.4668 496 35 c 257
 472.108 3.4668 435.959 -8 408 -8 c 256
 302.768 -8 229 58 229 160 c 258
 229 199 l 257
 229 206 229 226 237 231 c 257
 207 231 l 257
527.667 522 m 257
 527.667 652 l 257
 687.305 652 759 590 759 474 c 258
 759 200 l 257
 618 200 l 257
 618 455 l 258
 618 514 577.403 522 527.667 522 c 257
EndSplineSet
Ligature2: "si_halant_1 subtable" si_Nndda si_Halant
EndChar

StartChar: si_NnddI
Encoding: 243 -1 327
GlifName: si_N_nddI_
Width: 789
VWidth: 0
GlyphClass: 3
Flags: W
LayerCount: 2
Back
Fore
SplineSet
227.292 670.735 m 256
 227.292 744.907 286.292 819 404.667 819 c 257
 449.667 819 l 257
 449.667 703 l 257
 383.667 703 l 257
 363.167 703 352.917 690.25 352.917 677.5 c 256
 352.917 664.75 363.167 652 383.667 652 c 257
 452 652 l 257
 452 512 l 257
 404.667 512 l 257
 286.542 512 227.292 570.065 227.292 670.735 c 256
505.167 703 m 257
 505.167 819 l 257
 572.667 819 l 258
 701.026 819 746 756 746 673 c 257
 610.667 673 l 257
 610.667 700 586 703 540.667 703 c 258
 505.167 703 l 257
30 210 m 258
 30 277 l 258
 30 415.323 128.995 505.4 241.245 505.4 c 256
 265.828 505.4 291.046 501.08 316 492 c 257
 316 361 l 257
 294 370 l 258
 281.637 374.888 265.14 379.114 247.91 379.114 c 256
 205.21 379.114 158 353.16 158 247 c 258
 158 210 l 258
 158 129.436 168.558 88.5967 233 12 c 257
 103.039 -28 l 257
 43.3975 49.1836 30 119.444 30 210 c 258
207 231 m 257
 207 333 l 257
 423 333 l 257
 423 339 l 257
 423.059 368.055 395.028 385 372 385 c 256
 356.974 385 330.582 384 316 361 c 257
 217 401 l 257
 245.494 488.737 332.711 502 372 502 c 256
 496.97 502 541 412.605 541 329 c 258
 541 231 l 257
 399 231 l 257
 368.475 231 364 211 364 199 c 257
 364 166 l 258
 364 154 373 132 403 132 c 256
 433 132 441 152.875 441 166 c 258
 441 202 l 257
 541 202 l 257
 541 166 l 258
 541 152.875 549 132 579 132 c 256
 609 132 618 154 618 166 c 258
 618 202 l 257
 759 202 l 257
 759 160 l 258
 759 58 692.381 -8 600 -8 c 256
 566.151 -8 524.925 3.4668 496 35 c 257
 472.108 3.4668 435.959 -8 408 -8 c 256
 302.768 -8 229 58 229 160 c 258
 229 199 l 257
 229 206 229 226 237 231 c 257
 207 231 l 257
445.167 512 m 257
 445.167 652 l 257
 527.667 652 l 257
 687.305 652 759 590 759 474 c 258
 759 200 l 257
 618 200 l 257
 618 445 l 258
 618 504 577.403 512 527.667 512 c 257
 445.167 512 l 257
EndSplineSet
Ligature2: "si_abvs_1 subtable" si_Nndda si_MatraI
EndChar

StartChar: si_NnddIi
Encoding: 244 -1 328
GlifName: si_N_nddI_i
Width: 789
VWidth: 0
GlyphClass: 3
Flags: W
LayerCount: 2
Back
Fore
SplineSet
546.667 711 m 256
 546.667 771 594.667 819 654.667 819 c 256
 714.667 819 762.667 771 762.667 711 c 256
 762.667 651 714.667 603 654.667 603 c 256
 594.667 603 546.667 651 546.667 711 c 256
491.667 703 m 257
 491.667 819 l 257
 654.667 819 l 257
 654.667 703 l 257
 491.667 703 l 257
393.667 645 m 258
 439.667 645 l 257
 531.667 645 l 257
 531.667 522 l 257
 439.667 522 l 257
 404.667 522 l 258
 286.516 522 227.292 596.374 227.292 670.686 c 256
 227.292 744.874 286.318 819 404.667 819 c 258
 435.667 819 l 257
 435.667 703 l 257
 393.667 703 l 258
 369.225 703 357.027 688.518 357.027 674.028 c 256
 357.027 659.518 369.256 645 393.667 645 c 258
30 210 m 258
 30 277 l 258
 30 415.323 128.995 505.4 241.245 505.4 c 256
 265.828 505.4 291.046 501.08 316 492 c 257
 316 361 l 257
 294 370 l 258
 281.637 374.888 265.14 379.114 247.91 379.114 c 256
 205.21 379.114 158 353.16 158 247 c 258
 158 210 l 258
 158 129.436 168.558 88.5967 233 12 c 257
 103.039 -28 l 257
 43.3975 49.1836 30 119.444 30 210 c 258
207 231 m 257
 207 333 l 257
 423 333 l 257
 423 339 l 257
 423.059 368.055 395.028 385 372 385 c 256
 356.974 385 330.582 384 316 361 c 257
 217 401 l 257
 245.494 488.737 332.711 502 372 502 c 256
 496.97 502 541 412.605 541 329 c 258
 541 231 l 257
 399 231 l 257
 368.475 231 364 211 364 199 c 257
 364 166 l 258
 364 154 373 132 403 132 c 256
 433 132 441 152.875 441 166 c 258
 441 202 l 257
 541 202 l 257
 541 166 l 258
 541 152.875 549 132 579 132 c 256
 609 132 618 154 618 166 c 258
 618 202 l 257
 759 202 l 257
 759 160 l 258
 759 58 692.381 -8 600 -8 c 256
 566.151 -8 524.925 3.4668 496 35 c 257
 472.108 3.4668 435.959 -8 408 -8 c 256
 302.768 -8 229 58 229 160 c 258
 229 199 l 257
 229 206 229 226 237 231 c 257
 207 231 l 257
527.667 522 m 257
 527.667 645 l 257
 539.7 645 560.998 644.92 572.269 644.92 c 256
 705.13 644.931 759 596.23 759 474 c 258
 759 200 l 257
 618 200 l 257
 618 455 l 258
 618 514 577.403 522 527.667 522 c 257
EndSplineSet
Ligature2: "si_abvs_2 subtable" si_Nndda si_MatraIi
EndChar

StartChar: si_NnddU
Encoding: 245 -1 329
GlifName: si_N_nddU_
Width: 789
VWidth: 0
GlyphClass: 3
Flags: W
LayerCount: 2
Back
Fore
SplineSet
606 123 m 257
 746 123 l 257
 746 -205 l 257
 606 -205 l 257
 606 123 l 257
524 -65 m 257
 616 -65 l 257
 616 -205 l 257
 524 -205 l 257
 524 -65 l 257
256 -65 m 257
 468 -65 l 257
 468 -205 l 257
 256 -205 l 257
 256 -65 l 257
EndSplineSet
Refer: 331 3500 N 1 0 0 1 0 0 2
Ligature2: "si_blws_1 subtable" si_Nndda si_MatraU
EndChar

StartChar: si_NnddUu
Encoding: 246 -1 330
GlifName: si_N_nddU_u
Width: 789
VWidth: 0
GlyphClass: 3
Flags: W
LayerCount: 2
Back
Fore
SplineSet
247 -39 m 257
 273.334 -58.333 316.444 -64.7773 337.741 -64.7773 c 256
 380.334 -64.7773 428.667 -42 468 -42 c 257
 468 -182 l 257
 428.667 -182 380.334 -204.777 337.741 -204.777 c 256
 316.444 -204.777 273.334 -198.333 247 -179 c 257
 247 -39 l 257
601 123 m 257
 741 123 l 257
 741 -205 l 257
 601 -205 l 257
 601 123 l 257
524 -42 m 257
 541 -42 578.148 -46.167 601 -61 c 257
 601 -205 l 257
 575.106 -186.639 545 -182 524 -182 c 257
 524 -42 l 257
EndSplineSet
Refer: 331 3500 N 1 0 0 1 0 0 2
Ligature2: "si_blws_3 subtable" si_Nndda si_MatraUu
EndChar

StartChar: si_Nndda
Encoding: 39 3500 331
GlifName: si_N_ndda
Width: 789
VWidth: 0
GlyphClass: 2
Flags: W
LayerCount: 2
Back
Fore
SplineSet
408 -8 m 256
 302.768 -8 229 58 229 160 c 258
 229 199 l 257
 229 206 229 226 237 231 c 257
 207 231 l 257
 207 333 l 257
 423 333 l 257
 423 368.055059904 395.028 385 372 385 c 256
 356.974 385 330.582 384 316 361 c 257
 217 401 l 257
 245.494 488.737 332.711 502 372 502 c 256
 496.97 502 541 412.605 541 329 c 258
 541 231 l 257
 399 231 l 257
 368.475 231 364 211 364 199 c 257
 364 166 l 258
 364 154 373 132 403 132 c 256
 433 132 441 152.875 441 166 c 258
 441 202 l 257
 541 202 l 257
 541 166 l 258
 541 152.875 549 132 579 132 c 256
 609 132 618 154 618 166 c 258
 618 202 l 257
 759 202 l 257
 759 160 l 258
 759 58 692.381 -8 600 -8 c 256
 566.151 -8 524.925 3.4668 496 35 c 257
 472.108 3.4668 435.959 -8 408 -8 c 256
103.039 -28 m 257
 43.3975 49.1836 30 119.444 30 210 c 258
 30 277 l 258
 30 415.323 128.995 505.4 241.245 505.4 c 256
 265.828 505.4 291.046 501.08 316 492 c 257
 316 361 l 257
 281.695574183 375.033628743 265.14 379.114 247.91 379.114 c 256
 205.21 379.114 158 353.16 158 247 c 258
 158 210 l 258
 158 129.436 168.558 88.5967 233 12 c 257
 103.039 -28 l 257
618 200 m 257
 618 498 l 258
 618 576.997 601.604 616 525 616 c 257
 515 616 l 257
 515 755 l 257
 525 755 l 257
 658.701 755 759 699.969 759 520 c 258
 759 200 l 257
 618 200 l 257
232 566 m 257
 232 672.126 342.127 755 448.667 755 c 257
 459 755 l 257
 459 616.5 l 257
 448.667 616.5 l 257
 408.259 616.5 369 595.735 369 530 c 257
 232 566 l 257
EndSplineSet
EndChar

